<mxfile host="Electron" modified="2024-07-22T07:51:28.489Z" agent="Mozilla/5.0 (Windows NT 10.0; Win64; x64) AppleWebKit/537.36 (KHTML, like Gecko) draw.io/24.5.3 Chrome/124.0.6367.207 Electron/30.0.6 Safari/537.36" etag="Xb5XPteAQEeHzqKE3O3H" version="24.5.3" type="device">
  <diagram id="KNkAfDMtus3OYxsUXtEe" name="Page-2">
    <mxGraphModel dx="3772" dy="2491" grid="1" gridSize="10" guides="1" tooltips="1" connect="1" arrows="1" fold="1" page="1" pageScale="1" pageWidth="1169" pageHeight="827" math="0" shadow="0">
      <root>
        <mxCell id="0" />
        <mxCell id="1" parent="0" />
        <mxCell id="8l6RRYxQaxA69R045GtP-26" value="&lt;font face=&quot;arial&quot; color=&quot;#0070f2&quot;&gt;&lt;span style=&quot;font-size: 16px;&quot;&gt;&lt;b&gt;Business-to-Business Integration&lt;/b&gt;&lt;/span&gt;&lt;/font&gt;" style="text;html=1;align=left;verticalAlign=middle;resizable=0;points=[];autosize=1;strokeColor=none;fillColor=none;fontSize=12;fontColor=#1d2d3e;fontFamily=Helvetica;" parent="1" vertex="1">
          <mxGeometry x="-2312" y="-1643.9999999999998" width="280" height="30" as="geometry" />
        </mxCell>
        <mxCell id="DMnXaM8c1wDCKZaSVBvl-1" value="&lt;font face=&quot;arial&quot; color=&quot;#475e75&quot;&gt;This BTP Solution Diagram depicts implementation options for Business-to-Business&lt;/font&gt;&lt;span style=&quot;background-color: initial; color: rgb(71, 94, 117); font-family: arial;&quot;&gt;&amp;nbsp;Integration&lt;br&gt;&lt;/span&gt;&lt;span style=&quot;background-color: initial; color: rgb(71, 94, 117); font-family: arial;&quot;&gt;covering all integration&amp;nbsp;&lt;/span&gt;&lt;span style=&quot;background-color: initial; color: rgb(71, 94, 117); font-family: arial;&quot;&gt;domains with focus on the design- and runtime perspective.&lt;/span&gt;" style="text;html=1;align=left;verticalAlign=middle;resizable=0;points=[];autosize=1;strokeColor=none;fillColor=none;fontSize=12;fontColor=#1D2D3E;fontFamily=Helvetica;" parent="1" vertex="1">
          <mxGeometry x="-2284.5000000000005" y="-722" width="530" height="40" as="geometry" />
        </mxCell>
        <mxCell id="DMnXaM8c1wDCKZaSVBvl-2" value="&lt;font face=&quot;arial&quot; color=&quot;#475e75&quot;&gt;&lt;b&gt;Diagram Level: L2&lt;/b&gt;&lt;/font&gt;" style="text;html=1;align=left;verticalAlign=middle;resizable=0;points=[];autosize=1;strokeColor=none;fillColor=none;fontSize=12;fontColor=#1D2D3E;fontFamily=Helvetica;" parent="1" vertex="1">
          <mxGeometry x="-2284.5000000000005" y="-743" width="121" height="26" as="geometry" />
        </mxCell>
        <mxCell id="8l6RRYxQaxA69R045GtP-1" value="" style="rounded=1;whiteSpace=wrap;html=1;strokeColor=#0070F2;fillColor=#EBF8FF;arcSize=16;absoluteArcSize=1;imageWidth=64;imageHeight=64;strokeWidth=1.5;" parent="1" vertex="1">
          <mxGeometry x="-2064.56" y="-1608" width="734.56" height="848" as="geometry" />
        </mxCell>
        <mxCell id="_FdFY5pbQAiYYbf3v4dS-67" value="&lt;span style=&quot;font-size: 16px;&quot;&gt;&lt;b&gt;Trading&lt;/b&gt;&lt;/span&gt;&lt;div style=&quot;&quot;&gt;&lt;span style=&quot;font-size: 16px;&quot;&gt;&lt;b&gt;Partners&lt;/b&gt;&lt;/span&gt;&lt;/div&gt;" style="rounded=1;whiteSpace=wrap;html=1;strokeColor=#8695a4;fillColor=#ffffff;arcSize=24;absoluteArcSize=1;imageWidth=64;imageHeight=64;strokeWidth=1.5;container=0;fontFamily=Arial;align=left;spacingLeft=7;" parent="1" vertex="1">
          <mxGeometry x="-2319" y="-1129.45" width="136" height="70.87" as="geometry" />
        </mxCell>
        <mxCell id="bFVPSskZjtyiZDLN3V_n-101" value="" style="group" parent="1" vertex="1" connectable="0">
          <mxGeometry x="-1732" y="-860" width="744.3489403973508" height="217.45999999999998" as="geometry" />
        </mxCell>
        <mxCell id="vsUOsGuE6CD4la2BPaX0-2" value="" style="group" parent="bFVPSskZjtyiZDLN3V_n-101" vertex="1" connectable="0">
          <mxGeometry x="450" y="-203" width="238" height="200" as="geometry" />
        </mxCell>
        <mxCell id="dFPvA1FSlUZvYu8P9tU1-122" value="" style="rounded=1;whiteSpace=wrap;html=1;strokeColor=#0070F2;strokeWidth=1.5;arcSize=16;fillColor=#FFFFFF;perimeterSpacing=0;absoluteArcSize=1;" parent="vsUOsGuE6CD4la2BPaX0-2" vertex="1">
          <mxGeometry width="238" height="200" as="geometry" />
        </mxCell>
        <mxCell id="dFPvA1FSlUZvYu8P9tU1-123" value="" style="shape=image;verticalLabelPosition=bottom;labelBackgroundColor=default;verticalAlign=top;aspect=fixed;imageAspect=0;image=data:image/svg+xml,PHN2ZyB4bWxucz0iaHR0cDovL3d3dy53My5vcmcvMjAwMC9zdmciIGZpbGw9Im5vbmUiIHZpZXdCb3g9IjAgMCAxNiAxNyIgaGVpZ2h0PSIxNyIgd2lkdGg9IjE2Ij4mI3hhOzxwYXRoIGZpbGw9InVybCgjcGFpbnQwX2xpbmVhcl83MjRfMTIpIiBkPSJNMTQuMzMzNSA1LjgzNDk0QzE0LjU4MzUgNi4wODQ5NCAxNC43ODE0IDYuMzc2NjEgMTQuOTI3MiA2LjcwOTk0QzE1LjA5MzkgNy4wMjI0NCAxNS4xNzcyIDcuMzY2MTkgMTUuMTc3MiA3Ljc0MTE5VjE0LjQyODdDMTUuMTc3MiAxNS4xMzcgMTQuOTM3NiAxNS43MjA0IDE0LjQ1ODUgMTYuMTc4N0MxMy45NzkzIDE2LjY1NzkgMTMuMzg1NSAxNi44OTc1IDEyLjY3NzIgMTYuODk3NUgyLjc3MDk0QzIuMDgzNDQgMTYuODk3NSAxLjUwMDExIDE2LjY1NzkgMS4wMjA5NCAxNi4xNzg3QzAuNTQxNzY4IDE1LjcyMDQgMC4zMDIxODUgMTUuMTM3IDAuMzAyMTg1IDE0LjQyODdWNy43NDExOUMwLjMwMjE4NSA2Ljk0OTUyIDAuNTgzNDM1IDYuMzE0MTEgMS4xNDU5NCA1LjgzNDk0TDYuMDgzNDQgMS41NTM2OUM2LjU4MzQ0IDEuMTM3MDIgNy4xNDU5NCAwLjkyODY4OCA3Ljc3MDk0IDAuOTI4Njg4QzguMzk1OTQgMC45Mjg2ODggOC45Mzc2MSAxLjEzNzAyIDkuMzk1OTQgMS41NTM2OUwxNC4zMzM1IDUuODM0OTRaTTguOTg5NjkgMTAuMzAzN0g2LjQ4OTY5VjE1LjI3MjVIOC45ODk2OVYxMC4zMDM3Wk0xMy40MjcyIDcuNzQxMTlDMTMuNDI3MiA3LjQ3MDM2IDEzLjM0MzkgNy4yNTE2MSAxMy4xNzcyIDcuMDg0OTRMOC4yMzk2OSAyLjgwMzY5QzcuODg1NTIgMi41MzI4NiA3LjUyMDk0IDIuNTMyODYgNy4xNDU5NCAyLjgwMzY5TDIuMjA4NDQgNy4wODQ5NEMyLjA0MTc3IDcuMjUxNjEgMS45NTg0NCA3LjQ3MDM2IDEuOTU4NDQgNy43NDExOVYxNC40Mjg3QzEuOTU4NDQgMTQuNjc4NyAyLjAzMTM2IDE0Ljg4NyAyLjE3NzE5IDE1LjA1MzdDMi4zNDM4NiAxNS4xOTk1IDIuNTQxNzcgMTUuMjcyNSAyLjc3MDk0IDE1LjI3MjVINC44MzM0NFYxMC4zMDM3QzQuODMzNDQgOS44NDUzNiA0Ljk4OTY5IDkuNDU5OTQgNS4zMDIxOSA5LjE0NzQ0QzUuNjM1NTIgOC44MTQxMSA2LjAzMTM2IDguNjQ3NDQgNi40ODk2OSA4LjY0NzQ0SDguOTg5NjlDOS40NDgwMiA4LjY0NzQ0IDkuODMzNDkgOC44MTQxMSAxMC4xNDU5IDkuMTQ3NDRDMTAuNDU4NSA5LjQ1OTk0IDEwLjYxNDcgOS44NDUzNiAxMC42MTQ3IDEwLjMwMzdWMTUuMjcyNUgxMi42NzcyQzEyLjkyNzIgMTUuMjcyNSAxMy4xMjUxIDE1LjE5OTUgMTMuMjcwOSAxNS4wNTM3QzEzLjQzNzYgMTQuODg3IDEzLjUyMDkgMTQuNjc4NyAxMy41MjA5IDE0LjQyODdMMTMuNDI3MiA3Ljc0MTE5WiIvPiYjeGE7PGRlZnM+JiN4YTs8bGluZWFyR3JhZGllbnQgZ3JhZGllbnRVbml0cz0idXNlclNwYWNlT25Vc2UiIHkyPSI5Ljg1NDkiIHgyPSIxNS44MTkzIiB5MT0iMi40MzA4NCIgeDE9IjIuMjI0NjQiIGlkPSJwYWludDBfbGluZWFyXzcyNF8xMiI+JiN4YTs8c3RvcCBzdG9wLWNvbG9yPSIjMjM5NUZGIi8+JiN4YTs8c3RvcCBzdG9wLWNvbG9yPSIjMDA1N0QyIiBvZmZzZXQ9IjEiLz4mI3hhOzwvbGluZWFyR3JhZGllbnQ+JiN4YTs8L2RlZnM+JiN4YTs8L3N2Zz4=;strokeWidth=1.5;" parent="vsUOsGuE6CD4la2BPaX0-2" vertex="1">
          <mxGeometry x="14.669999999999845" y="15.529999999999973" width="26.36" height="28" as="geometry" />
        </mxCell>
        <mxCell id="dFPvA1FSlUZvYu8P9tU1-124" value="&lt;br&gt;&lt;span style=&quot;&quot;&gt;&lt;/span&gt;" style="rounded=1;whiteSpace=wrap;html=1;strokeColor=#0070F2;strokeWidth=1.5;arcSize=16;fillColor=#ECF8FF;perimeterSpacing=0;absoluteArcSize=1;" parent="vsUOsGuE6CD4la2BPaX0-2" vertex="1">
          <mxGeometry x="73" y="25.909999999999997" width="152" height="151.39" as="geometry" />
        </mxCell>
        <mxCell id="dFPvA1FSlUZvYu8P9tU1-125" value="SAP Application Interface Framework (for SAP S/4HANA, SAP ECC)" style="rounded=1;whiteSpace=wrap;html=1;strokeColor=#0070F2;fillColor=#FFFFFF;arcSize=24;absoluteArcSize=1;imageWidth=64;imageHeight=64;strokeWidth=1.5;" parent="vsUOsGuE6CD4la2BPaX0-2" vertex="1">
          <mxGeometry x="83" y="90" width="127.36" height="72.3" as="geometry" />
        </mxCell>
        <mxCell id="dFPvA1FSlUZvYu8P9tU1-128" value="Cloud&#xa;Connector" style="shape=image;verticalLabelPosition=bottom;labelBackgroundColor=default;verticalAlign=top;aspect=fixed;imageAspect=0;image=data:image/svg+xml,PHN2ZyB4bWxucz0iaHR0cDovL3d3dy53My5vcmcvMjAwMC9zdmciIGZpbGw9Im5vbmUiIHZpZXdCb3g9IjAgMCAxNiAxNiIgaGVpZ2h0PSIxNiIgd2lkdGg9IjE2Ij4mI3hhOzxjaXJjbGUgc3Ryb2tlLXdpZHRoPSIwLjI4NTcwOCIgc3Ryb2tlPSIjRDVEQUREIiBmaWxsPSJ1cmwoI3BhaW50MF9saW5lYXJfMzg5MF8yMTUzNSkiIHI9IjcuODU2OTYiIGN5PSI3Ljk5NzM4IiBjeD0iNy45OTczOCIvPiYjeGE7PGcgY2xpcC1wYXRoPSJ1cmwoI2NsaXAwXzM4OTBfMjE1MzUpIj4mI3hhOzxwYXRoIHN0cm9rZS13aWR0aD0iMC43NSIgc3Ryb2tlPSIjRjRGNEY0IiBmaWxsPSJ1cmwoI3BhaW50MV9saW5lYXJfMzg5MF8yMTUzNSkiIGQ9Ik03LjYwNDA4IDguODk4NjRMNy43NTczMSA5LjA2NDA2TDcuOTc1MjcgOS4wMDYyOUM4LjEzMzMzIDguOTY0MzkgOC4yNjc1NiA4Ljg3ODU0IDguMzc4MjkgOC43Njc4MUM4LjU0MjcxIDguNjAzMzkgOC42NDQzNyA4LjM5NDE0IDguNjQ0MzcgOC4xNTEwOEM4LjY0NDM3IDguMTA5MzggOC42NDEzOCA4LjA2ODY4IDguNjM1NTkgOC4wMjkwMkM4LjY3NTI1IDguMDM0ODEgOC43MTU5NSA4LjAzNzgxIDguNzU3NjYgOC4wMzc4MUM5LjAwMDcxIDguMDM3ODEgOS4yMDk5NiA3LjkzNjE1IDkuMzc0MzggNy43NzE3MkM5LjUzODgxIDcuNjA3MyA5LjY0MDQ3IDcuMzk4MDUgOS42NDA0NyA3LjE1NDk5QzkuNjQwNDcgNi45MTE5NCA5LjUzODgxIDYuNzAyNjkgOS4zNzQzOCA2LjUzODI3TDkuMzc0NCA2LjUzODI1TDkuMzcxNDUgNi41MzUzN0w4Ljc0NDA0IDUuOTIxNkw4Ljg4NjEgNS43Nzk1NEw4LjY1MDQgNS41NDM4NEw4Ljg4NjEgNS43Nzk1NEM5LjA0ODM3IDUuNjE3MjcgOS4xMzI2NiA1LjQxMDg4IDkuMTMyNjYgNS4xODIzNUM5LjEzMjY2IDQuOTUxNzcgOS4wNTU3IDQuNzM1MjIgOC44ODYxIDQuNTY1NjJMOC40MzY4OCA0LjExNjRDNy45OTcyNiAzLjY3Njc4IDcuNDY4MjggMy40MzI2NCA2Ljg2MjggMy40MDE1OUM2LjM3NjY4IDMuMzc2NjcgNS45MjcwNyAzLjQ4OTYgNS41MjI0NSAzLjczNTI3TDQuNTA1ODcgMi42OTIxM0w0LjUwNTg5IDIuNjkyMTFMNC41MDI0NyAyLjY4ODY5QzQuMzM4MDQgMi41MjQyNyA0LjEyODc5IDIuNDIyNjEgMy44ODU3NCAyLjQyMjYxQzMuNjQ1MDUgMi40MjI2MSAzLjQ0Mzk4IDIuNTMzMjYgMy4yODg1NSAyLjY4ODY5QzMuMTI0MTIgMi44NTMxMiAzLjAyMjQ2IDMuMDYyMzcgMy4wMjI0NiAzLjMwNTQyQzMuMDIyNDYgMy41NDc1NCAzLjEyMzM0IDMuNzU2MTIgMy4yODY2NiAzLjkyMDI1TDQuMzE1MTYgNC45NzU2MkM0LjA4NjggNS4zNzg2NSAzLjk4MzE5IDUuODIxMjMgNC4wMDgxNyA2LjI5NThMNC4wMDgyIDYuMjk2MzNDNC4wMzk3OCA2Ljg4MDU0IDQuMjg3NTEgNy4zOTQ4NyA0LjcyMjk2IDcuODMwMzJMNC43MjI4OSA3LjgzMDM4TDQuNzI4OTEgNy44MzYxNEw1LjEgOC4xOTEwOUw1LjI1NzI4IDguMzQxNTNMNS40NjU5MiA4LjI3OTU5QzUuNjU0MzUgOC4yMjM2NiA1Ljg0OTI2IDguMTk1MTkgNi4wNDg5OCA4LjE5NTE5QzYuNDgxMzMgOC4xOTUxOSA2Ljg4MTkyIDguMzI4NjUgNy4yMzY5NCA4LjU3ODEyQzcuMzcyNTUgOC42NzM0MiA3LjQ5NDc5IDguNzgwNjYgNy42MDQwOCA4Ljg5ODY0WiIvPiYjeGE7PHBhdGggc3Ryb2tlLXdpZHRoPSIwLjc1IiBzdHJva2U9IiNGNEY0RjQiIGZpbGw9InVybCgjcGFpbnQyX2xpbmVhcl8zODkwXzIxNTM1KSIgZD0iTTkuNzYyODkgMTIuMDk4MkMxMC4yNTMgMTIuMTEwOCAxMC43MDMyIDExLjk3OSAxMS4xMDYgMTEuNzEyMkwxMi4yNjEyIDEyLjg2NzRDMTIuNDE2NyAxMy4wMjI5IDEyLjYxNzcgMTMuMTMzNSAxMi44NTg0IDEzLjEzMzVDMTMuMTAxNSAxMy4xMzM1IDEzLjMxMDcgMTMuMDMxOSAxMy40NzUyIDEyLjg2NzRDMTMuNjM5NiAxMi43MDMgMTMuNzQxMiAxMi40OTM4IDEzLjc0MTIgMTIuMjUwN0MxMy43NDEyIDEyLjAxMDUgMTMuNjMxMSAxMS44MDk4IDEzLjQ3NjEgMTEuNjU0NUwxMi4zMTMxIDEwLjQ3NTFDMTIuNTU3IDEwLjA4NjEgMTIuNjcxNCA5LjY1NDcxIDEyLjY0NzIgOS4xODg4QzEyLjYzMDIgOC41OTIxNiAxMi4zOTAxIDguMDY4NDcgMTEuOTUxNyA3LjYzMDFMMTEuNTAyNSA3LjE4MDg4QzExLjMzODEgNy4wMTY0NSAxMS4xMjg4IDYuOTE0NzkgMTAuODg1OCA2LjkxNDc5QzEwLjY0MjcgNi45MTQ3OSAxMC40MzM1IDcuMDE2NDUgMTAuMjY5MSA3LjE4MDg4TDguNDUxMTQgOC45OTg3OUw4LjE0NjM1IDkuMzAzNThMOC40OTAzOSA5LjU2MzI2QzguNjE1OCA5LjY1NzkzIDguNzI5MTYgOS43Njc5MyA4LjgyOTcyIDkuODkyMjlMOC44Mjk2OSA5Ljg5MjMyTDguODMzMiA5Ljg5NjU0QzguOTkxMiAxMC4wODYyIDkuMTExMDYgMTAuMzAxIDkuMTk1MzIgMTAuNTM1QzkuMjg0MDQgMTAuNzgxNSA5LjMyNTQ4IDExLjA0MDIgOS4zMjU0OCAxMS4zMDZDOS4zMjU0OCAxMS40MjU4IDkuMzE2ODQgMTEuNTQzOSA5LjI5OTQzIDExLjY2MDFMOS4yNDEwOSAxMi4wNDk3TDkuNjMzMDMgMTIuMDg4OEM5LjY3MjkgMTIuMDkyOCA5LjcxMjk5IDEyLjA5NTggOS43NTMzIDEyLjA5NzlMOS43NTMyOSAxMi4wOThMOS43NjI4OSAxMi4wOTgyWiIvPiYjeGE7PHBhdGggZmlsbD0idXJsKCNwYWludDNfbGluZWFyXzM4OTBfMjE1MzUpIiBkPSJNNC41MjY0NSAxMi43OTc3SDcuMzU0MTFDNy41NDA1NSAxMi43OTc3IDcuNzE2NjMgMTIuNzU5NyA3Ljg4MjM1IDEyLjY4MzdDOC4wNDgwOCAxMi42MDc4IDguMTg5NjMgMTIuNTA0MiA4LjMwNzAyIDEyLjM3M0M4LjQzMTMxIDEyLjIzNDkgOC41Mjc5OSAxMi4wNzYxIDguNTk3MDQgMTEuODk2NkM4LjY2NjA5IDExLjcxMDEgOC43MDA2MSAxMS41MTMzIDguNzAwNjEgMTEuMzA2MkM4LjcwMDYxIDExLjEwNTkgOC42Njk1NCAxMC45MTk1IDguNjA3NCAxMC43NDY4QzguNTQ1MjUgMTAuNTc0MiA4LjQ1ODkzIDEwLjQyMjMgOC4zNDg0NSAxMC4yOTExQzguMjM3OTcgMTAuMTUzIDguMTA2NzcgMTAuMDQyNSA3Ljk1NDg2IDkuOTU5NjZDNy44MDI5NSA5Ljg3NjggNy42NDA2NyA5LjgyODQ2IDcuNDY4MDUgOS44MTQ2NUM3LjMyOTk0IDkuNTEwODMgNy4xMzMxNSA5LjI2OTE1IDYuODc3NjYgOS4wODk2MUM2LjYyMjE3IDguOTEwMDggNi4zNDU5NiA4LjgyMDMxIDYuMDQ5MDQgOC44MjAzMUM1Ljg1NTY5IDguODIwMzEgNS42NjkyNSA4Ljg1ODI5IDUuNDg5NzIgOC45MzQyNUM1LjMxNzA5IDkuMDEwMiA1LjE2MTczIDkuMTEzNzggNS4wMjM2MiA5LjI0NDk4QzQuODg1NTIgOS4zNzYxOCA0Ljc3MTU5IDkuNTM1IDQuNjgxODIgOS43MjE0M0M0LjU5MjA1IDkuOTAwOTcgNC41Mjk5MSAxMC4wOTQzIDQuNDk1MzggMTAuMzAxNUM0LjM0MzQ3IDEwLjMwMTUgNC4xOTg0NiAxMC4zMzYgNC4wNjAzNiAxMC40MDVDMy45MjkxNiAxMC40NjcyIDMuODE1MjIgMTAuNTU3IDMuNzE4NTUgMTAuNjc0M0MzLjYyMTg4IDEwLjc4NDggMy41NDI0NyAxMC45MTYgMy40ODAzMiAxMS4wNjc5QzMuNDI1MDggMTEuMjE5OSAzLjM5NzQ2IDExLjM3ODcgMy4zOTc0NiAxMS41NDQ0QzMuMzk3NDYgMTEuNzE3IDMuNDI1MDggMTEuODc5MyAzLjQ4MDMyIDEyLjAzMTJDMy41NDI0NyAxMi4xODMxIDMuNjI1MzMgMTIuMzE3OCAzLjcyODkxIDEyLjQzNTJDMy44MzI0OSAxMi41NDU2IDMuOTUzMzMgMTIuNjM1NCA0LjA5MTQzIDEyLjcwNDVDNC4yMjk1MyAxMi43NjY2IDQuMzc0NTQgMTIuNzk3NyA0LjUyNjQ1IDEyLjc5NzdaIi8+JiN4YTs8L2c+JiN4YTs8ZGVmcz4mI3hhOzxsaW5lYXJHcmFkaWVudCBncmFkaWVudFVuaXRzPSJ1c2VyU3BhY2VPblVzZSIgeTI9IjE0Ljc0NTMiIHgyPSIxMy42ODU0IiB5MT0iMi4yNjg0NSIgeDE9IjEuNDQ4NDgiIGlkPSJwYWludDBfbGluZWFyXzM4OTBfMjE1MzUiPiYjeGE7PHN0b3Agc3RvcC1jb2xvcj0id2hpdGUiLz4mI3hhOzxzdG9wIHN0b3AtY29sb3I9IiNFQUVDRUUiIG9mZnNldD0iMSIvPiYjeGE7PC9saW5lYXJHcmFkaWVudD4mI3hhOzxsaW5lYXJHcmFkaWVudCBncmFkaWVudFVuaXRzPSJ1c2VyU3BhY2VPblVzZSIgeTI9IjcuNzgyMDIiIHgyPSI4LjM3MDU1IiB5MT0iMy42NzE4NyIgeDE9IjQuMjc3MSIgaWQ9InBhaW50MV9saW5lYXJfMzg5MF8yMTUzNSI+JiN4YTs8c3RvcCBzdG9wLWNvbG9yPSIjMDE5NUZGIi8+JiN4YTs8c3RvcCBzdG9wLWNvbG9yPSIjMTE0N0U5IiBvZmZzZXQ9IjAuOTkxMDI4Ii8+JiN4YTs8L2xpbmVhckdyYWRpZW50PiYjeGE7PGxpbmVhckdyYWRpZW50IGdyYWRpZW50VW5pdHM9InVzZXJTcGFjZU9uVXNlIiB5Mj0iMTEuMzIyNCIgeDI9IjEzLjE5MjkiIHkxPSI4LjEwNzYxIiB4MT0iOS40MTMzNSIgaWQ9InBhaW50Ml9saW5lYXJfMzg5MF8yMTUzNSI+JiN4YTs8c3RvcCBzdG9wLWNvbG9yPSIjMDE5NUZGIi8+JiN4YTs8c3RvcCBzdG9wLWNvbG9yPSIjMTE0N0U5IiBvZmZzZXQ9IjAuOTkxMDI4Ii8+JiN4YTs8L2xpbmVhckdyYWRpZW50PiYjeGE7PGxpbmVhckdyYWRpZW50IGdyYWRpZW50VW5pdHM9InVzZXJTcGFjZU9uVXNlIiB5Mj0iMTIuOTc5NCIgeDI9IjYuODUwNDgiIHkxPSI5LjQwNTQ3IiB4MT0iNC4xODE1IiBpZD0icGFpbnQzX2xpbmVhcl8zODkwXzIxNTM1Ij4mI3hhOzxzdG9wIHN0b3AtY29sb3I9IiMxMzQ4RkYiLz4mI3hhOzxzdG9wIHN0b3AtY29sb3I9IiMwNjIzOEQiIG9mZnNldD0iMSIvPiYjeGE7PC9saW5lYXJHcmFkaWVudD4mI3hhOzxjbGlwUGF0aCBpZD0iY2xpcDBfMzg5MF8yMTUzNSI+JiN4YTs8cmVjdCB0cmFuc2Zvcm09InRyYW5zbGF0ZSgzLjM5NzQ2IDIuNzk3NjEpIiBmaWxsPSJ3aGl0ZSIgaGVpZ2h0PSIxMCIgd2lkdGg9IjEwIi8+JiN4YTs8L2NsaXBQYXRoPiYjeGE7PC9kZWZzPiYjeGE7PC9zdmc+;points=[[0,0,0,0,0],[0,0.25,0,0,0],[0,0.5,0,0,0],[0,0.75,0,0,0],[0.25,0,0,0,0],[0.5,0,0,0,0],[0.75,0,0,0,0],[1,0,0,0,0],[1,0.25,0,0,0],[1,0.5,0,0,0],[1,0.75,0,0,0]];container=0;" parent="vsUOsGuE6CD4la2BPaX0-2" vertex="1">
          <mxGeometry x="15.89999999999992" y="84.17499999999995" width="34.13" height="34.13" as="geometry" />
        </mxCell>
        <mxCell id="dFPvA1FSlUZvYu8P9tU1-130" value="&lt;p style=&quot;line-height: 110%;&quot;&gt;&lt;font style=&quot;font-size: 16px;&quot; face=&quot;arial&quot;&gt;&lt;b style=&quot;font-size: 16px;&quot;&gt;On-Premise&lt;br&gt;Solutions&lt;/b&gt;&lt;/font&gt;&lt;/p&gt;" style="text;html=1;align=left;verticalAlign=middle;resizable=0;points=[];autosize=1;strokeColor=none;fillColor=none;fontSize=12;fontColor=#1d2d3e;fontFamily=Helvetica;" parent="vsUOsGuE6CD4la2BPaX0-2" vertex="1">
          <mxGeometry x="89.34894039735082" y="13.170000000000073" width="110" height="70" as="geometry" />
        </mxCell>
        <mxCell id="dFPvA1FSlUZvYu8P9tU1-192" value="" style="endArrow=blockThin;html=1;strokeColor=#475e75;bendable=1;rounded=0;endFill=1;endSize=4;strokeWidth=1.5;startSize=4;startArrow=none;startFill=0;exitX=1;exitY=0.5;exitDx=0;exitDy=0;exitPerimeter=0;entryX=0;entryY=0.5;entryDx=0;entryDy=0;" parent="vsUOsGuE6CD4la2BPaX0-2" source="dFPvA1FSlUZvYu8P9tU1-128" target="dFPvA1FSlUZvYu8P9tU1-124" edge="1">
          <mxGeometry width="50" height="50" relative="1" as="geometry">
            <mxPoint x="-145.6099999999999" y="117" as="sourcePoint" />
            <mxPoint x="85.71000000000004" y="108.60499999999979" as="targetPoint" />
          </mxGeometry>
        </mxCell>
        <mxCell id="zcfOwq0cMA0aAQK2KSSR-24" value="&lt;p style=&quot;line-height: 100%; font-size: 16px;&quot;&gt;&lt;font color=&quot;#ffffff&quot; face=&quot;arial black&quot; style=&quot;font-size: 16px;&quot;&gt;&lt;b style=&quot;font-size: 16px;&quot;&gt;8&lt;/b&gt;&lt;/font&gt;&lt;/p&gt;" style="ellipse;whiteSpace=wrap;html=1;aspect=fixed;rotation=0;gradientColor=#0057D2;strokeColor=none;gradientDirection=east;fillColor=#2395FF;rounded=0;pointerEvents=0;fontFamily=Helvetica;fontSize=16;fontColor=default;spacingTop=4;spacingBottom=4;spacingLeft=4;spacingRight=4;verticalAlign=middle;container=0;" parent="vsUOsGuE6CD4la2BPaX0-2" vertex="1">
          <mxGeometry x="191.36000000000013" y="34.16999999999996" width="27.56" height="27.558999999999997" as="geometry" />
        </mxCell>
        <mxCell id="bFVPSskZjtyiZDLN3V_n-105" value="" style="group" parent="bFVPSskZjtyiZDLN3V_n-101" vertex="1" connectable="0">
          <mxGeometry x="323" y="123" width="372" height="94.46" as="geometry" />
        </mxCell>
        <mxCell id="bFVPSskZjtyiZDLN3V_n-69" value="&lt;font face=&quot;Arial&quot;&gt;&lt;b&gt;Legend&lt;/b&gt;&lt;/font&gt;" style="rounded=0;whiteSpace=wrap;html=1;strokeColor=#eaecee;strokeWidth=1.5;arcSize=16;fillColor=#FFFFFF;perimeterSpacing=0;imageHeight=24;absoluteArcSize=1;points=[];connectable=0;container=0;align=left;verticalAlign=top;spacingLeft=4;" parent="bFVPSskZjtyiZDLN3V_n-105" vertex="1">
          <mxGeometry width="364.9114019159727" height="89.99591682419658" as="geometry" />
        </mxCell>
        <mxCell id="bFVPSskZjtyiZDLN3V_n-96" value="" style="group" parent="bFVPSskZjtyiZDLN3V_n-105" vertex="1" connectable="0">
          <mxGeometry x="5.434850666833636" y="23.216089527410173" width="366.56514933316635" height="51.42195266540645" as="geometry" />
        </mxCell>
        <mxCell id="bFVPSskZjtyiZDLN3V_n-95" value="" style="group" parent="bFVPSskZjtyiZDLN3V_n-96" vertex="1" connectable="0">
          <mxGeometry y="23.708924310018933" width="278.34199486569406" height="25.713119092627593" as="geometry" />
        </mxCell>
        <mxCell id="bFVPSskZjtyiZDLN3V_n-73" value="" style="ellipse;whiteSpace=wrap;html=1;aspect=fixed;strokeColor=none;fillColor=#475E75;" parent="bFVPSskZjtyiZDLN3V_n-95" vertex="1">
          <mxGeometry y="2.5713119092627594" width="12.422515809905454" height="12.422515809905454" as="geometry" />
        </mxCell>
        <mxCell id="bFVPSskZjtyiZDLN3V_n-74" value="&lt;div style=&quot;font-size: 10px; line-height: 100%;&quot;&gt;&lt;span style=&quot;font-family: arial; font-size: 10px; background-color: initial;&quot;&gt;&lt;font style=&quot;font-size: 10px;&quot;&gt;SAP Integration Suite based integration scenarios (runtime perspective)&lt;/font&gt;&lt;/span&gt;&lt;/div&gt;" style="text;html=1;align=left;verticalAlign=middle;resizable=0;points=[];autosize=1;strokeColor=none;fillColor=none;fontSize=10;fontColor=#1D2D3E;fontFamily=Helvetica;labelPosition=center;verticalLabelPosition=middle;" parent="bFVPSskZjtyiZDLN3V_n-95" vertex="1">
          <mxGeometry x="14.36353390520318" width="340" height="20" as="geometry" />
        </mxCell>
        <mxCell id="bFVPSskZjtyiZDLN3V_n-102" value="" style="group" parent="bFVPSskZjtyiZDLN3V_n-96" vertex="1" connectable="0">
          <mxGeometry width="366.56514933316635" height="49.57346510396988" as="geometry" />
        </mxCell>
        <mxCell id="bFVPSskZjtyiZDLN3V_n-89" value="" style="ellipse;whiteSpace=wrap;html=1;aspect=fixed;strokeColor=none;fillColor=#CC00DC;" parent="bFVPSskZjtyiZDLN3V_n-102" vertex="1">
          <mxGeometry y="2.5713119092627594" width="12.422515809905454" height="12.422515809905454" as="geometry" />
        </mxCell>
        <mxCell id="bFVPSskZjtyiZDLN3V_n-90" value="&lt;div style=&quot;font-size: 10px; line-height: 100%;&quot;&gt;&lt;font face=&quot;arial&quot;&gt;SAP Integration Suite based integration scenarios (design-time perspective)&lt;/font&gt;&lt;/div&gt;" style="text;html=1;align=left;verticalAlign=middle;resizable=0;points=[];autosize=1;strokeColor=none;fillColor=none;fontSize=10;fontColor=#1D2D3E;fontFamily=Helvetica;labelPosition=center;verticalLabelPosition=middle;" parent="bFVPSskZjtyiZDLN3V_n-102" vertex="1">
          <mxGeometry x="14.36353390520318" width="360" height="20" as="geometry" />
        </mxCell>
        <mxCell id="bFVPSskZjtyiZDLN3V_n-103" value="" style="group" parent="bFVPSskZjtyiZDLN3V_n-105" vertex="1" connectable="0">
          <mxGeometry x="110.28683238369545" y="69.38685187145555" width="93.1688685742909" height="19.99909262759924" as="geometry" />
        </mxCell>
        <mxCell id="bFVPSskZjtyiZDLN3V_n-81" value="" style="shape=image;verticalLabelPosition=bottom;verticalAlign=top;imageAspect=0;aspect=fixed;image=data:image/svg+xml,PHN2ZyB4bWxucz0iaHR0cDovL3d3dy53My5vcmcvMjAwMC9zdmciIGZpbGw9Im5vbmUiIHZpZXdCb3g9IjAgMCA0OSA0OSIgaGVpZ2h0PSI0OSIgd2lkdGg9IjQ5Ij4mI3hhOzxjaXJjbGUgc3Ryb2tlLXdpZHRoPSIwLjg1NzE0MyIgc3Ryb2tlPSIjRDVEQUREIiBmaWxsPSJ1cmwoI3BhaW50MF9saW5lYXJfMjYyMl8yMDQ3NSkiIHI9IjIzLjU3MTQiIGN5PSIyNC4wMzQ5IiBjeD0iMjQuNSIvPiYjeGE7PHBhdGggZmlsbD0idXJsKCNwYWludDFfcmFkaWFsXzI2MjJfMjA0NzUpIiBkPSJNMjQuMzkzMSAxMi4yMzcxQzIwLjExMDcgMTIuMjM3MSAxNy4wNjgxIDE1LjcyMzEgMTYuNTYxMSAxOS4zNjI1QzE1LjE4MzYgMTkuNDQ0NCAxMy45NjcyIDE5Ljk2MjEgMTMuMDIyNSAyMC44MzE3QzExLjc0NDUgMjIuMDA4MSAxMS4wODQ0IDIzLjcxNTYgMTEuMDg0NCAyNS41MTYzQzExLjA4NDQgMjcuMTg5NyAxMS41OTIgMjguNzcxNSAxMi43MzE2IDI5Ljk0MDlDMTMuNTg2MSAzMC44MTc4IDE0LjcwNzcgMzEuMzcyNCAxNi4wMTcgMzEuNTk4NEMxNi4xMzc2IDMxLjM1MzUgMTYuMjczNSAzMS4xMTY4IDE2LjQyNTIgMzAuODg5MkwxNi40NDEgMzAuODY1NUwxNi40NTQ4IDMwLjg0NjFDMTYuNzA2OSAzMC40OTAxIDE2Ljk5NDggMzAuMTY2IDE3LjMxNjkgMjkuODc2MUMxNy4xODMxIDI5LjQzMTcgMTcuMTE4IDI4Ljk2NDUgMTcuMTE4IDI4LjQ4MzVDMTcuMTE4IDI3Ljg1NDkgMTcuMjM4NiAyNy4yNDEzIDE3LjQ4NDkgMjYuNjU5MkMxNy43MiAyNi4xMDMzIDE4LjA1MTMgMjUuNjAwMSAxOC40ODI0IDI1LjE2OTFDMTguOTE4IDI0LjczMzQgMTkuNDI1IDI0LjM5MTYgMTkuOTkyNiAyNC4xNTE1QzIwLjU3NDcgMjMuOTA1MiAyMS4xODgyIDIzLjc4NDYgMjEuODE2OCAyMy43ODQ2QzIyLjA3NTkgMjMuNzg0NiAyMi4zMzI0IDIzLjgwNTEgMjIuNTg1MyAyMy44NDY0QzIyLjkwNjUgMjMuNjE3OSAyMy4yNTIyIDIzLjQyNTEgMjMuNjIwNCAyMy4yNjkzQzI0LjI4NTEgMjIuOTg4MSAyNC45ODYzIDIyLjg0OTcgMjUuNzA4OSAyMi44NDk3QzI2LjQzMTYgMjIuODQ5NyAyNy4xMzI3IDIyLjk4ODEgMjcuNzk3NSAyMy4yNjkzQzI4LjQ0MzYgMjMuNTQyNyAyOS4wMTc2IDIzLjkzMjYgMjkuNTA0MyAyNC40MzY1QzMwLjAwODIgMjQuOTIzMiAzMC4zOTgxIDI1LjQ5NzIgMzAuNjcxNSAyNi4xNDMzQzMwLjk1MjcgMjYuODA4MSAzMS4wOTExIDI3LjUwOTMgMzEuMDkxMSAyOC4yMzE5QzMxLjA5MTEgMjguOTI1MiAzMC45NjM3IDI5LjU5ODggMzAuNzA1IDMwLjIzOTVDMzEuMTk2OSAzMC42Mjg4IDMxLjYzNDYgMzEuMDg3NyAzMi4wMTUyIDMxLjYxMjdDMzUuMjc5MiAzMS4wNDI2IDM3Ljk5OTkgMjguMzY4IDM3Ljk5OTkgMjQuMzU5MUMzNy45OTk5IDIwLjM3NTEgMzUuMTUyNiAxNy4zMTM1IDMxLjcyNDcgMTYuOTg5N0MzMC4zNTA3IDE0LjE0ODMgMjcuOCAxMi4yMzcxIDI0LjM5MzEgMTIuMjM3MVoiIGNsaXAtcnVsZT0iZXZlbm9kZCIgZmlsbC1ydWxlPSJldmVub2RkIi8+JiN4YTs8cGF0aCBmaWxsPSJ1cmwoI3BhaW50Ml9yYWRpYWxfMjYyMl8yMDQ3NSkiIGQ9Ik0yOC4zMzY4IDMwLjgwNzhDMjkuMzA4MiAzMS4xODk0IDMwLjA5NzQgMzEuODEzOCAzMC43MDQ1IDMyLjY4MTFDMzEuMzExNiAzMy41NDg0IDMxLjYxNTIgMzQuNTI4NSAzMS42MTUyIDM1LjYyMTNWMzcuMTA0NEMzMS42MTUyIDM3LjMxMjUgMzEuNTM3MSAzNy40ODYgMzEuMzgxIDM3LjYyNDdDMzEuMjQyMiAzNy43NjM1IDMxLjA3NzQgMzcuODMyOSAzMC44ODY2IDM3LjgzMjlIMjkuNDAzNkMyOS4xOTU0IDM3LjgzMjkgMjkuMDEzMyAzNy43NjM1IDI4Ljg1NzIgMzcuNjI0N0MyOC43MTg0IDM3LjQ4NiAyOC42NDkgMzcuMzEyNSAyOC42NDkgMzcuMTA0NEMyOC42NDkgMzYuODk2MiAyOC43MTg0IDM2LjcyMjcgMjguODU3MiAzNi41ODRDMjkuMDEzMyAzNi40Mjc5IDI5LjE5NTQgMzYuMzQ5OCAyOS40MDM2IDM2LjM0OThIMzAuMTMyMVYzNS42MjEzQzMwLjEzMjEgMzUuMTE4MiAzMC4wMzY3IDM0LjY0MTIgMjkuODQ1OSAzNC4xOTAyQzI5LjY1NTEgMzMuNzM5MiAyOS4zODYyIDMzLjM0OSAyOS4wMzkzIDMzLjAxOTRDMjguNzA5NyAzMi42NzI1IDI4LjMxOTUgMzIuNDAzNiAyNy44Njg1IDMyLjIxMjhDMjcuNDM0OCAzMi4wMjIgMjYuOTU3OCAzMS45MjY2IDI2LjQzNzUgMzEuOTI2NkgyNC45ODA0QzI0LjQ2IDMxLjkyNjYgMjMuOTc0NCAzMi4wMjIgMjMuNTIzNCAzMi4yMTI4QzIzLjA4OTcgMzIuNDAzNiAyMi42OTk0IDMyLjY3MjUgMjIuMzUyNSAzMy4wMTk0QzIyLjAyMyAzMy4zNDkgMjEuNzYyOCAzMy43MzkyIDIxLjU3MiAzNC4xOTAyQzIxLjM4MTIgMzQuNjQxMiAyMS4yODU4IDM1LjExODIgMjEuMjg1OCAzNS42MjEzVjM2LjM0OThIMjIuMDE0M0MyMi4yMjI0IDM2LjM0OTggMjIuMzk1OSAzNi40Mjc5IDIyLjUzNDcgMzYuNTg0QzIyLjY3MzQgMzYuNzIyNyAyMi43NDI4IDM2Ljg5NjIgMjIuNzQyOCAzNy4xMDQ0QzIyLjc0MjggMzcuMzEyNSAyMi42NzM0IDM3LjQ4NiAyMi41MzQ3IDM3LjYyNDdDMjIuMzk1OSAzNy43NjM1IDIyLjIyMjQgMzcuODMyOSAyMi4wMTQzIDM3LjgzMjlIMjAuNTMxMkMyMC4zNDA0IDM3LjgzMjkgMjAuMTY3IDM3Ljc2MzUgMjAuMDEwOSAzNy42MjQ3QzE5Ljg3MjEgMzcuNDg2IDE5LjgwMjcgMzcuMzEyNSAxOS44MDI3IDM3LjEwNDRMMTkuODAyNyAzNi4wNTAySDE3LjgyMzRDMTcuNjMyOCAzNi4wNTAyIDE3LjQ2MTYgMzUuOTc5NSAxNy4zMTQ2IDM1Ljg0ODhMMTcuMzA3NSAzNS44NDI1QzE3LjE2ODEgMzUuNzAzMSAxNy4wOTk4IDM1LjUyNzEgMTcuMDk5OCAzNS4zMjY1VjM0LjE4MjdDMTcuMDk5OCAzMy43MzkyIDE3LjE2MjEgMzMuMzIxIDE3LjI4ODEgMzIuOTI5MUwxNy4yODkyIDMyLjkyNTlDMTcuNDI3MiAzMi41MjU2IDE3LjYwNzEgMzIuMTU4NiAxNy44MjkzIDMxLjgyNTNMMTcuODMxOCAzMS44MjE1QzE4LjA2NzggMzEuNDg4MyAxOC4zNDU4IDMxLjE5NjQgMTguNjY1MiAzMC45NDYxQzE4LjkyNDIgMzAuNzMyNCAxOS4yMDU5IDMwLjU1NSAxOS41MTAxIDMwLjQxNEMxOS4wMzk4IDI5Ljg4ODUgMTguODA1NSAyOS4yNDE5IDE4LjgwNTUgMjguNDgzNUMxOC44MDU1IDI4LjA3NDUgMTguODgzMiAyNy42ODUxIDE5LjAzOSAyNy4zMTY3QzE5LjE5MzkgMjYuOTUwNyAxOS40MDYgMjYuNjMyIDE5LjY3NTYgMjYuMzYyM0MxOS45NTc5IDI2LjA4MDEgMjAuMjgzIDI1Ljg2MDkgMjAuNjUwMSAyNS43MDU2QzIxLjAxODQgMjUuNTQ5OCAyMS40MDc4IDI1LjQ3MjEgMjEuODE2OCAyNS40NzIxQzIyLjIyNTkgMjUuNDcyMSAyMi42MTUyIDI1LjU0OTggMjIuOTgzNiAyNS43MDU2TDIzLjAwMDggMjUuNzEzQzIzLjAyNzEgMjUuNjg0OSAyMy4wNTM4IDI1LjY1NzMgMjMuMDgxIDI1LjYzQzIzLjQyOCAyNS4yODMxIDIzLjgyNjkgMjUuMDE0MiAyNC4yNzc5IDI0LjgyMzRDMjQuNzI4OSAyNC42MzI2IDI1LjIwNTkgMjQuNTM3MiAyNS43MDg5IDI0LjUzNzJDMjYuMjEyIDI0LjUzNzIgMjYuNjg5IDI0LjYzMjYgMjcuMTQgMjQuODIzNEMyNy41OTA5IDI1LjAxNDIgMjcuOTgxMiAyNS4yODMxIDI4LjMxMDggMjUuNjNDMjguNjU3NyAyNS45NTk2IDI4LjkyNjYgMjYuMzQ5OSAyOS4xMTc0IDI2LjgwMDlDMjkuMzA4MiAyNy4yNTE5IDI5LjQwMzYgMjcuNzI4OSAyOS40MDM2IDI4LjIzMTlDMjkuNDAzNiAyOC43MzQ5IDI5LjMwODIgMjkuMjEyIDI5LjExNzQgMjkuNjYzQzI4LjkyNjYgMzAuMDk2NiAyOC42NjY0IDMwLjQ3ODIgMjguMzM2OCAzMC44MDc4Wk0yMC4wMzY5IDM0LjA2MDFDMTkuOTgyMiAzNC4yMzAxIDE5LjkzNzIgMzQuNDA0MyAxOS45MDE3IDM0LjU4MjdIMTguNTY3MlYzNC4xODI3QzE4LjU2NzIgMzMuODE1NyAxOC42MzY3IDMzLjQ2OTMgMTguNzc1MiAzMy4xNDJDMTguOTE0NiAzMi44MTI0IDE5LjEwMzkgMzIuNTI5IDE5LjM0MjYgMzIuMjkwM0MxOS41OTYyIDMyLjAzNjcgMTkuODgwMyAzMS44NDEyIDIwLjE5NTMgMzEuNzAyNEMyMC41MjE2IDMxLjU2NDUgMjAuODc0MyAzMS40OTQ5IDIxLjI1NDkgMzEuNDk0OUgyMS44NzA4QzIxLjgzMTUgMzEuNTI1NCAyMS43OTI2IDMxLjU1NjYgMjEuNzU0MSAzMS41ODg0QzIxLjM1NTEgMzEuOTAwNiAyMS4wMDgyIDMyLjI2NDggMjAuNzEzNCAzMi42ODExQzIwLjQzNTggMzMuMDk3NCAyMC4yMTAzIDMzLjU1NzEgMjAuMDM2OSAzNC4wNjAxWk0yNS43MDg5IDI2LjAyMDNDMjUuMTAxOCAyNi4wMjAzIDI0LjU4MTUgMjYuMjM3MSAyNC4xNDc4IDI2LjY3MDhDMjMuNzE0MiAyNy4xMDQ0IDIzLjQ5NzMgMjcuNjI0OCAyMy40OTczIDI4LjIzMTlDMjMuNDk3MyAyOC44MzkgMjMuNzE0MiAyOS4zNTk0IDI0LjE0NzggMjkuNzkzQzI0LjU4MTUgMzAuMjI2NyAyNS4xMDE4IDMwLjQ0MzUgMjUuNzA4OSAzMC40NDM1QzI2LjMxNiAzMC40NDM1IDI2LjgzNjQgMzAuMjI2NyAyNy4yNyAyOS43OTNDMjcuNzAzNyAyOS4zNTk0IDI3LjkyMDUgMjguODM5IDI3LjkyMDUgMjguMjMxOUMyNy45MjA1IDI3LjYyNDggMjcuNzAzNyAyNy4xMDQ0IDI3LjI3IDI2LjY3MDhDMjYuODM2NCAyNi4yMzcxIDI2LjMxNiAyNi4wMjAzIDI1LjcwODkgMjYuMDIwM1pNMjIuMDE0MyAyOC4yMzE5QzIyLjAxNDMgMjguODU5NiAyMi4xNDM2IDI5LjQyMTEgMjIuNDAyMyAyOS45MTYzQzIyLjIyMjMgMjkuOTkwNiAyMi4wMjc1IDMwLjAyNzQgMjEuODE2OCAzMC4wMjc0QzIxLjM5MiAzMC4wMjc0IDIxLjAzMTcgMjkuODc3NiAyMC43MjcyIDI5LjU3MzFDMjAuNDIyOCAyOS4yNjg3IDIwLjI3MjkgMjguOTA4MyAyMC4yNzI5IDI4LjQ4MzVDMjAuMjcyOSAyOC4wNTg3IDIwLjQyMjggMjcuNjk4MyAyMC43MjcyIDI3LjM5MzlDMjEuMDMxNyAyNy4wODk0IDIxLjM5MiAyNi45Mzk2IDIxLjgxNjggMjYuOTM5NkMyMS45NjA1IDI2LjkzOTYgMjIuMDk2OSAyNi45NTY3IDIyLjIyNjIgMjYuOTkxMkMyMi4wODQ5IDI3LjM4NTUgMjIuMDE0MyAyNy43OTkxIDIyLjAxNDMgMjguMjMxOVoiIGNsaXAtcnVsZT0iZXZlbm9kZCIgZmlsbC1ydWxlPSJldmVub2RkIi8+JiN4YTs8ZGVmcz4mI3hhOzxsaW5lYXJHcmFkaWVudCBncmFkaWVudFVuaXRzPSJ1c2VyU3BhY2VPblVzZSIgeTI9IjQ0LjI3OTIiIHgyPSI0MS41NjQ1IiB5MT0iNi44NDc3NSIgeDE9IjQuODUyODciIGlkPSJwYWludDBfbGluZWFyXzI2MjJfMjA0NzUiPiYjeGE7PHN0b3Agc3RvcC1jb2xvcj0id2hpdGUiLz4mI3hhOzxzdG9wIHN0b3AtY29sb3I9IiNFQUVDRUUiIG9mZnNldD0iMSIvPiYjeGE7PC9saW5lYXJHcmFkaWVudD4mI3hhOzxyYWRpYWxHcmFkaWVudCBncmFkaWVudFRyYW5zZm9ybT0idHJhbnNsYXRlKDE1LjI1ODMgMTUuOTk1NCkgcm90YXRlKDQzLjg3NzkpIHNjYWxlKDI1Ljg1MjQgNDguODExNykiIGdyYWRpZW50VW5pdHM9InVzZXJTcGFjZU9uVXNlIiByPSIxIiBjeT0iMCIgY3g9IjAiIGlkPSJwYWludDFfcmFkaWFsXzI2MjJfMjA0NzUiPiYjeGE7PHN0b3Agc3RvcC1jb2xvcj0iIzAxOTVGRiIvPiYjeGE7PHN0b3Agc3RvcC1jb2xvcj0iIzExNDdFOSIgb2Zmc2V0PSIxIi8+JiN4YTs8L3JhZGlhbEdyYWRpZW50PiYjeGE7PHJhZGlhbEdyYWRpZW50IGdyYWRpZW50VHJhbnNmb3JtPSJ0cmFuc2xhdGUoMTUuMjUyMiAxNi4wODc2KSByb3RhdGUoNDMuNTYwMikgc2NhbGUoMjUuODcyNyAyMy41NDcxKSIgZ3JhZGllbnRVbml0cz0idXNlclNwYWNlT25Vc2UiIHI9IjEiIGN5PSIwIiBjeD0iMCIgaWQ9InBhaW50Ml9yYWRpYWxfMjYyMl8yMDQ3NSI+JiN4YTs8c3RvcCBzdG9wLWNvbG9yPSIjMTM0OEZGIi8+JiN4YTs8c3RvcCBzdG9wLWNvbG9yPSIjMDYyMzhEIiBvZmZzZXQ9IjEiLz4mI3hhOzwvcmFkaWFsR3JhZGllbnQ+JiN4YTs8L2RlZnM+JiN4YTs8L3N2Zz4=;points=[[0,0,0,0,0],[0,0.25,0,0,0],[0,0.5,0,0,0],[0,0.75,0,0,0],[0.25,0,0,0,0],[0.5,0,0,0,0],[0.75,0,0,0,0],[1,0,0,0,0],[1,0.25,0,0,0],[1,0.5,0,0,0],[1,0.75,0,0,0]];" parent="bFVPSskZjtyiZDLN3V_n-103" vertex="1">
          <mxGeometry x="-6.211257904952727" y="1.999909262759924" width="12.422515809905454" height="12.422515809905454" as="geometry" />
        </mxCell>
        <mxCell id="bFVPSskZjtyiZDLN3V_n-82" value="&lt;div style=&quot;font-size: 10px; line-height: 100%;&quot;&gt;&lt;span style=&quot;font-family: arial; font-size: 10px; background-color: initial;&quot;&gt;&lt;font style=&quot;font-size: 10px;&quot;&gt;SAP BTP Service&lt;/font&gt;&lt;/span&gt;&lt;/div&gt;" style="text;html=1;align=left;verticalAlign=middle;resizable=0;points=[];autosize=1;strokeColor=none;fillColor=none;fontSize=10;fontColor=#1D2D3E;fontFamily=Helvetica;labelPosition=center;verticalLabelPosition=middle;" parent="bFVPSskZjtyiZDLN3V_n-103" vertex="1">
          <mxGeometry x="9.31688685742909" width="100" height="20" as="geometry" />
        </mxCell>
        <mxCell id="dFPvA1FSlUZvYu8P9tU1-215" value="" style="group" parent="bFVPSskZjtyiZDLN3V_n-105" vertex="1" connectable="0">
          <mxGeometry x="5.434850666833636" y="67.88691992438561" width="78.71216580051352" height="22.998956521739125" as="geometry" />
        </mxCell>
        <mxCell id="bFVPSskZjtyiZDLN3V_n-91" value="" style="ellipse;whiteSpace=wrap;html=1;aspect=fixed;strokeColor=none;fillColor=#188918;" parent="dFPvA1FSlUZvYu8P9tU1-215" vertex="1">
          <mxGeometry y="3.499841209829867" width="12.422515809905454" height="12.422515809905454" as="geometry" />
        </mxCell>
        <mxCell id="bFVPSskZjtyiZDLN3V_n-92" value="&lt;div style=&quot;font-size: 10px; line-height: 100%;&quot;&gt;&lt;span style=&quot;font-family: arial; font-size: 10px; background-color: initial;&quot;&gt;&lt;font style=&quot;font-size: 10px;&quot;&gt;Authentication&lt;/font&gt;&lt;/span&gt;&lt;/div&gt;" style="text;html=1;align=left;verticalAlign=middle;resizable=0;points=[];autosize=1;strokeColor=none;fillColor=none;fontSize=10;fontColor=#1D2D3E;fontFamily=Helvetica;labelPosition=center;verticalLabelPosition=middle;" parent="dFPvA1FSlUZvYu8P9tU1-215" vertex="1">
          <mxGeometry x="15.823179512867156" width="81" height="23" as="geometry" />
        </mxCell>
        <mxCell id="dFPvA1FSlUZvYu8P9tU1-202" value="&lt;b&gt;&lt;font style=&quot;font-size: 16px;&quot; face=&quot;Arial&quot;&gt;SAP Cloud&lt;br&gt;Identiy&lt;br&gt;Services&lt;/font&gt;&lt;/b&gt;" style="rounded=1;whiteSpace=wrap;html=1;strokeColor=#0070F2;strokeWidth=1.5;arcSize=16;fillColor=#FFFFFF;perimeterSpacing=0;absoluteArcSize=1;align=left;spacingLeft=5;verticalAlign=top;container=0;" parent="bFVPSskZjtyiZDLN3V_n-101" vertex="1">
          <mxGeometry x="-300.61" y="-12" width="185.61" height="91.16" as="geometry" />
        </mxCell>
        <mxCell id="zcfOwq0cMA0aAQK2KSSR-11" value="&lt;p style=&quot;line-height: 100%; font-size: 16px;&quot;&gt;&lt;font style=&quot;font-size: 16px;&quot; color=&quot;#ffffff&quot; face=&quot;arial black&quot;&gt;&lt;b style=&quot;font-size: 16px;&quot;&gt;2&lt;/b&gt;&lt;/font&gt;&lt;/p&gt;" style="ellipse;whiteSpace=wrap;html=1;aspect=fixed;rotation=0;gradientColor=#0057D2;strokeColor=none;gradientDirection=east;fillColor=#2395FF;rounded=0;pointerEvents=0;fontFamily=Helvetica;fontSize=16;fontColor=default;spacingTop=4;spacingBottom=4;spacingLeft=4;spacingRight=4;verticalAlign=middle;container=0;" parent="bFVPSskZjtyiZDLN3V_n-101" vertex="1">
          <mxGeometry x="-147" y="-8" width="27.56" height="27.558999999999997" as="geometry" />
        </mxCell>
        <mxCell id="bFVPSskZjtyiZDLN3V_n-107" value="" style="group" parent="1" vertex="1" connectable="0">
          <mxGeometry x="-2055" y="-1598.9399999999998" width="67.25" height="18.55" as="geometry" />
        </mxCell>
        <mxCell id="8l6RRYxQaxA69R045GtP-11" value="" style="shape=image;verticalLabelPosition=bottom;labelBackgroundColor=default;verticalAlign=top;aspect=fixed;imageAspect=0;image=data:image/svg+xml,PHN2ZyB4bWxuczp4bGluaz0iaHR0cDovL3d3dy53My5vcmcvMTk5OS94bGluayIgeG1sbnM9Imh0dHA6Ly93d3cudzMub3JnLzIwMDAvc3ZnIiB2aWV3Qm94PSIwIDAgMTQ0Ljc0NyAzOS44MzIiIGlkPSJhIj48ZGVmcz48bGluZWFyR3JhZGllbnQgZ3JhZGllbnRVbml0cz0idXNlclNwYWNlT25Vc2UiIHkyPSIzOS44MzIiIHgyPSI0MC4yNTgiIHkxPSIwIiB4MT0iNDAuMjU4IiBpZD0iYiI+PHN0b3Agc3RvcC1jb2xvcj0iIzAwYjhmMSIgb2Zmc2V0PSIwIi8+PHN0b3Agc3RvcC1jb2xvcj0iIzAwYjVlZiIgb2Zmc2V0PSIuMDE2Ii8+PHN0b3Agc3RvcC1jb2xvcj0iIzBkOTBkOCIgb2Zmc2V0PSIuMzA4Ii8+PHN0b3Agc3RvcC1jb2xvcj0iIzE2NzVjOCIgb2Zmc2V0PSIuNTc4Ii8+PHN0b3Agc3RvcC1jb2xvcj0iIzFjNjRiZSIgb2Zmc2V0PSIuODE3Ii8+PHN0b3Agc3RvcC1jb2xvcj0iIzFlNWZiYiIgb2Zmc2V0PSIxIi8+PC9saW5lYXJHcmFkaWVudD48L2RlZnM+PHBvbHlsaW5lIGZpbGwtcnVsZT0iZXZlbm9kZCIgZmlsbD0idXJsKCNiKSIgcG9pbnRzPSIwIDM5LjgzMiA0MC42OTIgMzkuODMyIDgwLjUxNyAwIDAgMCAwIDM5LjgzMiIvPjxwYXRoIGZpbGwtcnVsZT0iZXZlbm9kZCIgZmlsbD0iI2ZmZiIgZD0ibTQ3Ljc4Miw3LjQ4OWwtNy45MjUtLjAwNXYxOC44NDVsLTYuOTI0LTE4Ljg0NWgtNi44NjVsLTUuOTEyLDE1Ljc1OWMtLjYzLTMuOTczLTQuNzQtNS4zNDUtNy45NzQtNi4zNzQtMi4xMzUtLjY4Ni00LjQwMS0xLjY5NC00LjM4LTIuODA5LjAxNy0uOTE1LDEuMjE1LTEuNzY1LDMuNTg5LTEuNjM3LDEuNTk1LjA4NCwzLjAwMS4yMTMsNS44LDEuNTYzbDIuNzUzLTQuNzk1Yy0yLjU1NS0xLjMtNi4wODYtMi4xMjEtOC45NzgtMi4xMjRoLS4wMTdjLTMuMzc0LDAtNi4xODUsMS4wOTMtNy45MjgsMi44OTQtMS4yMTQsMS4yNTgtMS44NjksMi44NTYtMS44OTYsNC42MjMtLjA0NCwyLjQzMi44NDgsNC4xNTcsMi43MjEsNS41MzMsMS41ODMsMS4xNiwzLjYwNiwxLjkxMiw1LjM5LDIuNDY1LDIuMjAxLjY4MSwzLjk5NiwxLjI3NCwzLjk3NSwyLjUzOS0uMDE2LjQ1OS0uMTkxLjg4OC0uNTIxLDEuMjM2LS41NDguNTY2LTEuMzkxLjc3OS0yLjU1NS43OTktMi4yNDQuMDQ4LTMuOTEtLjMwMy02LjU2Mi0xLjg3bC0yLjQ0OCw0Ljg2MWMyLjY0NCwxLjUwNiw1Ljc3NiwyLjM4OCw4Ljk3MiwyLjM4OGwuNDExLS4wMDZjMi43ODItLjA1LDUuMDI2LS44NDIsNi44Mi0yLjI4Ni4xMDMtLjA4MS4xOTYtLjE2Ni4yOTEtLjI1bC0uNzk1LDIuMTIzaDcuMmwxLjIwOC0zLjY3NGMxLjI2NS40MzMsMi43MDQuNjcxLDQuMjMyLjY3MSwxLjQ4NywwLDIuODg5LS4yMjksNC4xMzEtLjYzNWwxLjE2NCwzLjYzN2gxMS43NDJ2LTcuNjA3aDIuNTYxYzYuMTg4LDAsOS44NTEtMy4xNTQsOS44NTEtOC40MzYsMC01Ljg4NS0zLjU1Ny04LjU4NS0xMS4xMzItOC41ODVabS0xOC4zMTcsMTYuMTI0Yy0uOTI1LDAtMS43OTItLjE2LTIuNTM5LS40NDNsMi41MTItNy45MjZoLjA0OGwyLjQ2OCw3Ljk0OGMtLjc0Mi4yNjMtMS41ODkuNDIxLTIuNDg4LjQyMVptMTguNzgzLTQuNTUzaC0xLjc0NnYtNi4zODZoMS43NDZjMi4zMjgsMCw0LjE4NS43NzMsNC4xODUsMy4xNTEsMCwyLjQ2MS0xLjg1NywzLjIzNi00LjE4NSwzLjIzNiIvPjxwYXRoIGZpbGw9IiMwMDJhODYiIGQ9Im04MC4yMTcsNy40MDFoMTAuMDYzYzUuNTk1LDAsOC42NzQsMS45MTcsOC42NzQsNi4xNTgsMCwyLjkwMy0xLjUxMyw1LjAxNC00LjMxMSw1LjcsMy4yOS40NTgsNS4yNzgsMi41ODYsNS4yNzgsNS44OTQsMCw1LjAxNC00LjA2NCw3LjAzNy05LjE4NCw3LjAzN2gtMTAuNTIxVjcuNDAxWm0xMy45NjksNi44MjZjMC0yLjE2NC0xLjQ5Ni0yLjk3My00LjI0LTIuOTczaC01LjA0OXY2LjI5OGg0Ljg5MWMzLjIwMiwwLDQuMzk4LTEuMTYxLDQuMzk4LTMuMzI1Wm0xLjAyMSwxMC41MjFjMC0yLjM1Ny0xLjc3Ny0zLjQ2Ni00LjgzOS0zLjQ2NmgtNS40NzF2Ny4wNTVoNS41MDZjMi44MTUsMCw0LjgwNC0uNzc0LDQuODA0LTMuNTg5WiIvPjxwYXRoIGZpbGw9IiMwMDJhODYiIGQ9Im0xMDkuMDUxLDExLjVoLTcuNTgzdi00LjA5OWgxOS44NDZ2NC4wOTloLTcuNTY1djIwLjY5aC00LjY5N1YxMS41WiIvPjxwYXRoIGZpbGw9IiMwMDJhODYiIGQ9Im0xMjUuMTQ4LDcuNDAxaDEwLjUwNGM2LjE5MiwwLDkuMDk2LDMuMTg1LDkuMDk2LDcuODk5LDAsNC4zOTgtMi44MzMsOC4xNDYtOC44NSw4LjE0NmgtNi4wN3Y4Ljc0NGgtNC42OFY3LjQwMVptMTQuOTAyLDcuOTUyYzAtMi41NTEtMS42ODktMy45MjMtNC45NDQtMy45MjNoLTUuMjc4djguMDRoNS40MTljMy4yNzIsMCw0LjgwNC0xLjU4Myw0LjgwNC00LjExN1oiLz48L3N2Zz4=;strokeWidth=1.5;" parent="bFVPSskZjtyiZDLN3V_n-107" vertex="1">
          <mxGeometry width="67.25" height="18.55" as="geometry" />
        </mxCell>
        <mxCell id="bFVPSskZjtyiZDLN3V_n-140" value="" style="group;labelBackgroundColor=default;" parent="1" vertex="1" connectable="0">
          <mxGeometry x="-2031.61" y="-1568" width="670" height="678" as="geometry" />
        </mxCell>
        <mxCell id="8l6RRYxQaxA69R045GtP-2" value="" style="rounded=1;whiteSpace=wrap;html=1;strokeColor=#0070F2;strokeWidth=1.5;arcSize=16;fillColor=#FFFFFF;perimeterSpacing=0;absoluteArcSize=1;" parent="bFVPSskZjtyiZDLN3V_n-140" vertex="1">
          <mxGeometry y="0.02" width="670" height="677.98" as="geometry" />
        </mxCell>
        <mxCell id="bFVPSskZjtyiZDLN3V_n-116" value="" style="group" parent="bFVPSskZjtyiZDLN3V_n-140" vertex="1" connectable="0">
          <mxGeometry x="4.354523339237525" width="154.85298670981928" height="180.23586212351216" as="geometry" />
        </mxCell>
        <mxCell id="8l6RRYxQaxA69R045GtP-13" value="&lt;font face=&quot;arial&quot; style=&quot;font-size: 16px;&quot;&gt;&lt;b style=&quot;font-size: 16px;&quot;&gt;Subaccount&lt;/b&gt;&lt;/font&gt;" style="text;html=1;align=left;verticalAlign=middle;resizable=0;points=[];autosize=1;strokeColor=none;fillColor=none;fontSize=12;fontColor=#1d2d3e;fontFamily=Helvetica;" parent="bFVPSskZjtyiZDLN3V_n-116" vertex="1">
          <mxGeometry width="120" height="30" as="geometry" />
        </mxCell>
        <mxCell id="8l6RRYxQaxA69R045GtP-12" value="&lt;font size=&quot;1&quot; face=&quot;arial&quot; style=&quot;&quot;&gt;&lt;span style=&quot;font-size: 12px;&quot;&gt;Multi-Cloud&lt;/span&gt;&lt;/font&gt;" style="text;html=1;align=left;verticalAlign=middle;resizable=0;points=[];autosize=1;strokeColor=none;fillColor=none;fontSize=14;fontColor=#1D2D3E;fontFamily=Helvetica;fontStyle=0" parent="bFVPSskZjtyiZDLN3V_n-116" vertex="1">
          <mxGeometry x="2.5808831118303215" y="23.24666376817435" width="79" height="29" as="geometry" />
        </mxCell>
        <mxCell id="dFPvA1FSlUZvYu8P9tU1-120" value="&lt;p style=&quot;line-height: 114%;&quot;&gt;&lt;font color=&quot;#475f75&quot; size=&quot;1&quot;&gt;&lt;b style=&quot;&quot;&gt;HTTPS&lt;/b&gt;&lt;/font&gt;&lt;/p&gt;" style="rounded=1;whiteSpace=wrap;html=1;arcSize=50;strokeColor=#475f75;fillColor=#f5f6f7;fontColor=#266f3a;strokeWidth=1.5;" parent="bFVPSskZjtyiZDLN3V_n-140" vertex="1">
          <mxGeometry x="619.6895763337888" y="597.1640173489105" width="40.02042366621127" height="17.95588100686499" as="geometry" />
        </mxCell>
        <mxCell id="dFPvA1FSlUZvYu8P9tU1-168" value="" style="endArrow=blockThin;html=1;strokeColor=#475e75;bendable=1;rounded=0;endFill=1;endSize=4;strokeWidth=1.5;startSize=4;startArrow=none;startFill=0;exitX=1;exitY=0.5;exitDx=0;exitDy=0;exitPerimeter=0;entryX=0;entryY=0.5;entryDx=0;entryDy=0;" parent="bFVPSskZjtyiZDLN3V_n-140" source="dFPvA1FSlUZvYu8P9tU1-146" target="dFPvA1FSlUZvYu8P9tU1-120" edge="1">
          <mxGeometry width="50" height="50" relative="1" as="geometry">
            <mxPoint x="561.7023692772258" y="481.7701362850078" as="sourcePoint" />
            <mxPoint x="562.3314114210625" y="445.87509568546574" as="targetPoint" />
          </mxGeometry>
        </mxCell>
        <mxCell id="dFPvA1FSlUZvYu8P9tU1-146" value="SAP Connectivity&#xa;service" style="shape=image;verticalLabelPosition=bottom;verticalAlign=top;imageAspect=0;aspect=fixed;image=data:image/svg+xml,PHN2ZyB4bWxucz0iaHR0cDovL3d3dy53My5vcmcvMjAwMC9zdmciIGZpbGw9Im5vbmUiIHZpZXdCb3g9IjAgMCAxNiAxNiIgaGVpZ2h0PSIxNiIgd2lkdGg9IjE2Ij4mI3hhOzxjaXJjbGUgc3Ryb2tlLXdpZHRoPSIwLjI4NTcwOCIgc3Ryb2tlPSIjRDVEQUREIiBmaWxsPSJ1cmwoI3BhaW50MF9saW5lYXJfMzUxNF80MDIwMikiIHI9IjcuODU2OTYiIGN5PSI3Ljk5OTA4IiBjeD0iNy45OTkzMyIvPiYjeGE7PGcgY2xpcC1wYXRoPSJ1cmwoI2NsaXAwXzM1MTRfNDAyMDIpIj4mI3hhOzxwYXRoIGZpbGw9InVybCgjcGFpbnQxX2xpbmVhcl8zNTE0XzQwMjAyKSIgZD0iTTguNTgyOTIgNC4xMTQ3NEM4LjU4MjkyIDMuODM4NiA4LjgwNjc4IDMuNjE0NzUgOS4wODI5MiAzLjYxNDc1SDEwLjYyNjRDMTEuNTkyOSAzLjYxNDc1IDEyLjM3NjQgNC4zOTgyNSAxMi4zNzY0IDUuMzY0NzRWNi42OTM5NUMxMi4zNzY0IDYuOTcwMSAxMi4xNTI1IDcuMTkzOTUgMTEuODc2NCA3LjE5Mzk1QzExLjYwMDIgNy4xOTM5NSAxMS4zNzY0IDYuOTcwMSAxMS4zNzY0IDYuNjkzOTVWNS4zNjQ3NEMxMS4zNzY0IDQuOTUwNTMgMTEuMDQwNiA0LjYxNDc0IDEwLjYyNjQgNC42MTQ3NEg5LjA4MjkyQzguODA2NzggNC42MTQ3NCA4LjU4MjkyIDQuMzkwODkgOC41ODI5MiA0LjExNDc0Wk00LjEyMTU4IDguNTMzMjRDNC4zOTc3MiA4LjUzMzI0IDQuNjIxNTggOC43NTcxIDQuNjIxNTggOS4wMzMyNFYxMC42MjgxQzQuNjIxNTggMTEuMDQyMyA0Ljk1NzM2IDExLjM3ODEgNS4zNzE1OCAxMS4zNzgxSDcuMDY5MjVDNy4zNDUzOSAxMS4zNzgxIDcuNTY5MjUgMTEuNjAxOSA3LjU2OTI1IDExLjg3ODFDNy41NjkyNSAxMi4xNTQyIDcuMzQ1MzkgMTIuMzc4MSA3LjA2OTI1IDEyLjM3ODFINS4zNzE1OEM0LjQwNTA4IDEyLjM3ODEgMy42MjE1OCAxMS41OTQ2IDMuNjIxNTggMTAuNjI4MVY5LjAzMzI0QzMuNjIxNTggOC43NTcxIDMuODQ1NDQgOC41MzMyNCA0LjEyMTU4IDguNTMzMjRaIiBjbGlwLXJ1bGU9ImV2ZW5vZGQiIGZpbGwtcnVsZT0iZXZlbm9kZCIvPiYjeGE7PHBhdGggZmlsbD0idXJsKCNwYWludDJfbGluZWFyXzM1MTRfNDAyMDIpIiBkPSJNMTIuODQzMiAxMS45MzI4QzEyLjk0NzQgMTIuMDM3IDEyLjk5OTUgMTIuMTQ3NyAxMi45OTk1IDEyLjI2NDlDMTIuOTk5NSAxMi4zOTUxIDEyLjk0NzQgMTIuNTEyMyAxMi44NDMyIDEyLjYxNjRDMTIuNzM5MSAxMi43MjA2IDEyLjYyMTkgMTIuNzcyNyAxMi40OTE3IDEyLjc3MjdDMTIuMzc0NSAxMi43NzI3IDEyLjI2MzggMTIuNzIwNiAxMi4xNTk2IDEyLjYxNjRMMTAuNzcyOSAxMS4yMjk3QzEwLjM2OTMgMTEuNTgxMyA5LjkxMzU2IDExLjc1MDYgOS40MDU3NSAxMS43Mzc1QzguODk3OTQgMTEuNzExNSA4LjQ1NTI0IDExLjUwOTcgOC4wNzc2MyAxMS4xMzIxTDcuNjI4NDIgMTAuNjgyOEM3LjUyNDI1IDEwLjU3ODcgNy40NzIxNyAxMC40NjggNy40NzIxNyAxMC4zNTA4QzcuNDcyMTcgMTAuMjIwNiA3LjUyNDI1IDEwLjEwMzQgNy42Mjg0MiA5Ljk5OTI2TDEwLjE2NzUgNy40NjAyQzEwLjI3MTYgNy4zNTYwNCAxMC4zODg4IDcuMzAzOTYgMTAuNTE5IDcuMzAzOTZDMTAuNjQ5MiA3LjMwMzk2IDEwLjc2NjQgNy4zNTYwNCAxMC44NzA2IDcuNDYwMkwxMS4zMTk4IDcuOTA5NDJDMTEuNjk3NCA4LjI4NzAyIDExLjg5MjcgOC43MjMyMiAxMS45MDU3IDkuMjE4MDFDMTEuOTMxOCA5LjY5OTc4IDExLjc4MiAxMC4xMzYgMTEuNDU2NSAxMC41MjY2TDEyLjg0MzIgMTEuOTMyOFoiIGNsaXAtcnVsZT0iZXZlbm9kZCIgZmlsbC1ydWxlPSJldmVub2RkIi8+JiN4YTs8cGF0aCBmaWxsPSJ1cmwoI3BhaW50M19saW5lYXJfMzUxNF80MDIwMikiIGQ9Ik03LjcxNTE4IDguNzA0MDZDNy42MTEwMSA4LjgwODIzIDcuNDkzODIgOC44NjAzMSA3LjM2MzYxIDguODYwMzFDNy4yNDY0MiA4Ljg2MDMxIDcuMTM1NzUgOC44MDgyMyA3LjAzMTU4IDguNzA0MDZMNi4xMzMxNCA3LjgwNTYzTDUuNzQyNTIgOC4xOTYyNUM1LjYzODM1IDguMzAwNDIgNS41MjExNiA4LjM1MjUgNS4zOTA5NSA4LjM1MjVDNS4yNDc3MyA4LjM1MjUgNS4xMzA1NCA4LjMwMDQyIDUuMDM5MzkgOC4xOTYyNUw0LjU5MDE3IDcuNzY2NTdDNC4yMTI1NyA3LjM4ODk2IDQuMDEwNzUgNi45NTkyOCAzLjk4NDcgNi40Nzc1MUMzLjk1ODY2IDUuOTgyNzIgNC4wOTUzOCA1LjUzMzUgNC4zOTQ4NiA1LjEyOTg2TDMuMTU1NzYgMy44NTgzOUMzLjA1MTYgMy43NTQyMyAyLjk5OTUxIDMuNjM3MDQgMi45OTk1MSAzLjUwNjgzQzIuOTk5NTEgMy4zNzY2MyAzLjA1MTYgMy4yNTk0NCAzLjE1NTc2IDMuMTU1MjdDMy4yNTk5MyAzLjA1MTExIDMuMzcwNjEgMi45OTkwMiAzLjQ4Nzc5IDIuOTk5MDJDMy42MTggMi45OTkwMiAzLjczNTE5IDMuMDUxMTEgMy44MzkzNiAzLjE1NTI3TDUuMDc4NDUgNC40MjY3NEM1LjQ4MjEgNC4xMDEyMiA1LjkzNzgzIDMuOTUxNDggNi40NDU2NCAzLjk3NzUyQzYuOTUzNDYgNC4wMDM1NiA3LjM5NjE2IDQuMjA1MzggNy43NzM3NyA0LjU4Mjk5TDguMjIyOTkgNS4wMzIyQzguMzE0MTMgNS4xMjMzNSA4LjM1OTcxIDUuMjQwNTMgOC4zNTk3MSA1LjM4Mzc2QzguMzU5NzEgNS41MTM5NyA4LjMxNDEzIDUuNjI0NjUgOC4yMjI5OSA1LjcxNTc5TDcuODEyODMgNi4xMjU5NUw4LjcxMTI3IDcuMDA0ODVDOC44MTU0NCA3LjEwOTAyIDguODY3NTIgNy4yMjYyIDguODY3NTIgNy4zNTY0MUM4Ljg2NzUyIDcuNDg2NjIgOC44MTU0NCA3LjYwMzgxIDguNzExMjcgNy43MDc5N0M4LjYwNzEgNy44MTIxNCA4LjQ4OTkyIDcuODY0MjIgOC4zNTk3MSA3Ljg2NDIyQzguMjI5NSA3Ljg2NDIyIDguMTEyMzEgNy44MTIxNCA4LjAwODE0IDcuNzA3OTdMNy4xMjkyNCA2LjgwOTU0TDYuODE2NzQgNy4xMjIwNEw3LjI2NTk2IDcuNTYxNDlMNy43MTUxOCA4LjAwMDk0QzcuODE5MzQgOC4xMDUxMSA3Ljg3MTQzIDguMjIyMjkgNy44NzE0MyA4LjM1MjVDNy44NzE0MyA4LjQ4MjcxIDcuODE5MzQgOC41OTk5IDcuNzE1MTggOC43MDQwNloiLz4mI3hhOzwvZz4mI3hhOzxkZWZzPiYjeGE7PGxpbmVhckdyYWRpZW50IGdyYWRpZW50VW5pdHM9InVzZXJTcGFjZU9uVXNlIiB5Mj0iMTQuNzQ3IiB4Mj0iMTMuNjg3NCIgeTE9IjIuMjcwMTYiIHgxPSIxLjQ1MDQzIiBpZD0icGFpbnQwX2xpbmVhcl8zNTE0XzQwMjAyIj4mI3hhOzxzdG9wIHN0b3AtY29sb3I9IndoaXRlIi8+JiN4YTs8c3RvcCBzdG9wLWNvbG9yPSIjRUFFQ0VFIiBvZmZzZXQ9IjEiLz4mI3hhOzwvbGluZWFyR3JhZGllbnQ+JiN4YTs8bGluZWFyR3JhZGllbnQgZ3JhZGllbnRVbml0cz0idXNlclNwYWNlT25Vc2UiIHkyPSIxMS4wNTc0IiB4Mj0iMTEuMDciIHkxPSI0LjkyNTI1IiB4MT0iNC45MzM5NiIgaWQ9InBhaW50MV9saW5lYXJfMzUxNF80MDIwMiI+JiN4YTs8c3RvcCBzdG9wLWNvbG9yPSIjMDE5NUZGIi8+JiN4YTs8c3RvcCBzdG9wLWNvbG9yPSIjMTE0N0U5IiBvZmZzZXQ9IjAuOTkxMDI4Ii8+JiN4YTs8L2xpbmVhckdyYWRpZW50PiYjeGE7PGxpbmVhckdyYWRpZW50IGdyYWRpZW50VW5pdHM9InVzZXJTcGFjZU9uVXNlIiB5Mj0iMTEuOTkxOCIgeDI9IjEyLjEyODQiIHkxPSI4LjEyNDQ0IiB4MT0iOC4yOTkzOCIgaWQ9InBhaW50Ml9saW5lYXJfMzUxNF80MDIwMiI+JiN4YTs8c3RvcCBzdG9wLWNvbG9yPSIjMDBCQkZGIi8+JiN4YTs8c3RvcCBzdG9wLWNvbG9yPSIjMDA4QkZGIiBvZmZzZXQ9IjEiLz4mI3hhOzwvbGluZWFyR3JhZGllbnQ+JiN4YTs8bGluZWFyR3JhZGllbnQgZ3JhZGllbnRVbml0cz0idXNlclNwYWNlT25Vc2UiIHkyPSI3Ljk4NTcxIiB4Mj0iNy45NjkwMiIgeTE9IjMuODYxMzQiIHgxPSIzLjg2NzA2IiBpZD0icGFpbnQzX2xpbmVhcl8zNTE0XzQwMjAyIj4mI3hhOzxzdG9wIHN0b3AtY29sb3I9IiMxMzQ4RkYiLz4mI3hhOzxzdG9wIHN0b3AtY29sb3I9IiMwNjIzOEQiIG9mZnNldD0iMSIvPiYjeGE7PC9saW5lYXJHcmFkaWVudD4mI3hhOzxjbGlwUGF0aCBpZD0iY2xpcDBfMzUxNF80MDIwMiI+JiN4YTs8cmVjdCB0cmFuc2Zvcm09InRyYW5zbGF0ZSgyLjk5OTI3IDIuOTk5MDIpIiBmaWxsPSJ3aGl0ZSIgaGVpZ2h0PSI5Ljk5OTk2IiB3aWR0aD0iOS45OTk5NiIvPiYjeGE7PC9jbGlwUGF0aD4mI3hhOzwvZGVmcz4mI3hhOzwvc3ZnPg==;points=[[0,0,0,0,0],[0,0.25,0,0,0],[0,0.5,0,0,0],[0,0.75,0,0,0],[0.25,0,0,0,0],[0.5,0,0,0,0],[0.75,0,0,0,0],[1,0,0,0,0],[1,0.25,0,0,0],[1,0.5,0,0,0],[1,0.75,0,0,0]];labelBackgroundColor=none;" parent="bFVPSskZjtyiZDLN3V_n-140" vertex="1">
          <mxGeometry x="566.0742918768545" y="591.3842597116756" width="28.33982815460808" height="28.33982815460808" as="geometry" />
        </mxCell>
        <mxCell id="dFPvA1FSlUZvYu8P9tU1-181" value="" style="endArrow=blockThin;html=1;strokeColor=#475e75;bendable=1;rounded=0;endFill=1;endSize=4;strokeWidth=1.5;startSize=4;startArrow=none;startFill=0;entryX=0.5;entryY=0;entryDx=0;entryDy=0;entryPerimeter=0;" parent="bFVPSskZjtyiZDLN3V_n-140" source="dFPvA1FSlUZvYu8P9tU1-145" target="dFPvA1FSlUZvYu8P9tU1-146" edge="1">
          <mxGeometry width="50" height="50" relative="1" as="geometry">
            <mxPoint x="508.6068557375501" y="528.9173974431914" as="sourcePoint" />
            <mxPoint x="568.606482612519" y="530.0015978853431" as="targetPoint" />
            <Array as="points" />
          </mxGeometry>
        </mxCell>
        <mxCell id="dFPvA1FSlUZvYu8P9tU1-145" value="SAP Destination&#xa;service" style="shape=image;verticalLabelPosition=bottom;verticalAlign=top;imageAspect=0;aspect=fixed;image=data:image/svg+xml,PHN2ZyB4bWxucz0iaHR0cDovL3d3dy53My5vcmcvMjAwMC9zdmciIGZpbGw9Im5vbmUiIHZpZXdCb3g9IjAgMCAxNiAxNiIgaGVpZ2h0PSIxNiIgd2lkdGg9IjE2Ij4mI3hhOzxjaXJjbGUgc3Ryb2tlLXdpZHRoPSIwLjI4NTcwOCIgc3Ryb2tlPSIjRDVEQUREIiBmaWxsPSJ1cmwoI3BhaW50MF9saW5lYXJfMzUxNF80MDIwNSkiIHI9IjcuODU2OTYiIGN5PSI3Ljk5OTA4IiBjeD0iNy45OTgzNSIvPiYjeGE7PGcgY2xpcC1wYXRoPSJ1cmwoI2NsaXAwXzM1MTRfNDAyMDUpIj4mI3hhOzxwYXRoIGZpbGw9InVybCgjcGFpbnQxX2xpbmVhcl8zNTE0XzQwMjA1KSIgZD0iTTEwLjAwMjUgMy4yMTY4SDcuMzQ2MTlDNy4yNDY3NiAzLjIxNjggNy4xNTE0IDMuMjU2MyA3LjA4MTA5IDMuMzI2NjFDNy4wMTA3OCAzLjM5NjkyIDYuOTcxMjggMy40OTIyOCA2Ljk3MTI4IDMuNTkxNzFWNC45MDc4NkM2Ljk3MTI4IDUuMjE1MzMgNi44NjE0NyA1LjQ3ODg3IDYuNjQxODUgNS42OTg0OUM2LjQyMjIzIDUuOTE4MTEgNi4xNTg2OSA2LjAyNzkyIDUuODUxMjIgNi4wMjc5Mkg0LjUzNTA3QzQuNDM1NjQgNi4wMjc5MiA0LjM0MDI4IDYuMDY3NDIgNC4yNjk5NyA2LjEzNzczQzQuMTk5NjYgNi4yMDgwNCA0LjE2MDE2IDYuMzAzNCA0LjE2MDE2IDYuNDAyODNWMTEuMjk5MkM0LjE2MDE2IDExLjc5NjMgNC41NjMxIDEyLjE5OTIgNS4wNjAxNiAxMi4xOTkySDcuMzk4OUM3LjIzMDIgMTIuMDMxMiA3LjA3NjM2IDExLjg0ODMgNi45Mzk1MSAxMS42NTI2QzYuODMyNjkgMTEuNDk5OCA2Ljg2OTk0IDExLjI4OTQgNy4wMjI2OSAxMS4xODI2QzcuMTc1NDUgMTEuMDc1OCA3LjM4NTg3IDExLjExMyA3LjQ5MjY4IDExLjI2NThDNy43MTc5NSAxMS41ODc5IDcuOTk4NjEgMTEuODY4NiA4LjMyMDc2IDEyLjA5MzhDOC4zNjE4IDEyLjEyMjUgOC4zOTQ0OSAxMi4xNTg3IDguNDE4MyAxMi4xOTkySDEwLjAwMjVDMTAuNDIxNCAxMi4xOTkyIDEwLjc3MzUgMTEuOTEzIDEwLjg3MzggMTEuNTI1NEMxMC43NDUgMTEuNTQ5IDEwLjYxMjEgMTEuNTYwOCAxMC40NzU2IDExLjU2MDhIMTAuMDE0MkM5Ljc1NDIgMTEuNTYwOCA5LjUzMTk0IDExLjQ1MTkgOS4zNjU3NSAxMS4yODU3QzkuMjI5NjggMTEuMTQ5NyA5LjE0MjQ0IDEwLjk4MDkgOS4xMTIzOSAxMC43OTQ2TDguNzUwNTMgMTAuNzk4NkM4LjUxNTcyIDEwLjc5ODYgOC4yNzg1NyAxMC43MjAxIDguMDkyMDIgMTAuNTMzNUM3LjkwNTQ3IDEwLjM0NyA3LjgyNjk3IDEwLjEwOTggNy44MjY5NyA5Ljg3NTAzQzcuODI2OTcgOS42OTgzMyA3Ljg3MTQyIDkuNTIwMzIgNy45NzI5MSA5LjM2MzUzQzcuODcxNDIgOS4yMDY3NCA3LjgyNjk3IDkuMDI4NzIgNy44MjY5NyA4Ljg1MjAzQzcuODI2OTcgOC42MTcyMiA3LjkwNTQ3IDguMzgwMDcgOC4wOTIwMiA4LjE5MzUyQzguMjgzMTkgOC4wMDIzNCA4LjUyNDc3IDcuOTM4NSA4Ljc0MDUgNy45Mzg1TDkuMTEzNDUgNy45Mzg1QzkuMTQyNCA3Ljc1ODg4IDkuMjIxOTkgNy41ODUwNyA5LjM2NTc1IDcuNDQxMzJDOS41NDI0NiA3LjI2NDYgOS43NzQ3OSA3LjE2NzE4IDEwLjAzMTIgNy4xNzU5OEwxMC40NjkzIDcuMTY2MjRIMTAuNDc1NkMxMC42MjIxIDcuMTY2MjQgMTAuNzY0NyA3LjE3OTI3IDEwLjkwMjUgNy4yMDU4MVY2LjA2NzYxQzEwLjg3NTEgNi4wNjk2IDEwLjg0NzEgNi4wNjgyOCAxMC44MTg5IDYuMDYzMjlDMTAuNjI4OSA2LjAyOTcxIDEwLjQzMzIgNi4wMTIxNiAxMC4yMzMxIDYuMDEyMTZDMTAuMDMyOSA2LjAxMjE2IDkuODM3MTcgNi4wMjk3MSA5LjY0NzE4IDYuMDYzMjlDOS40NjM2MyA2LjA5NTczIDkuMjg4NTQgNS45NzMyMyA5LjI1NjEgNS43ODk2OEM5LjIyMzY2IDUuNjA2MTMgOS4zNDYxNiA1LjQzMTAzIDkuNTI5NzEgNS4zOTg1OUM5Ljc1ODMxIDUuMzU4MTkgOS45OTMzNiA1LjMzNzE2IDEwLjIzMzEgNS4zMzcxNkMxMC40NjA5IDUuMzM3MTYgMTAuNjg0NiA1LjM1NjE3IDEwLjkwMjUgNS4zOTI3NVY0LjExNjhDMTAuOTAyNSAzLjYxOTc0IDEwLjQ5OTUgMy4yMTY4IDEwLjAwMjUgMy4yMTY4Wk04LjQwMzk1IDYuMTQzMTFDOC41MTA3NiA2LjI5NTg2IDguNDczNTIgNi41MDYyOCA4LjMyMDc2IDYuNjEzMUM3Ljk5ODYxIDYuODM4MzcgNy43MTc5NSA3LjExOTAyIDcuNDkyNjggNy40NDExOEM3LjM4NTg3IDcuNTkzOTMgNy4xNzU0NSA3LjYzMTE4IDcuMDIyNjkgNy41MjQzNkM2Ljg2OTk0IDcuNDE3NTUgNi44MzI2OSA3LjIwNzEzIDYuOTM5NTEgNy4wNTQzN0M3LjIxMDA2IDYuNjY3NDUgNy41NDcwMyA2LjMzMDQ4IDcuOTMzOTUgNi4wNTk5MkM4LjA4NjcxIDUuOTUzMTEgOC4yOTcxMyA1Ljk5MDM1IDguNDAzOTUgNi4xNDMxMVpNNi42NjkyNyA4LjM3NjUxQzYuODUyODIgOC40MDg5NSA2Ljk3NTMyIDguNTg0MDUgNi45NDI4OCA4Ljc2NzZDNi45MDkzIDguOTU3NTkgNi44OTE3NSA5LjE1MzM0IDYuODkxNzUgOS4zNTM0N0M2Ljg5MTc1IDkuNTUzNiA2LjkwOTMgOS43NDkzNSA2Ljk0Mjg4IDkuOTM5MzRDNi45NzUzMiAxMC4xMjI5IDYuODUyODIgMTAuMjk4IDYuNjY5MjcgMTAuMzMwNEM2LjQ4NTcyIDEwLjM2MjkgNi4zMTA2MiAxMC4yNDA0IDYuMjc4MTggMTAuMDU2OEM2LjIzNzc4IDkuODI4MjEgNi4yMTY3NSA5LjU5MzE2IDYuMjE2NzUgOS4zNTM0N0M2LjIxNjc1IDkuMTEzNzggNi4yMzc3OCA4Ljg3ODczIDYuMjc4MTggOC42NTAxM0M2LjMxMDYyIDguNDY2NTcgNi40ODU3MiA4LjM0NDA3IDYuNjY5MjcgOC4zNzY1MVoiIGNsaXAtcnVsZT0iZXZlbm9kZCIgZmlsbC1ydWxlPSJldmVub2RkIi8+JiN4YTs8cGF0aCBmaWxsPSJ1cmwoI3BhaW50Ml9saW5lYXJfMzUxNF80MDIwNSkiIGQ9Ik04LjQ4OTk0IDguNTkxMjlDOC40MjMwOCA4LjY1ODE1IDguMzg5NjUgOC43NDUwNyA4LjM4OTY1IDguODUyMDVDOC4zODk2NSA4Ljk1OTAzIDguNDIzMDggOS4wNDU5NSA4LjQ4OTk0IDkuMTEyODFDOC41NTY4MSA5LjE3OTY4IDguNjQzNzMgOS4yMTMxMSA4Ljc1MDcxIDkuMjEzMTFMOS42NjMzOCA5LjIwMzA4TDkuNjYzMzggOS41MjQwMkw4Ljc1MDcxIDkuNTEzOTlDOC42NDM3MyA5LjUxMzk5IDguNTU2ODEgOS41NDc0MiA4LjQ4OTk0IDkuNjE0MjhDOC40MjMwOCA5LjY4MTE1IDguMzg5NjUgOS43NjgwNyA4LjM4OTY1IDkuODc1MDVDOC4zODk2NSA5Ljk4MjAzIDguNDIzMDggMTAuMDY4OSA4LjQ4OTk0IDEwLjEzNThDOC41NTY4MSAxMC4yMDI3IDguNjQzNzMgMTAuMjM2MSA4Ljc1MDcxIDEwLjIzNjFMOS42NjMzOCAxMC4yMjYxVjEwLjY0NzNDOS42NjMzOCAxMC43NDA5IDkuNjk2ODEgMTAuODIxMiA5Ljc2MzY3IDEwLjg4OEM5LjgzNzIyIDEwLjk2MTYgOS45MjA4IDEwLjk5ODMgMTAuMDE0NCAxMC45OTgzSDEwLjQ3NThDMTAuODYzNiAxMC45OTgzIDExLjE5NDUgMTAuODc0NiAxMS40Njg3IDEwLjYyNzNDMTEuNzQyOCAxMC4zNzk5IDExLjg5OTkgMTAuMDY4OSAxMS45NCA5LjY5NDUyTDEyLjg0MTMgOS42OTQ1MUMxMi45NDgzIDkuNjk0NTEgMTMuMDM1MiA5LjY2MTA4IDEzLjEwMjEgOS41OTQyMUMxMy4xNjIzIDkuNTM0MDQgMTMuMTkyNCA5LjQ1MDQ2IDEzLjE5MjQgOS4zNDM0OEMxMy4xOTI0IDkuMjM2NSAxMy4xNTg5IDkuMTQ5NTggMTMuMDkyMSA5LjA4MjcyQzEzLjAyNTIgOS4wMTU4NSAxMi45MzgzIDguOTgyNDIgMTIuODMxMyA4Ljk4MjQyTDExLjkzIDguOTgyNDNDMTEuODc2NSA4LjYyMTM3IDExLjcxNjEgOC4zMjA0OSAxMS40NDg2IDguMDc5NzlDMTEuMTg3OCA3Ljg0NTc3IDEwLjg2MzYgNy43Mjg3NiAxMC40NzU4IDcuNzI4NzZMMTAuMDI0NCA3LjczODc5QzkuOTI0MTQgNy43MzIxIDkuODM3MjIgNy43NjU1MyA5Ljc2MzY3IDcuODM5MDhDOS42OTY4MSA3LjkwNTk1IDkuNjYzMzggNy45OTI4NyA5LjY2MzM4IDguMDk5ODVMOS42NjMzOCA4LjUwMTAyTDguNzQwNjggOC41MDEwMkM4LjYzMzcgOC41MDEwMiA4LjU1MDEyIDguNTMxMTEgOC40ODk5NCA4LjU5MTI5WiIvPiYjeGE7PHBhdGggZmlsbD0idXJsKCNwYWludDNfbGluZWFyXzM1MTRfNDAyMDUpIiBkPSJNNi41NTQzMSA0Ljg1MTM4VjMuODUzNTJMNC43OTY4OCA1LjYxMDk1SDUuNzk0NzRDNi4wMDMyNSA1LjYxMDk1IDYuMTgxOTcgNS41MzY0OCA2LjMzMDkxIDUuMzg3NTVDNi40Nzk4NCA1LjIzODYxIDYuNTU0MzEgNS4wNTk4OSA2LjU1NDMxIDQuODUxMzhaIi8+JiN4YTs8L2c+JiN4YTs8ZGVmcz4mI3hhOzxsaW5lYXJHcmFkaWVudCBncmFkaWVudFVuaXRzPSJ1c2VyU3BhY2VPblVzZSIgeTI9IjE0Ljc0NyIgeDI9IjEzLjY4NjQiIHkxPSIyLjI3MDE2IiB4MT0iMS40NDk0NiIgaWQ9InBhaW50MF9saW5lYXJfMzUxNF80MDIwNSI+JiN4YTs8c3RvcCBzdG9wLWNvbG9yPSJ3aGl0ZSIvPiYjeGE7PHN0b3Agc3RvcC1jb2xvcj0iI0VBRUNFRSIgb2Zmc2V0PSIxIi8+JiN4YTs8L2xpbmVhckdyYWRpZW50PiYjeGE7PGxpbmVhckdyYWRpZW50IGdyYWRpZW50VW5pdHM9InVzZXJTcGFjZU9uVXNlIiB5Mj0iOS4wOTUyMSIgeDI9IjExLjIxMDciIHkxPSI0LjU2MDA2IiB4MT0iNS4xNzA4NiIgaWQ9InBhaW50MV9saW5lYXJfMzUxNF80MDIwNSI+JiN4YTs8c3RvcCBzdG9wLWNvbG9yPSIjMDE5NUZGIi8+JiN4YTs8c3RvcCBzdG9wLWNvbG9yPSIjMTE0N0U5IiBvZmZzZXQ9IjAuOTkxMDI4Ii8+JiN4YTs8L2xpbmVhckdyYWRpZW50PiYjeGE7PGxpbmVhckdyYWRpZW50IGdyYWRpZW50VW5pdHM9InVzZXJTcGFjZU9uVXNlIiB5Mj0iMTEuMzQ1NCIgeDI9IjExLjIyNTIiIHkxPSI4LjIwOTc5IiB4MT0iOS4wOTk3IiBpZD0icGFpbnQyX2xpbmVhcl8zNTE0XzQwMjA1Ij4mI3hhOzxzdG9wIHN0b3AtY29sb3I9IiMxMzQ4RkYiLz4mI3hhOzxzdG9wIHN0b3AtY29sb3I9IiMwNjIzOEQiIG9mZnNldD0iMSIvPiYjeGE7PC9saW5lYXJHcmFkaWVudD4mI3hhOzxsaW5lYXJHcmFkaWVudCBncmFkaWVudFVuaXRzPSJ1c2VyU3BhY2VPblVzZSIgeTI9IjUuMzQ3MzEiIHgyPSI2LjI4NjYzIiB5MT0iNC4xMTIwNyIgeDE9IjUuMDU2NyIgaWQ9InBhaW50M19saW5lYXJfMzUxNF80MDIwNSI+JiN4YTs8c3RvcCBzdG9wLWNvbG9yPSIjMTM0OEZGIi8+JiN4YTs8c3RvcCBzdG9wLWNvbG9yPSIjMDYyMzhEIiBvZmZzZXQ9IjEiLz4mI3hhOzwvbGluZWFyR3JhZGllbnQ+JiN4YTs8Y2xpcFBhdGggaWQ9ImNsaXAwXzM1MTRfNDAyMDUiPiYjeGE7PHJlY3QgdHJhbnNmb3JtPSJ0cmFuc2xhdGUoNC4xOTg0OSAzLjE5OTIyKSIgZmlsbD0id2hpdGUiIGhlaWdodD0iOSIgd2lkdGg9IjkiLz4mI3hhOzwvY2xpcFBhdGg+JiN4YTs8L2RlZnM+JiN4YTs8L3N2Zz4=;points=[[0,0,0,0,0],[0,0.25,0,0,0],[0,0.5,0,0,0],[0,0.75,0,0,0],[0.25,0,0,0,0],[0.5,0,0,0,0],[0.75,0,0,0,0],[1,0,0,0,0],[1,0.25,0,0,0],[1,0.5,0,0,0],[1,0.75,0,0,0]];labelBackgroundColor=default;" parent="bFVPSskZjtyiZDLN3V_n-140" vertex="1">
          <mxGeometry x="566.0742918768545" y="496.5527782397763" width="28.33982815460808" height="28.33982815460808" as="geometry" />
        </mxCell>
        <mxCell id="1nddzdw7vivYGaLFLm3b-1" value="SAP Business &#xa;Accelerator Hub" style="shape=image;verticalLabelPosition=bottom;labelBackgroundColor=none;verticalAlign=top;aspect=fixed;imageAspect=0;image=data:image/svg+xml,PHN2ZyB4bWxucz0iaHR0cDovL3d3dy53My5vcmcvMjAwMC9zdmciIGZpbGw9Im5vbmUiIHZpZXdCb3g9IjAgMCAxNiAxNiIgaGVpZ2h0PSIxNiIgd2lkdGg9IjE2Ij4mI3hhOzxjaXJjbGUgc3Ryb2tlLXdpZHRoPSIwLjI4NTcwOCIgc3Ryb2tlPSIjRDVEQUREIiBmaWxsPSJ1cmwoI3BhaW50MF9saW5lYXJfMzg5MF8yMTU0MCkiIHI9IjcuODU2OTYiIGN5PSI3Ljk5NzM4IiBjeD0iNy45OTU0MiIvPiYjeGE7PGcgY2xpcC1wYXRoPSJ1cmwoI2NsaXAwXzM4OTBfMjE1NDApIj4mI3hhOzxwYXRoIGZpbGw9InVybCgjcGFpbnQxX2xpbmVhcl8zODkwXzIxNTQwKSIgZD0iTTguNjgxMyA4LjA1MjczTDcuODcwNzQgOC4wNTI3M0M3Ljg0NTk4IDguMDUyNzMgNy44MjEyNiA4LjA1MzM4IDcuNzk2NiA4LjA1NDY3TDcuNDU2NzcgNi41OTk4N0w4LjIzMTg5IDYuMTYyNDlMOC42ODEzIDguMDUyNzNaIi8+JiN4YTs8cGF0aCBmaWxsPSJ1cmwoI3BhaW50Ml9saW5lYXJfMzg5MF8yMTU0MCkiIGQ9Ik02LjAyMTM5IDkuNjg2MTFINC4zNDUzMkMzLjkwNTg2IDkuNjg2MTEgMy41MzY4IDkuMzM4ODYgMy40ODg3NSA4Ljg4MDE3TDIuOTk4ODUgNC4zNDM0OEwyLjk5NzIxIDQuMzI2MzRDMi45NDU5MiAzLjczMjkyIDMuMzg4NCAzLjIxNzA0IDMuOTY1NDcgMy4yMTcwNEw4LjE5MzAyIDMuMjE3MDdDOC40NDI5IDMuMjE3MDcgOC42NDU0NiAzLjQxOTY0IDguNjQ1NDYgMy42Njk1MUM4LjY0NTQ2IDMuOTE5MzkgOC40NDI5IDQuMTIxOTYgOC4xOTMwMiA0LjEyMTk1TDMuOTY1NDcgNC4xMjE5MkMzLjg5NjM4IDQuMTIxOTIgMy44NDk4MSA0LjE3OTY0IDMuODU1NDIgNC4yNDQ1NEw0LjM0NTMyIDguNzgxMjNINi40NjY4N0M2LjI0MjYgOS4wNDk5MiA2LjA4MjM1IDkuMzY2OTkgNi4wMjEzOSA5LjY4NjExWiIvPiYjeGE7PHBhdGggZmlsbD0idXJsKCNwYWludDNfbGluZWFyXzM4OTBfMjE1NDApIiBkPSJNNC42MjczIDUuOTkwODZDNC42MTQ0NiA2LjAwODM1IDQuNjAyMTQgNi4wMjYyNiA0LjU5MDM3IDYuMDQ0NTZDNC41NTg1MyA2LjA5NDA2IDQuNTMxNjYgNi4xNDM3NyA0LjUwOTE0IDYuMTkyMTdMNC41MDE0OCA2LjIwODk5TDMuNTk4MjEgOC4yMzk2MUMzLjUyMTU2IDguNDExOTQgMy40OTA1IDguNjAyNzcgMy41MDgzIDguNzkyMDVDMy41MTM3OSA4Ljg1MDQxIDMuNTIzMzUgOC45MDc5OSAzLjUzNjY3IDguOTY0MUMzLjY1ODU4IDkuNDc3MjggNC4wOTk5MSA5Ljg2OTQzIDQuNjM2OTIgOS44Njk0M0g2LjA1NzU3QzYuMjc5MTIgOS4xMDA3MSA3LjA1MDcxIDguMzg2OTUgNy44NzA3NCA4LjM4Njk1TDEyLjEwNTIgOC4zODY5MkMxMi4xMzA0IDguMzg2NDIgMTIuMTU1NCA4LjM4NjU0IDEyLjE4MDQgOC4zODcyNkwxMi45NDI0IDYuMDc1MjlDMTIuOTkwMSA1LjkzMDQ2IDEzLjAwNzMgNS43NzY0OSAxMi45OTI5IDUuNjI0QzEyLjkzNDQgNS4wMDYwNyAxMi40NTAzIDQuNTcyNzQgMTEuOTAxIDQuNTUzNDVDMTEuODYxOCA0LjU0ODU5IDExLjgyMjMgNC41NDYxNCAxMS43ODI3IDQuNTQ2MTRIMTAuMTUyOUM5Ljg4Nzc1IDQuNTQ2MTQgOS42MzMyMSA0LjY1NTggOS40NDQ0MiA0Ljg1MTM4TDguNzk5NTYgNS41MTk0M0g1LjUzMjI4QzUuNTEyNjMgNS41MTk0MyA1LjQ5Mjc3IDUuNTE5OTYgNS40NzI3MyA1LjUyMTA0QzUuMzQ2NDYgNS41Mjc5IDUuMjIyNjIgNS41NTk2MSA1LjEwNzYzIDUuNjE0NDZDNC45ODQ2MiA1LjY2NTYyIDQuODY3ODYgNS43Mzg5NyA0Ljc2NTExIDUuODM1MzVDNC43MTg1NSA1Ljg3OTAzIDQuNjcxNiA1LjkzMDUgNC42MjczIDUuOTkwODZaIi8+JiN4YTs8cGF0aCBmaWxsPSJ1cmwoI3BhaW50NF9saW5lYXJfMzg5MF8yMTU0MCkiIGQ9Ik04LjExNzgxIDkuMzg2NzJDNy41MjYwOCA5LjM4NjcyIDcuMDQ2MzkgOS44NjY0MSA3LjA0NjM5IDEwLjQ1ODFWMTIuMTA2NUM3LjA0NjM5IDEyLjY5ODIgNy41MjYwOCAxMy4xNzc5IDguMTE3ODEgMTMuMTc3OUgxMS45MjY1QzEyLjUxODMgMTMuMTc3OSAxMi45OTc5IDEyLjY5ODIgMTIuOTk3OSAxMi4xMDY1VjEwLjQ1ODFDMTIuOTk3OSA5Ljg2NjQxIDEyLjUxODMgOS4zODY3MiAxMS45MjY1IDkuMzg2NzJIOC4xMTc4MVpNMTEuMTgxMyAxMi4zNTM4QzExLjExMzYgMTIuMzUzOCAxMS4wNDU5IDEyLjMyNzUgMTAuOTkzNCAxMi4yNzY0QzEwLjg4OTggMTIuMTcyOCAxMC44ODk4IDEyLjAwNDMgMTAuOTkzNCAxMS45MDA3TDExLjYxMDkgMTEuMjgzMkwxMC45OTM0IDEwLjY2NDNDMTAuODg5OCAxMC41NjA3IDEwLjg4OTggMTAuMzkyMiAxMC45OTM0IDEwLjI4ODZDMTEuMDk3IDEwLjE4NSAxMS4yNjU2IDEwLjE4NSAxMS4zNjkyIDEwLjI4ODZMMTIuMTc0NSAxMS4wOTM5QzEyLjIyNDIgMTEuMTQzNyAxMi4yNTE5IDExLjIxMTQgMTIuMjUxOSAxMS4yODE4QzEyLjI1MTkgMTEuMzUyMyAxMi4yMjQyIDExLjQyIDEyLjE3NDUgMTEuNDY5N0wxMS4zNjkyIDEyLjI3NUMxMS4zMTY3IDEyLjMyNzUgMTEuMjQ5IDEyLjM1MzggMTEuMTgxMyAxMi4zNTM4Wk04Ljg2MzM3IDEyLjM1MzhDOC43OTU2OSAxMi4zNTM4IDguNzI4IDEyLjMyNzUgOC42NzU1MSAxMi4yNzY0TDcuODcwMTcgMTEuNDcxMUM3Ljc2NjU3IDExLjM2NzUgNy43NjY1NyAxMS4xOTg5IDcuODcwMTcgMTEuMDk1M0w4LjY3NTUxIDEwLjI5QzguNzc5MTEgMTAuMTg2NCA4Ljk0NzY0IDEwLjE4NjQgOS4wNTEyNCAxMC4yOUM5LjE1NDg0IDEwLjM5MzYgOS4xNTQ4NCAxMC41NjIxIDkuMDUxMjQgMTAuNjY1N0w4LjQzMjM5IDExLjI4MzJMOS4wNDk4NiAxMS45MDA3QzkuMTUzNDYgMTIuMDA0MyA5LjE1MzQ2IDEyLjE3MjggOS4wNDk4NiAxMi4yNzY0QzguOTk4NzUgMTIuMzI3NSA4LjkzMTA2IDEyLjM1MzggOC44NjMzNyAxMi4zNTM4Wk05LjU2OTI1IDEyLjMwNjhDOS42MDUxNyAxMi4zMjIgOS42NDEwOCAxMi4zMjg5IDkuNjc3IDEyLjMyODlDOS43NzkyMiAxMi4zMjg5IDkuODc1OTIgMTIuMjY5NSA5LjkxODc0IDEyLjE3MTRMMTAuNjA5NCAxMC42MTA1QzEwLjY2ODggMTAuNDc2NSAxMC42MDggMTAuMzIwNCAxMC40NzQgMTAuMjYxQzEwLjM0MDEgMTAuMjAxNiAxMC4xODQgMTAuMjYyNCAxMC4xMjQ2IDEwLjM5NjRMOS40MzM4OCAxMS45NTczQzkuMzc0NDggMTIuMDkxMyA5LjQzNTI2IDEyLjI0NzQgOS41NjkyNSAxMi4zMDY4WiIgY2xpcC1ydWxlPSJldmVub2RkIiBmaWxsLXJ1bGU9ImV2ZW5vZGQiLz4mI3hhOzwvZz4mI3hhOzxkZWZzPiYjeGE7PGxpbmVhckdyYWRpZW50IGdyYWRpZW50VW5pdHM9InVzZXJTcGFjZU9uVXNlIiB5Mj0iMTQuNzQ1MyIgeDI9IjEzLjY4MzUiIHkxPSIyLjI2ODQ1IiB4MT0iMS40NDY1MyIgaWQ9InBhaW50MF9saW5lYXJfMzg5MF8yMTU0MCI+JiN4YTs8c3RvcCBzdG9wLWNvbG9yPSJ3aGl0ZSIvPiYjeGE7PHN0b3Agc3RvcC1jb2xvcj0iI0VBRUNFRSIgb2Zmc2V0PSIxIi8+JiN4YTs8L2xpbmVhckdyYWRpZW50PiYjeGE7PGxpbmVhckdyYWRpZW50IGdyYWRpZW50VW5pdHM9InVzZXJTcGFjZU9uVXNlIiB5Mj0iOC4xMzYwOCIgeDI9IjguMzM4NDMiIHkxPSI0LjE4NDQ1IiB4MT0iMy44NDU4NCIgaWQ9InBhaW50MV9saW5lYXJfMzg5MF8yMTU0MCI+JiN4YTs8c3RvcCBzdG9wLWNvbG9yPSIjMDE5NUZGIi8+JiN4YTs8c3RvcCBzdG9wLWNvbG9yPSIjMTE0N0U5IiBvZmZzZXQ9IjAuOTkxMDI4Ii8+JiN4YTs8L2xpbmVhckdyYWRpZW50PiYjeGE7PGxpbmVhckdyYWRpZW50IGdyYWRpZW50VW5pdHM9InVzZXJTcGFjZU9uVXNlIiB5Mj0iOC4xMzYwOCIgeDI9IjguMzM4NDMiIHkxPSI0LjE4NDQ1IiB4MT0iMy44NDU4NCIgaWQ9InBhaW50Ml9saW5lYXJfMzg5MF8yMTU0MCI+JiN4YTs8c3RvcCBzdG9wLWNvbG9yPSIjMDE5NUZGIi8+JiN4YTs8c3RvcCBzdG9wLWNvbG9yPSIjMTE0N0U5IiBvZmZzZXQ9IjAuOTkxMDI4Ii8+JiN4YTs8L2xpbmVhckdyYWRpZW50PiYjeGE7PGxpbmVhckdyYWRpZW50IGdyYWRpZW50VW5pdHM9InVzZXJTcGFjZU9uVXNlIiB5Mj0iMTEuMDE0OSIgeDI9IjguMTA2MDkiIHkxPSI1LjM0MjIxIiB4MT0iNC45MjY2NyIgaWQ9InBhaW50M19saW5lYXJfMzg5MF8yMTU0MCI+JiN4YTs8c3RvcCBzdG9wLWNvbG9yPSIjMDE5NUZGIi8+JiN4YTs8c3RvcCBzdG9wLWNvbG9yPSIjMTE0N0U5IiBvZmZzZXQ9IjAuOTkxMDI4Ii8+JiN4YTs8L2xpbmVhckdyYWRpZW50PiYjeGE7PGxpbmVhckdyYWRpZW50IGdyYWRpZW50VW5pdHM9InVzZXJTcGFjZU9uVXNlIiB5Mj0iMTMuNzI4NiIgeDI9IjEwLjMyNjQiIHkxPSI5Ljk0NDQ4IiB4MT0iNy45MjYyOSIgaWQ9InBhaW50NF9saW5lYXJfMzg5MF8yMTU0MCI+JiN4YTs8c3RvcCBzdG9wLWNvbG9yPSIjMTM0OEZGIi8+JiN4YTs8c3RvcCBzdG9wLWNvbG9yPSIjMDYyMzhEIiBvZmZzZXQ9IjEiLz4mI3hhOzwvbGluZWFyR3JhZGllbnQ+JiN4YTs8Y2xpcFBhdGggaWQ9ImNsaXAwXzM4OTBfMjE1NDAiPiYjeGE7PHJlY3QgdHJhbnNmb3JtPSJ0cmFuc2xhdGUoMi45OTU2MSAzLjE5NzUxKSIgZmlsbD0id2hpdGUiIGhlaWdodD0iMTAiIHdpZHRoPSIxMCIvPiYjeGE7PC9jbGlwUGF0aD4mI3hhOzwvZGVmcz4mI3hhOzwvc3ZnPg==;points=[[0,0,0,0,0],[0,0.25,0,0,0],[0,0.5,0,0,0],[0,0.75,0,0,0],[0.25,0,0,0,0],[0.5,0,0,0,0],[0.75,0,0,0,0],[1,0,0,0,0],[1,0.25,0,0,0],[1,0.5,0,0,0],[1,0.75,0,0,0]];" parent="bFVPSskZjtyiZDLN3V_n-140" vertex="1">
          <mxGeometry x="587.6869999999998" y="330" width="32" height="32" as="geometry" />
        </mxCell>
        <mxCell id="_FdFY5pbQAiYYbf3v4dS-128" value="&lt;font face=&quot;Arial&quot;&gt;Use APIs, integrations,&lt;br&gt;adapters&lt;/font&gt;" style="text;html=1;align=left;verticalAlign=middle;resizable=0;points=[];autosize=1;strokeColor=none;fillColor=none;" parent="bFVPSskZjtyiZDLN3V_n-140" vertex="1">
          <mxGeometry x="529.9999999999998" y="290" width="140" height="40" as="geometry" />
        </mxCell>
        <mxCell id="dFPvA1FSlUZvYu8P9tU1-114" value="" style="group" parent="1" vertex="1" connectable="0">
          <mxGeometry x="-1280" y="-1163.34" width="238.35" height="72.88" as="geometry" />
        </mxCell>
        <mxCell id="dFPvA1FSlUZvYu8P9tU1-115" value="" style="rounded=1;whiteSpace=wrap;html=1;strokeColor=#0070F2;strokeWidth=1.5;arcSize=16;fillColor=#FFFFFF;perimeterSpacing=0;absoluteArcSize=1;" parent="dFPvA1FSlUZvYu8P9tU1-114" vertex="1">
          <mxGeometry y="11.44" width="238.35" height="50" as="geometry" />
        </mxCell>
        <mxCell id="dFPvA1FSlUZvYu8P9tU1-116" value="&lt;b style=&quot;font-size: 16px; font-family: arial; background-color: initial;&quot;&gt;Cloud Solutions&lt;/b&gt;" style="text;html=1;align=left;verticalAlign=middle;resizable=0;points=[];autosize=1;strokeColor=none;fillColor=none;fontSize=12;fontColor=#1d2d3e;fontFamily=Helvetica;" parent="dFPvA1FSlUZvYu8P9tU1-114" vertex="1">
          <mxGeometry x="49.99740449114302" y="21.441492085601574" width="150" height="30" as="geometry" />
        </mxCell>
        <mxCell id="dFPvA1FSlUZvYu8P9tU1-117" value="" style="shape=image;verticalLabelPosition=bottom;labelBackgroundColor=default;verticalAlign=top;imageAspect=0;image=data:image/svg+xml,PHN2ZyB4bWxucz0iaHR0cDovL3d3dy53My5vcmcvMjAwMC9zdmciIGZpbGw9Im5vbmUiIHZpZXdCb3g9IjAgMCAxNyAxMiIgaGVpZ2h0PSIxMiIgd2lkdGg9IjE3Ij4mI3hhOzxwYXRoIGZpbGw9InVybCgjcGFpbnQwX2xpbmVhcl83MjRfMTQpIiBkPSJNMTIuMzQ2MSAxMS45OTc0SDMuODE0ODVDMy4zNTY1MiAxMS45OTc0IDIuOTE5MDIgMTEuOTAzNiAyLjUwMjM1IDExLjcxNjJDMi4wODU2OCAxMS41MDc4IDEuNzIxMSAxMS4yMzcgMS40MDg2IDEwLjkwMzZDMS4wOTYxIDEwLjU0OTUgMC44NDYxIDEwLjE0MzIgMC42NTg2IDkuNjg0OTFDMC40OTE5MyA5LjIyNjYxIDAuNDA4NiA4LjczNzAxIDAuNDA4NiA4LjIxNjIxQzAuNDA4NiA3LjcxNjE2IDAuNDkxOTMgNy4yMzY5OSAwLjY1ODYgNi43Nzg2NkMwLjg0NjEgNi4zMjAzMyAxLjA4NTY4IDUuOTI0NDkgMS4zNzczNSA1LjU5MTE2QzEuNjY5MDIgNS4yMzY5OSAyLjAxMjc3IDQuOTY2MTYgMi40MDg2IDQuNzc4NjZDMi44MjUyNyA0LjU3MDMzIDMuMjYyNzcgNC40NjYxNiAzLjcyMTEgNC40NjYxNkMzLjgyNTI3IDMuODQxMTYgNC4wMTI3NyAzLjI1NzgzIDQuMjgzNiAyLjcxNjE2QzQuNTU0NDMgMi4xNTM2NiA0Ljg5ODE4IDEuNjc0NDkgNS4zMTQ4NSAxLjI3ODY2QzUuNzMxNTIgMC44ODI4MzQgNi4yMDAyNyAwLjU3MDMzNCA2LjcyMTEgMC4zNDExNjRDNy4yNjI3NyAwLjExMTk5NCA3LjgyNTI3IC0wLjAwMjU4NjM2IDguNDA4NiAtMC4wMDI1ODYzNkM5LjMwNDQzIC0wLjAwMjU4NjM2IDEwLjEzNzcgMC4yNjgyNDQgMTAuOTA4NiAwLjgwOTkxNEMxMS42Nzk0IDEuMzUxNTggMTIuMjczMSAyLjA4MDc0IDEyLjY4OTggMi45OTc0MUMxMy4yMTA2IDMuMDM5MDggMTMuNzAwMiAzLjE4NDkxIDE0LjE1ODYgMy40MzQ5MUMxNC42MTY5IDMuNjg0OTEgMTUuMDEyOCA0LjAxODI0IDE1LjM0NjEgNC40MzQ5MUMxNS42Nzk1IDQuODMwNzQgMTUuOTM5OCA1LjI4OTA4IDE2LjEyNzMgNS44MDk5MUMxNi4zMTQ4IDYuMzMwNzQgMTYuNDA4NiA2Ljg5MzI0IDE2LjQwODYgNy40OTc0MUMxNi40MDg2IDguMTIyNDEgMTYuMzA0NSA4LjcxNjIxIDE2LjA5NjEgOS4yNzg2MUMxNS44ODc4IDkuODIwMzEgMTUuNTk2MSAxMC4yOTk1IDE1LjIyMTEgMTAuNzE2MkMxNC44NjcgMTEuMTEyIDE0LjQzOTggMTEuNDI0NSAxMy45Mzk4IDExLjY1MzZDMTMuNDM5OCAxMS44ODI4IDEyLjkwODcgMTEuOTk3NCAxMi4zNDYxIDExLjk5NzRaTTMuODE0ODUgNi4wNTk5MUMzLjMxNDg1IDYuMDU5OTEgMi44ODc3NyA2LjI2ODI0IDIuNTMzNiA2LjY4NDkxQzIuMTc5NDMgNy4xMDE1OCAyLjAwMjM1IDcuNjExOTkgMi4wMDIzNSA4LjIxNjIxQzIuMDAyMzUgOC44MjAzMSAyLjE3OTQzIDkuMzQxMjEgMi41MzM2IDkuNzc4NjFDMi44ODc3NyAxMC4xOTUzIDMuMzE0ODUgMTAuNDAzNiAzLjgxNDg1IDEwLjQwMzZIMTIuMzQ2MUMxMy4wMzM3IDEwLjQwMzYgMTMuNjE3IDEwLjEyMjQgMTQuMDk2MSA5LjU1OTkxQzE0LjU3NTMgOC45OTc0MSAxNC44MTQ4IDguMzA5OTEgMTQuODE0OCA3LjQ5NzQxQzE0LjgxNDggNi42NjQwOCAxNC41NzUzIDUuOTY2MTYgMTQuMDk2MSA1LjQwMzY2QzEzLjYxNyA0Ljg0MTE2IDEzLjAzMzcgNC41NTk5MSAxMi4zNDYxIDQuNTU5OTFIMTIuMTI3M0MxMS43NzMxIDQuNTU5OTEgMTEuNTIzMSA0LjM4MjgzIDExLjM3NzMgNC4wMjg2NkMxMS4xMjczIDMuMjk5NDkgMTAuNzMxNSAyLjcxNjE2IDEwLjE4OTggMi4yNzg2NkM5LjY0ODE1IDEuODIwMzMgOS4wNTQ0MyAxLjU5MTE2IDguNDA4NiAxLjU5MTE2QzcuOTcxMSAxLjU5MTE2IDcuNTY0ODUgMS42OTUzMyA3LjE4OTg1IDEuOTAzNjZDNi44MTQ4NSAyLjA5MTE2IDYuNDgxNTIgMi4zNTE1OCA2LjE4OTg1IDIuNjg0OTFDNS45MTkwMiAyLjk5NzQxIDUuNzAwMjcgMy4zODI4MyA1LjUzMzYgMy44NDExNkM1LjM2NjkzIDQuMjc4NjYgNS4yODM2IDQuNzQ3NDEgNS4yODM2IDUuMjQ3NDFDNS4yODM2IDUuNDc2NTggNS4yMDAyNyA1LjY3NDQ5IDUuMDMzNiA1Ljg0MTE2QzQuODg3NzcgNS45ODY5OSA0LjcwMDI3IDYuMDU5OTEgNC40NzExIDYuMDU5OTFIMy44MTQ4NVoiLz4mI3hhOzxkZWZzPiYjeGE7PGxpbmVhckdyYWRpZW50IGdyYWRpZW50VW5pdHM9InVzZXJTcGFjZU9uVXNlIiB5Mj0iMTAuMzM3MyIgeDI9IjE0LjI2MDIiIHkxPSIxLjEyNjIzIiB4MT0iMi40NzY0NiIgaWQ9InBhaW50MF9saW5lYXJfNzI0XzE0Ij4mI3hhOzxzdG9wIHN0b3AtY29sb3I9IiMyMzk1RkYiLz4mI3hhOzxzdG9wIHN0b3AtY29sb3I9IiMwMDU3RDIiIG9mZnNldD0iMSIvPiYjeGE7PC9saW5lYXJHcmFkaWVudD4mI3hhOzwvZGVmcz4mI3hhOzwvc3ZnPg==;strokeWidth=1.5;aspect=fixed;" parent="dFPvA1FSlUZvYu8P9tU1-114" vertex="1">
          <mxGeometry x="10.00074711396223" y="27.582970551297112" width="27.7291005318754" height="17.71592533620521" as="geometry" />
        </mxCell>
        <mxCell id="8l6RRYxQaxA69R045GtP-4" value="&lt;div style=&quot;&quot;&gt;&lt;span style=&quot;background-color: initial;&quot;&gt;&lt;font size=&quot;1&quot; face=&quot;Arial&quot; style=&quot;&quot;&gt;&lt;b style=&quot;font-size: 16px;&quot;&gt;SAP Integration Suite&lt;/b&gt;&lt;/font&gt;&lt;/span&gt;&lt;/div&gt;&lt;span style=&quot;&quot;&gt;&lt;/span&gt;" style="rounded=1;whiteSpace=wrap;html=1;strokeColor=#0070F2;strokeWidth=1.5;arcSize=16;fillColor=#ECF8FF;perimeterSpacing=0;absoluteArcSize=1;container=0;align=left;verticalAlign=top;spacingLeft=45;spacingTop=4;" parent="1" vertex="1">
          <mxGeometry x="-1951.54" y="-1525" width="443" height="605" as="geometry" />
        </mxCell>
        <mxCell id="YePybaSxP1RbHi_yg-6t-13" value="" style="shape=image;verticalLabelPosition=bottom;labelBackgroundColor=default;verticalAlign=top;aspect=fixed;imageAspect=0;image=data:image/svg+xml,PHN2ZyB4bWxucz0iaHR0cDovL3d3dy53My5vcmcvMjAwMC9zdmciIGZpbGw9Im5vbmUiIHZpZXdCb3g9IjAgMCAxNiAxNiIgaGVpZ2h0PSIxNiIgd2lkdGg9IjE2Ij4mI3hhOzxjaXJjbGUgc3Ryb2tlLXdpZHRoPSIwLjI4NTcwOCIgc3Ryb2tlPSIjRDVEQUREIiBmaWxsPSJ1cmwoI3BhaW50MF9saW5lYXJfMzUxNF80MDI2OCkiIHI9IjcuODU2OTYiIGN5PSI3Ljk5NzYyIiBjeD0iNy45OTg4NCIvPiYjeGE7PGcgY2xpcC1wYXRoPSJ1cmwoI2NsaXAwXzM1MTRfNDAyNjgpIj4mI3hhOzxwYXRoIGZpbGw9InVybCgjcGFpbnQxX2xpbmVhcl8zNTE0XzQwMjY4KSIgZD0iTTcuOTQ5NTggMi44OTc3MUM2LjQyNzE1IDIuODk3NzEgNS4yNzc5NSAzLjk2MDAxIDQuOTEzNDkgNS4yMDYwOEM0LjUxMDcgNS4yOTI5NiA0LjE0MjEzIDUuNDc0NDUgMy44MzI3NyA1Ljc0NTc3QzMuMjc3NDcgNi4yMzI3OSAyLjk5OTAyIDYuOTM0MTMgMi45OTkwMiA3LjY1MzAxQzIuOTk5MDIgOC4zMDY1NCAzLjIwOTcgOC45NjQzNCAzLjcxNDYyIDkuNDU4MDNDNC4xMSA5Ljg0NDYzIDQuNjE1OTMgMTAuMDYyNSA1LjE2OTczIDEwLjEzODZWMTAuMDI0MkM1LjE2OTczIDkuNzIwMzUgNS4yODA2NCA5LjQ0MjM4IDUuNDY0MiA5LjIyODU5QzQuOTYzODYgOS4wNzU2MSA0LjU5OTk2IDguNjEwMTkgNC41OTk5NiA4LjA1OTc3VjcuNzIwNzdDNC41OTk5NiA3LjA0NTg1IDUuMTQ3MDkgNi40OTg3MyA1LjgyMiA2LjQ5ODczSDYuMTU5MTdDNi4xNzEwNyA2LjQ5ODczIDYuMTgyOTMgNi40OTg5IDYuMTk0NzUgNi40OTkyNEM2LjE3NTk3IDYuNDE0MTEgNi4xNjYwOCA2LjMyNTY0IDYuMTY2MDggNi4yMzQ4NlY1Ljg5NTg3QzYuMTY2MDggNS4yMjA5NSA2LjcxMzIgNC42NzM4MyA3LjM4ODExIDQuNjczODNINy43MjUyOUM4LjQwMDIgNC42NzM4MyA4Ljk0NzMzIDUuMjIwOTUgOC45NDczMyA1Ljg5NTg3VjYuMTc4NzdDOS4xNzE0OCA1LjkxNTIxIDkuNTA1NTMgNS43NDgwMSA5Ljg3ODYzIDUuNzQ4MDFIMTAuMjE1OEMxMC44OTA3IDUuNzQ4MDEgMTEuNDM3OCA2LjI5NTEzIDExLjQzNzggNi45NzAwNFY3LjMwOTA0QzExLjQzNzggNy42NjM0OCAxMS4yODY5IDcuOTgyNjggMTEuMDQ1OSA4LjIwNTg5QzExLjIzMTIgOC40MjAxMyAxMS4zNDMzIDguNjk5NDUgMTEuMzQzMyA5LjAwNDk1VjkuNDU4QzExLjM0MzMgOS42MjU1NiAxMS4zMDk2IDkuNzg1MjQgMTEuMjQ4NiA5LjkzMDYzQzEyLjIzNDEgOS41MTg2OSAxMi45OTkgOC41OTgwOSAxMi45OTkgNy4yODcyQzEyLjk5OSA1LjgyNDczIDExLjk3ODYgNC42OTQ1NyAxMC43MTMxIDQuNDQzNDlDMTAuMTQzOCAzLjUxNDMgOS4xODIzIDIuODk3NzEgNy45NDk1OCAyLjg5NzcxWiIvPiYjeGE7PHBhdGggZmlsbD0idXJsKCNwYWludDJfcmFkaWFsXzM1MTRfNDAyNjgpIiBkPSJNNy43MjUzMSA1LjE3MTg4QzguMTI0MDggNS4xNzE4OCA4LjQ0NzM0IDUuNDk1MTQgOC40NDczNCA1Ljg5MzkxVjYuMjMyOTFDOC40NDczNCA2LjQ1NjIxIDguMzQ1OTggNi42NTU4NCA4LjE4Njc1IDYuNzg4MjhMOC4zNTM4NCA3LjQ1MDkzSDguMzc3OTRDOC40NDc3IDcuNDUwOTMgOC41MTMzOSA3LjQ2ODM3IDguNTcwODggNy40OTkxM0w5LjE1NjYzIDcuMjAxOTVWNi45NjgxM0M5LjE1NjYzIDYuNTY5MzYgOS40Nzk5IDYuMjQ2MDkgOS44Nzg2NyA2LjI0NjA5SDEwLjIxNThDMTAuNjE0NiA2LjI0NjA5IDEwLjkzNzkgNi41NjkzNiAxMC45Mzc5IDYuOTY4MTNWNy4zMDcxM0MxMC45Mzc5IDcuNzA1OSAxMC42MTQ2IDguMDI5MTcgMTAuMjE1OCA4LjAyOTE3SDkuODc4NjdDOS42NzE4MyA4LjAyOTE3IDkuNDg1MyA3Ljk0MjE5IDkuMzUzNjYgNy44MDI4Mkw4Ljc4NzQ4IDguMDkwMDhWOC4xNjE2Nkw4Ljc4OTM3IDguMTU4NzhMOS4yMTg0MyA4LjQzOTlDOS4zNDIxNSA4LjM0MDQ5IDkuNDk5MzEgOC4yODEwMSA5LjY3MDM2IDguMjgxMDFIMTAuMTIxNEMxMC41MjAyIDguMjgxMDEgMTAuODQzNCA4LjYwNDI3IDEwLjg0MzQgOS4wMDMwNFY5LjQ1NjA5QzEwLjg0MzQgOS44NTQ4NiAxMC41MjAyIDEwLjE3ODEgMTAuMTIxNCAxMC4xNzgxSDkuNjcwMzZDOS4yNzE1OSAxMC4xNzgxIDguOTQ4MzMgOS44NTQ4NiA4Ljk0ODMzIDkuNDU2MDlWOS4wMTAxM0w4LjU2MTUzIDguNzU2N0M4LjUwNjMxIDguNzg0NDQgOC40NDM5NSA4LjgwMDA2IDguMzc3OTQgOC44MDAwNkg4LjA0NDM1TDcuMzc0ODYgOS42OTkwNEM3LjQyMzY1IDkuNzk2MyA3LjQ1MTExIDkuOTA2MTEgNy40NTExMSAxMC4wMjIzVjEwLjM2MTNDNy40NTExMSAxMC43NjAxIDcuMTI3ODQgMTEuMDgzNCA2LjcyOTA3IDExLjA4MzRINi4zOTE5QzUuOTkzMTMgMTEuMDgzNCA1LjY2OTg2IDEwLjc2MDEgNS42Njk4NiAxMC4zNjEzTDUuNjY5ODYgMTAuMDIyM0M1LjY2OTg2IDkuNjIzNTYgNS45OTMxMyA5LjMwMDI5IDYuMzkxOSA5LjMwMDI5SDYuNzI5MDdDNi43ODEwNyA5LjMwMDI5IDYuODMxNzkgOS4zMDU3OSA2Ljg4MDY3IDkuMzE2MjNMNy40NjM4NiA4LjUzMzEzQzcuNDQ3MzYgOC40ODg3MiA3LjQzODM1IDguNDQwNjcgNy40MzgzNSA4LjM5MDUyVjguMjg0NjZMNi44NDUwMSA4LjI4NDY2QzYuNzQ5OTEgOC41NzIzMyA2LjQ3ODg1IDguNzc5OSA2LjE1OTMxIDguNzc5OUg1LjgyMjE0QzUuNDIzMzcgOC43Nzk5IDUuMTAwMSA4LjQ1NjYzIDUuMTAwMSA4LjA1Nzg2TDUuMTAwMSA3LjcxODg2QzUuMTAwMSA3LjMyMDA5IDUuNDIzMzcgNi45OTY4MyA1LjgyMjE0IDYuOTk2ODNINi4xNTkzMUM2LjUzODE1IDYuOTk2ODMgNi44NDg4NCA3LjI4ODU4IDYuODc4OTYgNy42NTk2Nkw3LjQ5MDg3IDcuNjU5NjZDNy41Mzk3NiA3LjU3MjkzIDcuNjE5MzMgNy41MDU4MSA3LjcxNDg1IDcuNDczMDJMNy41ODQyMSA2Ljk1NDk1SDcuMzg4MTNDNi45ODkzNiA2Ljk1NDk1IDYuNjY2MDkgNi42MzE2OCA2LjY2NjA5IDYuMjMyOTFWNS44OTM5MUM2LjY2NjA5IDUuNDk1MTQgNi45ODkzNiA1LjE3MTg4IDcuMzg4MTMgNS4xNzE4OEg3LjcyNTMxWk03LjgyMjM0IDUuODkzOTFDNy44MjIzNCA1Ljg0MDMyIDcuNzc4OSA1Ljc5Njg4IDcuNzI1MzEgNS43OTY4OEw3LjM4ODEzIDUuNzk2ODdDNy4zMzQ1NCA1Ljc5Njg3IDcuMjkxMDkgNS44NDAzMiA3LjI5MTA5IDUuODkzOTFWNi4yMzI5MUM3LjI5MTA5IDYuMjg2NSA3LjMzNDU0IDYuMzI5OTUgNy4zODgxMyA2LjMyOTk1SDcuNzI1MzFDNy43Nzg5IDYuMzI5OTUgNy44MjIzNCA2LjI4NjUgNy44MjIzNCA2LjIzMjkxVjUuODkzOTFaTTEwLjMxMjkgNi45NjgxM0MxMC4zMTI5IDYuOTE0NTQgMTAuMjY5NCA2Ljg3MTA5IDEwLjIxNTggNi44NzEwOUg5Ljg3ODY3QzkuODI1MDggNi44NzEwOSA5Ljc4MTYzIDYuOTE0NTQgOS43ODE2MyA2Ljk2ODEzVjcuMzA3MTNDOS43ODE2MyA3LjM2MDcyIDkuODI1MDggNy40MDQxNyA5Ljg3ODY3IDcuNDA0MTdIMTAuMjE1OEMxMC4yNjk0IDcuNDA0MTcgMTAuMzEyOSA3LjM2MDcyIDEwLjMxMjkgNy4zMDcxM1Y2Ljk2ODEzWk0xMC4yMTg0IDkuMDAzMDRDMTAuMjE4NCA4Ljk0OTQ1IDEwLjE3NSA4LjkwNjAxIDEwLjEyMTQgOC45MDYwMUg5LjY3MDM2QzkuNjE2NzcgOC45MDYwMSA5LjU3MzMzIDguOTQ5NDUgOS41NzMzMyA5LjAwMzA0VjkuNDU2MDlDOS41NzMzMyA5LjUwOTY4IDkuNjE2NzcgOS41NTMxMyA5LjY3MDM2IDkuNTUzMTNIMTAuMTIxNEMxMC4xNzUgOS41NTMxMyAxMC4yMTg0IDkuNTA5NjggMTAuMjE4NCA5LjQ1NjA5VjkuMDAzMDRaTTYuMTU5MzEgNy42MjE4M0M2LjIxMjkgNy42MjE4MyA2LjI1NjM1IDcuNjY1MjcgNi4yNTYzNSA3LjcxODg2VjguMDU3ODZDNi4yNTYzNSA4LjExMTQ2IDYuMjEyOSA4LjE1NDkgNi4xNTkzMSA4LjE1NDlINS44MjIxNEM1Ljc2ODU0IDguMTU0OSA1LjcyNTEgOC4xMTE0NiA1LjcyNTEgOC4wNTc4NlY3LjcxODg2QzUuNzI1MSA3LjY2NTI3IDUuNzY4NTQgNy42MjE4MyA1LjgyMjE0IDcuNjIxODNINi4xNTkzMVpNNi44MjYxMSAxMC4wMjIzQzYuODI2MTEgOS45Njg3NCA2Ljc4MjY3IDkuOTI1MjkgNi43MjkwNyA5LjkyNTI5SDYuMzkxOUM2LjMzODMxIDkuOTI1MjkgNi4yOTQ4NiA5Ljk2ODc0IDYuMjk0ODYgMTAuMDIyM1YxMC4zNjEzQzYuMjk0ODYgMTAuNDE0OSA2LjMzODMxIDEwLjQ1ODQgNi4zOTE5IDEwLjQ1ODRINi43MjkwN0M2Ljc4MjY3IDEwLjQ1ODQgNi44MjYxMSAxMC40MTQ5IDYuODI2MTEgMTAuMzYxM1YxMC4wMjIzWiIgY2xpcC1ydWxlPSJldmVub2RkIiBmaWxsLXJ1bGU9ImV2ZW5vZGQiLz4mI3hhOzxwYXRoIGZpbGw9InVybCgjcGFpbnQzX3JhZGlhbF8zNTE0XzQwMjY4KSIgZD0iTTQuMjU4NzkgMTAuNTIyN0M0LjUwMDQxIDEwLjUyMjcgNC42OTYyOSAxMC43MTg2IDQuNjk2MjkgMTAuOTYwMlYxMS40NjAyQzQuNjk2MjkgMTEuNzcwOSA0Ljk0ODEzIDEyLjAyMjcgNS4yNTg3OSAxMi4wMjI3SDEwLjc1ODhDMTEuMDY5NCAxMi4wMjI3IDExLjMyMTMgMTEuNzcwOSAxMS4zMjEzIDExLjQ2MDJWMTAuOTYwMkMxMS4zMjEzIDEwLjcxODYgMTEuNTE3MiAxMC41MjI3IDExLjc1ODggMTAuNTIyN0MxMi4wMDA0IDEwLjUyMjcgMTIuMTk2MyAxMC43MTg2IDEyLjE5NjMgMTAuOTYwMlYxMS40NjAyQzEyLjE5NjMgMTIuMjU0MSAxMS41NTI3IDEyLjg5NzcgMTAuNzU4OCAxMi44OTc3SDUuMjU4NzlDNC40NjQ4OCAxMi44OTc3IDMuODIxMjkgMTIuMjU0MSAzLjgyMTI5IDExLjQ2MDJWMTAuOTYwMkMzLjgyMTI5IDEwLjcxODYgNC4wMTcxNiAxMC41MjI3IDQuMjU4NzkgMTAuNTIyN1pNMTAuNTIzNCAxMS42Mzc5QzEwLjczMDUgMTEuNjM3OSAxMC44OTg0IDExLjQ3IDEwLjg5ODQgMTEuMjYyOUMxMC44OTg0IDExLjA1NTggMTAuNzMwNSAxMC44ODc5IDEwLjUyMzQgMTAuODg3OUMxMC4zMTYzIDEwLjg4NzkgMTAuMTQ4NCAxMS4wNTU4IDEwLjE0ODQgMTEuMjYyOUMxMC4xNDg0IDExLjQ3IDEwLjMxNjMgMTEuNjM3OSAxMC41MjM0IDExLjYzNzlaTTkuNzQ5NzQgMTEuMjYyOUM5Ljc0OTc0IDExLjQ3IDkuNTgxODUgMTEuNjM3OSA5LjM3NDc0IDExLjYzNzlDOS4xNjc2MyAxMS42Mzc5IDguOTk5NzQgMTEuNDcgOC45OTk3NCAxMS4yNjI5QzguOTk5NzQgMTEuMDU1OCA5LjE2NzYzIDEwLjg4NzkgOS4zNzQ3NCAxMC44ODc5QzkuNTgxODUgMTAuODg3OSA5Ljc0OTc0IDExLjA1NTggOS43NDk3NCAxMS4yNjI5WiIgY2xpcC1ydWxlPSJldmVub2RkIiBmaWxsLXJ1bGU9ImV2ZW5vZGQiLz4mI3hhOzwvZz4mI3hhOzxkZWZzPiYjeGE7PGxpbmVhckdyYWRpZW50IGdyYWRpZW50VW5pdHM9InVzZXJTcGFjZU9uVXNlIiB5Mj0iMTQuNzQ1NiIgeDI9IjEzLjY4NjkiIHkxPSIyLjI2ODciIHgxPSIxLjQ0OTk1IiBpZD0icGFpbnQwX2xpbmVhcl8zNTE0XzQwMjY4Ij4mI3hhOzxzdG9wIHN0b3AtY29sb3I9IndoaXRlIi8+JiN4YTs8c3RvcCBzdG9wLWNvbG9yPSIjRUFFQ0VFIiBvZmZzZXQ9IjEiLz4mI3hhOzwvbGluZWFyR3JhZGllbnQ+JiN4YTs8bGluZWFyR3JhZGllbnQgZ3JhZGllbnRVbml0cz0idXNlclNwYWNlT25Vc2UiIHkyPSIxMC42MzQ0IiB4Mj0iOS4zMTQ0MSIgeTE9IjMuOTgwNTQiIHgxPSI0LjQ5ODA3IiBpZD0icGFpbnQxX2xpbmVhcl8zNTE0XzQwMjY4Ij4mI3hhOzxzdG9wIHN0b3AtY29sb3I9IiMwMTk1RkYiLz4mI3hhOzxzdG9wIHN0b3AtY29sb3I9IiMxMTQ3RTkiIG9mZnNldD0iMC45OTEwMjgiLz4mI3hhOzwvbGluZWFyR3JhZGllbnQ+JiN4YTs8cmFkaWFsR3JhZGllbnQgZ3JhZGllbnRUcmFuc2Zvcm09InRyYW5zbGF0ZSg2LjAwNDA3IDYuMDYxMTcpIHJvdGF0ZSg0NS4zNTk0KSBzY2FsZSg1Ljc4NzI0IDUuMjczMjgpIiBncmFkaWVudFVuaXRzPSJ1c2VyU3BhY2VPblVzZSIgcj0iMSIgY3k9IjAiIGN4PSIwIiBpZD0icGFpbnQyX3JhZGlhbF8zNTE0XzQwMjY4Ij4mI3hhOzxzdG9wIHN0b3AtY29sb3I9IiMxMzQ4RkYiLz4mI3hhOzxzdG9wIHN0b3AtY29sb3I9IiMwNjIzOEQiIG9mZnNldD0iMSIvPiYjeGE7PC9yYWRpYWxHcmFkaWVudD4mI3hhOzxyYWRpYWxHcmFkaWVudCBncmFkaWVudFRyYW5zZm9ybT0idHJhbnNsYXRlKDUuMTE4MTQgMTAuODgpIHJvdGF0ZSgxNS44MzI0KSBzY2FsZSg2LjA2Mzg0IDIuOTAwNzMpIiBncmFkaWVudFVuaXRzPSJ1c2VyU3BhY2VPblVzZSIgcj0iMSIgY3k9IjAiIGN4PSIwIiBpZD0icGFpbnQzX3JhZGlhbF8zNTE0XzQwMjY4Ij4mI3hhOzxzdG9wIHN0b3AtY29sb3I9IiMxMzQ4RkYiLz4mI3hhOzxzdG9wIHN0b3AtY29sb3I9IiMwNjIzOEQiIG9mZnNldD0iMSIvPiYjeGE7PC9yYWRpYWxHcmFkaWVudD4mI3hhOzxjbGlwUGF0aCBpZD0iY2xpcDBfMzUxNF80MDI2OCI+JiN4YTs8cmVjdCB0cmFuc2Zvcm09InRyYW5zbGF0ZSgyLjk5OTAyIDIuODk3NzEpIiBmaWxsPSJ3aGl0ZSIgaGVpZ2h0PSIxMCIgd2lkdGg9IjEwIi8+JiN4YTs8L2NsaXBQYXRoPiYjeGE7PC9kZWZzPiYjeGE7PC9zdmc+;points=[[0,0,0,0,0],[0,0.25,0,0,0],[0,0.5,0,0,0],[0,0.75,0,0,0],[0.25,0,0,0,0],[0.5,0,0,0,0],[0.75,0,0,0,0],[1,0,0,0,0],[1,0.25,0,0,0],[1,0.5,0,0,0],[1,0.75,0,0,0]];container=0;" parent="1" vertex="1">
          <mxGeometry x="-1943.3838041856623" y="-1521.246614242914" width="31.5" height="31.496" as="geometry" />
        </mxCell>
        <mxCell id="dFPvA1FSlUZvYu8P9tU1-21" value="" style="group" parent="1" vertex="1" connectable="0">
          <mxGeometry x="-1917.46" y="-1164.3366055458341" width="379.9200000000001" height="140" as="geometry" />
        </mxCell>
        <mxCell id="dFPvA1FSlUZvYu8P9tU1-22" value="&amp;nbsp;Cloud&amp;nbsp;&lt;span style=&quot;background-color: initial;&quot;&gt;Integration&lt;/span&gt;" style="rounded=1;whiteSpace=wrap;html=1;strokeColor=#0070F2;strokeWidth=1.5;arcSize=16;fillColor=#FFFFFF;perimeterSpacing=0;absoluteArcSize=1;fontStyle=1;fontSize=14;align=left;verticalAlign=top;spacingLeft=40;spacingTop=3;" parent="dFPvA1FSlUZvYu8P9tU1-21" vertex="1">
          <mxGeometry y="1" width="379.92" height="139" as="geometry" />
        </mxCell>
        <mxCell id="dFPvA1FSlUZvYu8P9tU1-24" value="" style="shape=image;verticalLabelPosition=bottom;labelBackgroundColor=default;verticalAlign=top;aspect=fixed;imageAspect=0;image=data:image/svg+xml,PHN2ZyB4bWxucz0iaHR0cDovL3d3dy53My5vcmcvMjAwMC9zdmciIGZpbGw9Im5vbmUiIHZpZXdCb3g9IjAgMCAxNiAxNiIgaGVpZ2h0PSIxNiIgd2lkdGg9IjE2Ij4mI3hhOzxjaXJjbGUgc3Ryb2tlLXdpZHRoPSIwLjI4NTcwOCIgc3Ryb2tlPSIjRDVEQUREIiBmaWxsPSJ1cmwoI3BhaW50MF9saW5lYXJfMzUxNF80MDI3MSkiIHI9IjcuODU2OTYiIGN5PSI3Ljk5NzYyIiBjeD0iNy45OTc2MiIvPiYjeGE7PGcgY2xpcC1wYXRoPSJ1cmwoI2NsaXAwXzM1MTRfNDAyNzEpIj4mI3hhOzxwYXRoIGZpbGw9InVybCgjcGFpbnQxX2xpbmVhcl8zNTE0XzQwMjcxKSIgZD0iTTcuMjYwOTUgMy4zOTc3MUM2LjAxNzkzIDMuMzk3NzEgNS4xMzQ3NyA0LjQwOTUzIDQuOTg3NjMgNS40NjU4OUM0LjU4Nzc5IDUuNDg5NjkgNC4yMzQ3MyA1LjYzOTk2IDMuOTYwNTEgNS44OTIzNkMzLjU4OTU1IDYuMjMzODEgMy4zOTc5NSA2LjcyOTQzIDMuMzk3OTUgNy4yNTIwOUMzLjM5Nzk1IDcuNzM3ODIgMy41NDUyOSA4LjE5Njk0IDMuODc2MDggOC41MzYzOUM0LjIwOTEgOC44NzgxMyA0LjY4MTg5IDkuMDUxMjQgNS4yMzg1OCA5LjA1MTI0SDYuMjE4NDFDNi4zMjIwOCA4LjQ4MTQyIDYuODIwOTIgOC4wNDkzOCA3LjQyMDY2IDguMDQ5MzhINy43NTc4NEM3Ljc2OTc0IDguMDQ5MzggNy43ODE2IDguMDQ5NTUgNy43OTM0MSA4LjA0OTg4QzcuNzc0NjQgNy45NjQ3NSA3Ljc2NDc0IDcuODc2MjkgNy43NjQ3NCA3Ljc4NTUxVjcuNDQ2NTFDNy43NjQ3NCA2Ljc3MTYgOC4zMTE4NyA2LjIyNDQ3IDguOTg2NzggNi4yMjQ0N0g5LjMyMzk1QzkuOTk4ODYgNi4yMjQ0NyAxMC41NDYgNi43NzE2IDEwLjU0NiA3LjQ0NjUxVjcuNzI5NDJDMTAuNzA3MyA3LjUzOTc2IDEwLjkyNTUgNy40IDExLjE3NDIgNy4zMzY1M0MxMS4xOTggNy4yMDI4NSAxMS4yMTA0IDcuMDYyNiAxMS4yMTA0IDYuOTE2MjJDMTEuMjEwNCA1Ljc1OTgzIDEwLjM4NCA0Ljg3MTE2IDkuMzg5MDEgNC43NzcxN0M4Ljk5MDE3IDMuOTUyNDIgOC4yNDk4MiAzLjM5NzcxIDcuMjYwOTUgMy4zOTc3MVoiLz4mI3hhOzxwYXRoIGZpbGw9InVybCgjcGFpbnQyX3JhZGlhbF8zNTE0XzQwMjcxKSIgZD0iTTkuMzIzNyA2LjcyNDYxQzkuNzIyNDcgNi43MjQ2MSAxMC4wNDU3IDcuMDQ3ODggMTAuMDQ1NyA3LjQ0NjY1VjcuNzg1NjVDMTAuMDQ1NyA4LjAwODk1IDkuOTQ0MzcgOC4yMDg1NyA5Ljc4NTE0IDguMzQxMDJMOS45NTIyMyA5LjAwMzY2SDkuOTc2MzNDMTAuMDQ2MSA5LjAwMzY2IDEwLjExMTggOS4wMjExIDEwLjE2OTMgOS4wNTE4N0wxMC43NTUgOC43NTQ2OFY4LjUyMDg3QzEwLjc1NSA4LjEyMjEgMTEuMDc4MyA3Ljc5ODgzIDExLjQ3NzEgNy43OTg4M0gxMS44MTQyQzEyLjIxMyA3Ljc5ODgzIDEyLjUzNjMgOC4xMjIxIDEyLjUzNjMgOC41MjA4N1Y4Ljg1OTg3QzEyLjUzNjMgOS4yNTg2NCAxMi4yMTMgOS41ODE5IDExLjgxNDIgOS41ODE5SDExLjQ3NzFDMTEuMjcwMiA5LjU4MTkgMTEuMDgzNyA5LjQ5NDkzIDEwLjk1MjEgOS4zNTU1NUwxMC4zODU5IDkuNjQyODFWOS43MTQ0TDEwLjM4NzggOS43MTE1MUwxMC44MTY4IDkuOTkyNjNDMTAuOTQwNSA5Ljg5MzIyIDExLjA5NzcgOS44MzM3NCAxMS4yNjg4IDkuODMzNzRIMTEuNzE5OEMxMi4xMTg2IDkuODMzNzQgMTIuNDQxOCAxMC4xNTcgMTIuNDQxOCAxMC41NTU4VjExLjAwODhDMTIuNDQxOCAxMS40MDc2IDEyLjExODYgMTEuNzMwOSAxMS43MTk4IDExLjczMDlIMTEuMjY4OEMxMC44NyAxMS43MzA5IDEwLjU0NjcgMTEuNDA3NiAxMC41NDY3IDExLjAwODhWMTAuNTYyOUwxMC4xNTk5IDEwLjMwOTRDMTAuMTA0NyAxMC4zMzcyIDEwLjA0MjMgMTAuMzUyOCA5Ljk3NjMzIDEwLjM1MjhIOS42NDI3NEw4Ljk3MzI1IDExLjI1MThDOS4wMjIwNCAxMS4zNDkgOS4wNDk1IDExLjQ1ODggOS4wNDk1IDExLjU3NTFWMTEuOTE0MUM5LjA0OTUgMTIuMzEyOCA4LjcyNjIzIDEyLjYzNjEgOC4zMjc0NiAxMi42MzYxSDcuOTkwMjlDNy41OTE1MiAxMi42MzYxIDcuMjY4MjUgMTIuMzEyOCA3LjI2ODI1IDExLjkxNDFMNy4yNjgyNSAxMS41NzUxQzcuMjY4MjUgMTEuMTc2MyA3LjU5MTUyIDEwLjg1MyA3Ljk5MDI5IDEwLjg1M0g4LjMyNzQ2QzguMzc5NDYgMTAuODUzIDguNDMwMTggMTAuODU4NSA4LjQ3OTA2IDEwLjg2OUw5LjA2MjI1IDEwLjA4NTlDOS4wNDU3NSAxMC4wNDE1IDkuMDM2NzQgOS45OTM0MSA5LjAzNjc0IDkuOTQzMjVWOS44MzczOUw4LjQ0MzQgOS44Mzc0QzguMzQ4MyAxMC4xMjUxIDguMDc3MjQgMTAuMzMyNiA3Ljc1NzcgMTAuMzMyNkg3LjQyMDUyQzcuMDIxNzUgMTAuMzMyNiA2LjY5ODQ5IDEwLjAwOTQgNi42OTg0OSA5LjYxMDZMNi42OTg0OSA5LjI3MTZDNi42OTg0OSA4Ljg3MjgzIDcuMDIxNzUgOC41NDk1NiA3LjQyMDUyIDguNTQ5NTZINy43NTc3QzguMTM2NTQgOC41NDk1NiA4LjQ0NzIzIDguODQxMzIgOC40NzczNCA5LjIxMjRMOS4wODkyNiA5LjIxMjM5QzkuMTM4MTUgOS4xMjU2NyA5LjIxNzcyIDkuMDU4NTUgOS4zMTMyNCA5LjAyNTc1TDkuMTgyNiA4LjUwNzY4SDguOTg2NTJDOC41ODc3NSA4LjUwNzY4IDguMjY0NDggOC4xODQ0MiA4LjI2NDQ4IDcuNzg1NjVWNy40NDY2NUM4LjI2NDQ4IDcuMDQ3ODggOC41ODc3NSA2LjcyNDYxIDguOTg2NTIgNi43MjQ2MUg5LjMyMzdaTTkuNDIwNzMgNy40NDY2NUM5LjQyMDczIDcuMzkzMDYgOS4zNzcyOSA3LjM0OTYxIDkuMzIzNyA3LjM0OTYxTDguOTg2NTIgNy4zNDk2MUM4LjkzMjkzIDcuMzQ5NjEgOC44ODk0OCA3LjM5MzA1IDguODg5NDggNy40NDY2NVY3Ljc4NTY1QzguODg5NDggNy44MzkyNCA4LjkzMjkzIDcuODgyNjggOC45ODY1MiA3Ljg4MjY4SDkuMzIzN0M5LjM3NzI5IDcuODgyNjggOS40MjA3MyA3LjgzOTI0IDkuNDIwNzMgNy43ODU2NVY3LjQ0NjY1Wk0xMS45MTEzIDguNTIwODdDMTEuOTExMyA4LjQ2NzI3IDExLjg2NzggOC40MjM4MyAxMS44MTQyIDguNDIzODNIMTEuNDc3MUMxMS40MjM1IDguNDIzODMgMTEuMzggOC40NjcyNyAxMS4zOCA4LjUyMDg3VjguODU5ODZDMTEuMzggOC45MTM0NiAxMS40MjM1IDguOTU2OSAxMS40NzcxIDguOTU2OUgxMS44MTQyQzExLjg2NzggOC45NTY5IDExLjkxMTMgOC45MTM0NiAxMS45MTEzIDguODU5ODZWOC41MjA4N1pNMTEuODE2OCAxMC41NTU4QzExLjgxNjggMTAuNTAyMiAxMS43NzM0IDEwLjQ1ODcgMTEuNzE5OCAxMC40NTg3SDExLjI2ODhDMTEuMjE1MiAxMC40NTg3IDExLjE3MTcgMTAuNTAyMiAxMS4xNzE3IDEwLjU1NThWMTEuMDA4OEMxMS4xNzE3IDExLjA2MjQgMTEuMjE1MiAxMS4xMDU5IDExLjI2ODggMTEuMTA1OUgxMS43MTk4QzExLjc3MzQgMTEuMTA1OSAxMS44MTY4IDExLjA2MjQgMTEuODE2OCAxMS4wMDg4VjEwLjU1NThaTTcuNzU3NyA5LjE3NDU2QzcuODExMjkgOS4xNzQ1NiA3Ljg1NDc0IDkuMjE4MDEgNy44NTQ3NCA5LjI3MTZWOS42MTA2QzcuODU0NzQgOS42NjQxOSA3LjgxMTI5IDkuNzA3NjQgNy43NTc3IDkuNzA3NjRINy40MjA1MkM3LjM2NjkzIDkuNzA3NjQgNy4zMjM0OSA5LjY2NDE5IDcuMzIzNDkgOS42MTA2VjkuMjcxNkM3LjMyMzQ5IDkuMjE4MDEgNy4zNjY5MyA5LjE3NDU2IDcuNDIwNTIgOS4xNzQ1Nkg3Ljc1NzdaTTguNDI0NSAxMS41NzUxQzguNDI0NSAxMS41MjE1IDguMzgxMDUgMTEuNDc4IDguMzI3NDYgMTEuNDc4SDcuOTkwMjlDNy45MzY2OSAxMS40NzggNy44OTMyNSAxMS41MjE1IDcuODkzMjUgMTEuNTc1MVYxMS45MTQxQzcuODkzMjUgMTEuOTY3NyA3LjkzNjcgMTIuMDExMSA3Ljk5MDI5IDEyLjAxMTFIOC4zMjc0NkM4LjM4MTA1IDEyLjAxMTEgOC40MjQ1IDExLjk2NzcgOC40MjQ1IDExLjkxNDFWMTEuNTc1MVoiIGNsaXAtcnVsZT0iZXZlbm9kZCIgZmlsbC1ydWxlPSJldmVub2RkIi8+JiN4YTs8L2c+JiN4YTs8ZGVmcz4mI3hhOzxsaW5lYXJHcmFkaWVudCBncmFkaWVudFVuaXRzPSJ1c2VyU3BhY2VPblVzZSIgeTI9IjE0Ljc0NTYiIHgyPSIxMy42ODU2IiB5MT0iMi4yNjg3IiB4MT0iMS40NDg3MyIgaWQ9InBhaW50MF9saW5lYXJfMzUxNF80MDI3MSI+JiN4YTs8c3RvcCBzdG9wLWNvbG9yPSJ3aGl0ZSIvPiYjeGE7PHN0b3Agc3RvcC1jb2xvcj0iI0VBRUNFRSIgb2Zmc2V0PSIxIi8+JiN4YTs8L2xpbmVhckdyYWRpZW50PiYjeGE7PGxpbmVhckdyYWRpZW50IGdyYWRpZW50VW5pdHM9InVzZXJTcGFjZU9uVXNlIiB5Mj0iOS40NDA1IiB4Mj0iOC4zMjg4NCIgeTE9IjQuMjQzMTYiIHgxPSI0LjU2OTA4IiBpZD0icGFpbnQxX2xpbmVhcl8zNTE0XzQwMjcxIj4mI3hhOzxzdG9wIHN0b3AtY29sb3I9IiMwMTk1RkYiLz4mI3hhOzxzdG9wIHN0b3AtY29sb3I9IiMxMTQ3RTkiIG9mZnNldD0iMC45OTEwMjgiLz4mI3hhOzwvbGluZWFyR3JhZGllbnQ+JiN4YTs8cmFkaWFsR3JhZGllbnQgZ3JhZGllbnRUcmFuc2Zvcm09InRyYW5zbGF0ZSg3LjYwMjQ2IDcuNjEzOSkgcm90YXRlKDQ1LjM1OTQpIHNjYWxlKDUuNzg3MjQgNS4yNzMyOCkiIGdyYWRpZW50VW5pdHM9InVzZXJTcGFjZU9uVXNlIiByPSIxIiBjeT0iMCIgY3g9IjAiIGlkPSJwYWludDJfcmFkaWFsXzM1MTRfNDAyNzEiPiYjeGE7PHN0b3Agc3RvcC1jb2xvcj0iIzEzNDhGRiIvPiYjeGE7PHN0b3Agc3RvcC1jb2xvcj0iIzA2MjM4RCIgb2Zmc2V0PSIxIi8+JiN4YTs8L3JhZGlhbEdyYWRpZW50PiYjeGE7PGNsaXBQYXRoIGlkPSJjbGlwMF8zNTE0XzQwMjcxIj4mI3hhOzxyZWN0IHRyYW5zZm9ybT0idHJhbnNsYXRlKDMuMzk3NzEgMy4zOTc3MSkiIGZpbGw9IndoaXRlIiBoZWlnaHQ9IjEwIiB3aWR0aD0iMTAiLz4mI3hhOzwvY2xpcFBhdGg+JiN4YTs8L2RlZnM+JiN4YTs8L3N2Zz4=;points=[[0,0,0,0,0],[0,0.25,0,0,0],[0,0.5,0,0,0],[0,0.75,0,0,0],[0.25,0,0,0,0],[0.5,0,0,0,0],[0.75,0,0,0,0],[1,0,0,0,0],[1,0.25,0,0,0],[1,0.5,0,0,0],[1,0.75,0,0,0]];" parent="dFPvA1FSlUZvYu8P9tU1-21" vertex="1">
          <mxGeometry x="9.147889220250072" y="8" width="31.57998933333333" height="31.57998933333333" as="geometry" />
        </mxCell>
        <mxCell id="dFPvA1FSlUZvYu8P9tU1-53" value="&lt;div style=&quot;&quot;&gt;Partner&amp;nbsp;&lt;span style=&quot;background-color: initial;&quot;&gt;directory&lt;/span&gt;&lt;/div&gt;&lt;span style=&quot;&quot;&gt;&lt;/span&gt;" style="rounded=1;whiteSpace=wrap;html=1;strokeColor=#0070F2;strokeWidth=1.5;arcSize=16;fillColor=#ECF8FF;perimeterSpacing=0;absoluteArcSize=1;container=0;align=center;verticalAlign=middle;spacingLeft=0;spacingTop=0;" parent="dFPvA1FSlUZvYu8P9tU1-21" vertex="1">
          <mxGeometry x="116.00000000000009" y="37.00000000000005" width="98.425" height="31.496" as="geometry" />
        </mxCell>
        <mxCell id="dFPvA1FSlUZvYu8P9tU1-76" value="&lt;div style=&quot;&quot;&gt;B2B&amp;nbsp;&lt;span style=&quot;background-color: initial;&quot;&gt;monitoring&lt;/span&gt;&lt;/div&gt;&lt;span style=&quot;&quot;&gt;&lt;/span&gt;" style="rounded=1;whiteSpace=wrap;html=1;strokeColor=#0070F2;strokeWidth=1.5;arcSize=16;fillColor=#ECF8FF;perimeterSpacing=0;absoluteArcSize=1;container=0;align=center;verticalAlign=middle;spacingLeft=0;spacingTop=0;" parent="dFPvA1FSlUZvYu8P9tU1-21" vertex="1">
          <mxGeometry x="237" y="37.00000000000005" width="98.425" height="31.496" as="geometry" />
        </mxCell>
        <mxCell id="dFPvA1FSlUZvYu8P9tU1-78" value="Integration flows" style="shape=image;verticalLabelPosition=bottom;verticalAlign=top;imageAspect=0;aspect=fixed;image=data:image/svg+xml,PHN2ZyB4bWxucz0iaHR0cDovL3d3dy53My5vcmcvMjAwMC9zdmciIGZpbGw9Im5vbmUiIHZpZXdCb3g9IjAgMCAxNyAxNyIgaGVpZ2h0PSIxNyIgd2lkdGg9IjE3Ij4mI3hhOzxwYXRoIGZpbGw9InVybCgjcGFpbnQwX2xpbmVhcl8yXzI4ODA5KSIgZD0iTTE0Ljk2MzkgNS4wNTI3M0MxNS4xOTMgNS4xOTg1NyAxNS4zMDc2IDUuMzg2MDcgMTUuMzA3NiA1LjYxNTIzQzE1LjMwNzYgNS42Nzc3MyAxNS4yOTcyIDUuNzI5ODIgMTUuMjc2NCA1Ljc3MTQ4VjEyLjE0NjVDMTUuMjc2NCAxMi40NTkgMTUuMTQxIDEyLjY5ODYgMTQuODcwMSAxMi44NjUyTDguNTI2MzcgMTYuODM0QzguMzgwNTMgMTYuOTE3MyA4LjIyNDI4IDE2Ljk1OSA4LjA1NzYyIDE2Ljk1OUM3Ljg3MDEyIDE2Ljk1OSA3LjczNDcgMTYuOTE3MyA3LjY1MTM3IDE2LjgzNEwxLjI3NjM3IDEyLjg2NTJDMS4xNTEzNyAxMi43ODE5IDEuMDQ3MiAxMi42NjczIDAuOTYzODY3IDEyLjUyMTVDMC45MDEzNjcgMTIuMzc1NyAwLjg3MDExNyAxMi4yNTA3IDAuODcwMTE3IDEyLjE0NjVWNS43NzE0OEMwLjg3MDExNyA1LjQ1ODk4IDEuMDA1NTMgNS4yMTk0IDEuMjc2MzcgNS4wNTI3M0w0LjQ2Mzg3IDMuMDUyNzNDNC42MzA1MyAyLjk5MDIzIDQuNzg2NzggMi45NTg5OCA0LjkzMjYyIDIuOTU4OThDNS4wNzg0NSAyLjk1ODk4IDUuMjEzODcgMi45OTAyMyA1LjMzODg3IDMuMDUyNzNMMTEuNzEzOSA3LjA1MjczQzExLjgxOCA3LjA5NDQgMTEuOTAxNCA3LjE4ODE1IDExLjk2MzkgNy4zMzM5OEMxMi4wNDcyIDcuNDU4OTggMTIuMDg4OSA3LjU3MzU3IDEyLjA4ODkgNy42Nzc3M1YxMC40NTlDMTIuMDg4OSAxMS4wMDA3IDExLjgyODUgMTEuMjcxNSAxMS4zMDc2IDExLjI3MTVDMTEuMDc4NSAxMS4yNzE1IDEwLjg4MDUgMTEuMTk4NiAxMC43MTM5IDExLjA1MjdDMTAuNTY4IDEwLjkwNjkgMTAuNDk1MSAxMC43MDkgMTAuNDk1MSAxMC40NTlWOC4xNDY0OEw0LjkzMjYyIDQuNjQ2NDhMMi41NTc2MiA2LjE3NzczVjExLjY3NzdMOC4xMjAxMiAxNS4xNzc3TDEzLjY4MjYgMTEuNjc3N1Y2LjE3NzczTDcuNzEzODcgMi40Mjc3M0M3LjQ2Mzg3IDIuMjYxMDcgNy4zMzg4NyAyLjA0MjMyIDcuMzM4ODcgMS43NzE0OEM3LjMzODg3IDEuNjY3MzIgNy4zODA1MyAxLjUxMTA3IDcuNDYzODcgMS4zMDI3M0M3LjY1MTM3IDEuMDczNTcgNy44OTA5NSAwLjk1ODk4NCA4LjE4MjYyIDAuOTU4OTg0QzguMzQ5MjggMC45NTg5ODQgOC40ODQ3IDEuMDAwNjUgOC41ODg4NyAxLjA4Mzk4TDE0Ljk2MzkgNS4wNTI3M1pNNy4wMjYzNyAxMS4xNzc3QzcuMjc2MzcgMTEuMzIzNiA3LjQwMTM3IDExLjU0MjMgNy40MDEzNyAxMS44MzRDNy40MDEzNyAxMi4wMDA3IDcuMzU5NyAxMi4xNTY5IDcuMjc2MzcgMTIuMzAyN0M3LjEwOTcgMTIuNTMxOSA2Ljg3MDEyIDEyLjY0NjUgNi41NTc2MiAxMi42NDY1QzYuNDExNzggMTIuNjQ2NSA2LjI3NjM3IDEyLjYxNTIgNi4xNTEzNyAxMi41NTI3TDQuNTU3NjIgMTEuNTg0QzQuMzA3NjIgMTEuNDE3MyA0LjE4MjYyIDExLjIwOSA0LjE4MjYyIDEwLjk1OUM0LjE4MjYyIDEwLjc5MjMgNC4yMzQ3IDEwLjYyNTcgNC4zMzg4NyAxMC40NTlDNC41MjYzNyAxMC4yMjk4IDQuNzU1NTMgMTAuMTE1MiA1LjAyNjM3IDEwLjExNTJDNS4xOTMwMyAxMC4xMTUyIDUuMzI4NDUgMTAuMTU2OSA1LjQzMjYyIDEwLjI0MDJMNy4wMjYzNyAxMS4xNzc3WiIvPiYjeGE7PGRlZnM+JiN4YTs8bGluZWFyR3JhZGllbnQgZ3JhZGllbnRVbml0cz0idXNlclNwYWNlT25Vc2UiIHkyPSI5LjU0NDQ0IiB4Mj0iMTYuMTIwNCIgeTE9IjIuNDY0MDciIHgxPSIyLjczNjAzIiBpZD0icGFpbnQwX2xpbmVhcl8yXzI4ODA5Ij4mI3hhOzxzdG9wIHN0b3AtY29sb3I9IiMyMzk1RkYiLz4mI3hhOzxzdG9wIHN0b3AtY29sb3I9IiMwMDU3RDIiIG9mZnNldD0iMSIvPiYjeGE7PC9saW5lYXJHcmFkaWVudD4mI3hhOzwvZGVmcz4mI3hhOzwvc3ZnPg==" parent="dFPvA1FSlUZvYu8P9tU1-21" vertex="1">
          <mxGeometry x="151.61336709333344" y="85.73" width="27.19826581333333" height="27.19727893866666" as="geometry" />
        </mxCell>
        <mxCell id="dFPvA1FSlUZvYu8P9tU1-179" value="" style="endArrow=blockThin;html=1;strokeColor=#CC00DC;bendable=1;rounded=0;endFill=1;endSize=4;strokeWidth=1.5;startSize=4;startArrow=none;startFill=0;exitX=0.5;exitY=1;exitDx=0;exitDy=0;entryX=0.5;entryY=0;entryDx=0;entryDy=0;" parent="dFPvA1FSlUZvYu8P9tU1-21" source="dFPvA1FSlUZvYu8P9tU1-53" target="dFPvA1FSlUZvYu8P9tU1-78" edge="1">
          <mxGeometry width="50" height="50" relative="1" as="geometry">
            <mxPoint x="183.2125000000001" y="68.4960000000001" as="sourcePoint" />
            <mxPoint x="183.2125000000001" y="85.73000000000002" as="targetPoint" />
          </mxGeometry>
        </mxCell>
        <mxCell id="zcfOwq0cMA0aAQK2KSSR-18" value="&lt;p style=&quot;line-height: 100%; font-size: 16px;&quot;&gt;&lt;b style=&quot;font-size: 16px;&quot;&gt;&lt;font color=&quot;#ffffff&quot; style=&quot;font-size: 16px;&quot; face=&quot;arial black&quot;&gt;6&lt;/font&gt;&lt;/b&gt;&lt;/p&gt;" style="ellipse;whiteSpace=wrap;html=1;aspect=fixed;rotation=0;gradientColor=#0057D2;strokeColor=none;gradientDirection=east;fillColor=#2395FF;rounded=0;pointerEvents=0;fontFamily=Helvetica;fontSize=16;fontColor=default;spacingTop=4;spacingBottom=4;spacingLeft=4;spacingRight=4;verticalAlign=middle;container=0;" parent="dFPvA1FSlUZvYu8P9tU1-21" vertex="1">
          <mxGeometry x="28.460000000000008" y="58.9966055458342" width="27.56" height="27.558999999999997" as="geometry" />
        </mxCell>
        <mxCell id="dFPvA1FSlUZvYu8P9tU1-167" value="" style="endArrow=blockThin;html=1;strokeColor=#475e75;bendable=1;rounded=0;endFill=1;endSize=4;strokeWidth=1.5;startSize=4;startArrow=none;startFill=0;exitX=1;exitY=0.75;exitDx=0;exitDy=0;" parent="1" source="dFPvA1FSlUZvYu8P9tU1-22" target="dFPvA1FSlUZvYu8P9tU1-145" edge="1">
          <mxGeometry width="50" height="50" relative="1" as="geometry">
            <mxPoint x="-1540.08" y="-1130" as="sourcePoint" />
            <mxPoint x="-1346" y="-1322" as="targetPoint" />
            <Array as="points" />
          </mxGeometry>
        </mxCell>
        <mxCell id="dFPvA1FSlUZvYu8P9tU1-170" value="" style="endArrow=blockThin;html=1;strokeColor=#475e75;bendable=1;rounded=0;endFill=1;endSize=4;strokeWidth=1.5;startSize=4;startArrow=none;startFill=0;entryX=0;entryY=0.5;entryDx=0;entryDy=0;entryPerimeter=0;exitX=1;exitY=0.5;exitDx=0;exitDy=0;" parent="1" source="dFPvA1FSlUZvYu8P9tU1-120" target="dFPvA1FSlUZvYu8P9tU1-128" edge="1">
          <mxGeometry width="50" height="50" relative="1" as="geometry">
            <mxPoint x="-1380" y="-1230" as="sourcePoint" />
            <mxPoint x="-1412.61" y="-1219" as="targetPoint" />
          </mxGeometry>
        </mxCell>
        <mxCell id="dFPvA1FSlUZvYu8P9tU1-176" value="&lt;font color=&quot;#475f75&quot; size=&quot;1&quot;&gt;&lt;b style=&quot;&quot;&gt;AS2/SOAP/IDoc&lt;/b&gt;&lt;/font&gt;" style="rounded=1;whiteSpace=wrap;html=1;arcSize=50;strokeColor=#475f75;fillColor=default;strokeWidth=1.5;" parent="1" vertex="1">
          <mxGeometry x="-2241.91" y="-1102.02" width="90" height="16" as="geometry" />
        </mxCell>
        <mxCell id="dFPvA1FSlUZvYu8P9tU1-184" value="" style="endArrow=blockThin;html=1;strokeColor=#475E75;bendable=1;rounded=0;endFill=1;endSize=4;startArrow=blockThin;startFill=1;startSize=4;jumpStyle=none;jumpSize=0;targetPerimeterSpacing=15;strokeWidth=1.5;exitX=1;exitY=0.25;exitDx=0;exitDy=0;entryX=0;entryY=0.5;entryDx=0;entryDy=0;" parent="1" source="dFPvA1FSlUZvYu8P9tU1-22" target="dFPvA1FSlUZvYu8P9tU1-115" edge="1">
          <mxGeometry width="50" height="50" relative="1" as="geometry">
            <mxPoint x="-1485.53" y="-1131" as="sourcePoint" />
            <mxPoint x="-1364.53" y="-1128" as="targetPoint" />
          </mxGeometry>
        </mxCell>
        <mxCell id="dFPvA1FSlUZvYu8P9tU1-185" value="" style="endArrow=blockThin;html=1;strokeColor=#CC00DC;bendable=1;rounded=0;endFill=1;endSize=4;strokeWidth=1.5;startSize=4;exitX=0.495;exitY=1.098;exitDx=0;exitDy=0;exitPerimeter=0;entryX=0.5;entryY=0;entryDx=0;entryDy=0;entryPerimeter=0;" parent="1" target="dFPvA1FSlUZvYu8P9tU1-186" edge="1">
          <mxGeometry width="50" height="50" relative="1" as="geometry">
            <mxPoint x="-2128.75" y="-1275.622" as="sourcePoint" />
            <mxPoint x="-2129.91" y="-1238.17" as="targetPoint" />
            <Array as="points" />
          </mxGeometry>
        </mxCell>
        <mxCell id="dFPvA1FSlUZvYu8P9tU1-187" value="Integration Developer" style="shape=image;verticalLabelPosition=bottom;verticalAlign=top;imageAspect=0;aspect=fixed;image=data:image/svg+xml,PHN2ZyB4bWxucz0iaHR0cDovL3d3dy53My5vcmcvMjAwMC9zdmciIGZpbGw9Im5vbmUiIHZpZXdCb3g9IjAgMCAxNyAxNyIgaGVpZ2h0PSIxNyIgd2lkdGg9IjE3Ij4mI3hhOzxwYXRoIGZpbGw9InVybCgjcGFpbnQwX2xpbmVhcl8yXzI4Nzk4KSIgZD0iTTAuMjEzODY3IDguNTUyNzNDMC4yMTM4NjcgNy40Njk0IDAuNDIyMjAxIDYuNDU4OTggMC44Mzg4NjcgNS41MjE0OEMxLjI1NTUzIDQuNTYzMTUgMS44MTgwMyAzLjcyOTgyIDIuNTI2MzcgMy4wMjE0OEMzLjIzNDcgMi4zMTMxNSA0LjA2ODAzIDEuNzUwNjUgNS4wMjYzNyAxLjMzMzk4QzUuOTg0NyAwLjkxNzMxOCA3LjAwNTUzIDAuNzA4OTg0IDguMDg4ODcgMC43MDg5ODRDOS4xNzIyIDAuNzA4OTg0IDEwLjE4MjYgMC45MTczMTggMTEuMTIwMSAxLjMzMzk4QzEyLjA3ODUgMS43NTA2NSAxMi45MTE4IDIuMzEzMTUgMTMuNjIwMSAzLjAyMTQ4QzE0LjMyODUgMy43Mjk4MiAxNC44OTEgNC41NjMxNSAxNS4zMDc2IDUuNTIxNDhDMTUuNzI0MyA2LjQ1ODk4IDE1LjkzMjYgNy40Njk0IDE1LjkzMjYgOC41NTI3M0MxNS45MzI2IDkuNjM2MDcgMTUuNzI0MyAxMC42NTY5IDE1LjMwNzYgMTEuNjE1MkMxNC44OTEgMTIuNTczNiAxNC4zMjg1IDEzLjQwNjkgMTMuNjIwMSAxNC4xMTUyQzEyLjkxMTggMTQuODIzNiAxMi4wNzg1IDE1LjM4NjEgMTEuMTIwMSAxNS44MDI3QzEwLjE4MjYgMTYuMjE5NCA5LjE3MjIgMTYuNDI3NyA4LjA4ODg3IDE2LjQyNzdDNy4wMDU1MyAxNi40Mjc3IDUuOTg0NyAxNi4yMTk0IDUuMDI2MzcgMTUuODAyN0M0LjA2ODAzIDE1LjM4NjEgMy4yMzQ3IDE0LjgyMzYgMi41MjYzNyAxNC4xMTUyQzEuODE4MDMgMTMuNDA2OSAxLjI1NTUzIDEyLjU3MzYgMC44Mzg4NjcgMTEuNjE1MkMwLjQyMjIwMSAxMC42NTY5IDAuMjEzODY3IDkuNjM2MDcgMC4yMTM4NjcgOC41NTI3M1pNOS42NTEzNyAxMC45Mjc3QzEwLjMxOCAxMC45Mjc3IDEwLjkzMjYgMTEuMDg0IDExLjQ5NTEgMTEuMzk2NUMxMi4wNTc2IDExLjY4ODIgMTIuNTE2IDEyLjA5NDQgMTIuODcwMSAxMi42MTUyQzEzLjM0OTMgMTIuMDczNiAxMy43MTM5IDExLjQ1OSAxMy45NjM5IDEwLjc3MTVDMTQuMjM0NyAxMC4wODQgMTQuMzcwMSA5LjM0NDQgMTQuMzcwMSA4LjU1MjczQzE0LjM3MDEgNy42Nzc3MyAxNC4yMDM1IDYuODY1MjMgMTMuODcwMSA2LjExNTIzQzEzLjUzNjggNS4zNDQ0IDEzLjA4ODkgNC42Nzc3MyAxMi41MjY0IDQuMTE1MjNDMTEuOTYzOSAzLjU1MjczIDExLjI5NzIgMy4xMDQ4MiAxMC41MjY0IDIuNzcxNDhDOS43NzYzNyAyLjQzODE1IDguOTYzODcgMi4yNzE0OCA4LjA4ODg3IDIuMjcxNDhDNy4yMTM4NyAyLjI3MTQ4IDYuMzkwOTUgMi40MzgxNSA1LjYyMDEyIDIuNzcxNDhDNC44NzAxMiAzLjEwNDgyIDQuMjAzNDUgMy41NTI3MyAzLjYyMDEyIDQuMTE1MjNDMy4wNTc2MiA0LjY3NzczIDIuNjA5NyA1LjM0NDQgMi4yNzYzNyA2LjExNTIzQzEuOTQzMDMgNi44NjUyMyAxLjc3NjM3IDcuNjc3NzMgMS43NzYzNyA4LjU1MjczQzEuNzc2MzcgOS4zNDQ0IDEuOTAxMzcgMTAuMDg0IDIuMTUxMzcgMTAuNzcxNUMyLjQyMjIgMTEuNDU5IDIuNzk3MiAxMi4wNzM2IDMuMjc2MzcgMTIuNjE1MkMzLjYzMDUzIDEyLjA5NDQgNC4wODg4NyAxMS42ODgyIDQuNjUxMzcgMTEuMzk2NUM1LjIxMzg3IDExLjA4NCA1LjgyODQ1IDEwLjkyNzcgNi40OTUxMiAxMC45Mjc3SDkuNjUxMzdaTTExLjIxMzkgNi45OTAyM0MxMS4yMTM5IDcuNDI3NzMgMTEuMTMwNSA3Ljg0NDQgMTAuOTYzOSA4LjI0MDIzQzEwLjc5NzIgOC42MTUyMyAxMC41NjggOC45NDg1NyAxMC4yNzY0IDkuMjQwMjNDMTAuMDA1NSA5LjUxMTA3IDkuNjgyNjIgOS43Mjk4MiA5LjMwNzYyIDkuODk2NDhDOC45MzI2MiAxMC4wNjMyIDguNTI2MzcgMTAuMTQ2NSA4LjA4ODg3IDEwLjE0NjVDNy42NTEzNyAxMC4xNDY1IDcuMjM0NyAxMC4wNjMyIDYuODM4ODcgOS44OTY0OEM2LjQ2Mzg3IDkuNzI5ODIgNi4xMzA1MyA5LjUxMTA3IDUuODM4ODcgOS4yNDAyM0M1LjU2ODAzIDguOTQ4NTcgNS4zNDkyOCA4LjYxNTIzIDUuMTgyNjIgOC4yNDAyM0M1LjAxNTk1IDcuODQ0NCA0LjkzMjYyIDcuNDI3NzMgNC45MzI2MiA2Ljk5MDIzQzQuOTMyNjIgNi41NTI3MyA1LjAxNTk1IDYuMTQ2NDggNS4xODI2MiA1Ljc3MTQ4QzUuMzQ5MjggNS4zOTY0OCA1LjU2ODAzIDUuMDYzMTUgNS44Mzg4NyA0Ljc3MTQ4QzYuMTMwNTMgNC40Nzk4MiA2LjQ2Mzg3IDQuMjUwNjUgNi44Mzg4NyA0LjA4Mzk4QzcuMjM0NyAzLjkxNzMyIDcuNjUxMzcgMy44MzM5OCA4LjA4ODg3IDMuODMzOThDOC41MjYzNyAzLjgzMzk4IDguOTMyNjIgMy45MTczMiA5LjMwNzYyIDQuMDgzOThDOS42ODI2MiA0LjI1MDY1IDEwLjAwNTUgNC40Nzk4MiAxMC4yNzY0IDQuNzcxNDhDMTAuNTY4IDUuMDYzMTUgMTAuNzk3MiA1LjM5NjQ4IDEwLjk2MzkgNS43NzE0OEMxMS4xMzA1IDYuMTQ2NDggMTEuMjEzOSA2LjU1MjczIDExLjIxMzkgNi45OTAyM1pNOS42NTEzNyA2Ljk5MDIzQzkuNjUxMzcgNi41NTI3MyA5LjQ5NTEyIDYuMTg4MTUgOS4xODI2MiA1Ljg5NjQ4QzguODcwMTIgNS41ODM5OCA4LjUwNTUzIDUuNDI3NzMgOC4wODg4NyA1LjQyNzczQzcuNjUxMzcgNS40Mjc3MyA3LjI3NjM3IDUuNTgzOTggNi45NjM4NyA1Ljg5NjQ4QzYuNjUxMzcgNi4xODgxNSA2LjQ5NTEyIDYuNTUyNzMgNi40OTUxMiA2Ljk5MDIzQzYuNDk1MTIgNy40Mjc3MyA2LjY1MTM3IDcuODAyNzMgNi45NjM4NyA4LjExNTIzQzcuMjc2MzcgOC40MDY5IDcuNjUxMzcgOC41NTI3MyA4LjA4ODg3IDguNTUyNzNDOC41MDU1MyA4LjU1MjczIDguODcwMTIgOC40MDY5IDkuMTgyNjIgOC4xMTUyM0M5LjQ5NTEyIDcuODAyNzMgOS42NTEzNyA3LjQyNzczIDkuNjUxMzcgNi45OTAyM1pNNC40NjM4NyAxMy43MDlDNC45NjM4NyAxNC4wNjMyIDUuNTE1OTUgMTQuMzQ0NCA2LjEyMDEyIDE0LjU1MjdDNi43NDUxMiAxNC43NjExIDcuNDAxMzcgMTQuODY1MiA4LjA4ODg3IDE0Ljg2NTJDOC43NTU1MyAxNC44NjUyIDkuMzkwOTUgMTQuNzYxMSA5Ljk5NTEyIDE0LjU1MjdDMTAuNjIwMSAxNC4zNDQ0IDExLjE4MjYgMTQuMDYzMiAxMS42ODI2IDEzLjcwOUMxMS40NzQzIDEzLjMzNCAxMS4xODI2IDEzLjA0MjMgMTAuODA3NiAxMi44MzRDMTAuNDUzNSAxMi42MDQ4IDEwLjA2OCAxMi40OTAyIDkuNjUxMzcgMTIuNDkwMkg2LjQ5NTEyQzYuMDc4NDUgMTIuNDkwMiA1LjY4MjYyIDEyLjYwNDggNS4zMDc2MiAxMi44MzRDNC45NTM0NSAxMy4wNDIzIDQuNjcyMiAxMy4zMzQgNC40NjM4NyAxMy43MDlaIi8+JiN4YTs8ZGVmcz4mI3hhOzxsaW5lYXJHcmFkaWVudCBncmFkaWVudFVuaXRzPSJ1c2VyU3BhY2VPblVzZSIgeTI9IjE2LjQyNzciIHgyPSI4LjA3MzI0IiB5MT0iMC43MDg5ODQiIHgxPSI4LjA3MzI0IiBpZD0icGFpbnQwX2xpbmVhcl8yXzI4Nzk4Ij4mI3hhOzxzdG9wIHN0b3AtY29sb3I9IiM1QjczOEIiLz4mI3hhOzxzdG9wIHN0b3AtY29sb3I9IiMyMjM1NDgiIG9mZnNldD0iMSIvPiYjeGE7PC9saW5lYXJHcmFkaWVudD4mI3hhOzwvZGVmcz4mI3hhOzwvc3ZnPg==;strokeWidth=1.5;" parent="1" vertex="1">
          <mxGeometry x="-2142.41" y="-1330.28" width="28" height="28" as="geometry" />
        </mxCell>
        <mxCell id="dFPvA1FSlUZvYu8P9tU1-188" value="" style="endArrow=blockThin;html=1;strokeColor=#CC00DC;bendable=1;rounded=0;endFill=1;endSize=4;strokeWidth=1.5;startSize=4;exitX=1;exitY=0.5;exitDx=0;exitDy=0;exitPerimeter=0;entryX=0;entryY=0.5;entryDx=0;entryDy=0;" parent="1" source="dFPvA1FSlUZvYu8P9tU1-186" target="8l6RRYxQaxA69R045GtP-4" edge="1">
          <mxGeometry width="50" height="50" relative="1" as="geometry">
            <mxPoint x="-2163.41" y="-1228.5" as="sourcePoint" />
            <mxPoint x="-2101.91" y="-1229.28" as="targetPoint" />
          </mxGeometry>
        </mxCell>
        <mxCell id="dFPvA1FSlUZvYu8P9tU1-189" value="&lt;font style=&quot;font-size: 14px;&quot; face=&quot;arial&quot; color=&quot;#5b738b&quot;&gt;&lt;b style=&quot;font-size: 14px;&quot;&gt;NETWORK&lt;/b&gt;&lt;/font&gt;" style="text;html=1;align=center;verticalAlign=middle;resizable=0;points=[];autosize=1;strokeColor=none;fillColor=none;fontSize=14;fontColor=default;fontFamily=Helvetica;" parent="1" vertex="1">
          <mxGeometry x="-1044.0000000000005" y="-1064.9999999999995" width="90" height="29" as="geometry" />
        </mxCell>
        <mxCell id="dFPvA1FSlUZvYu8P9tU1-190" value="" style="endArrow=none;html=1;strokeColor=#5B738B;bendable=1;rounded=1;endFill=0;endSize=3;strokeWidth=3;jumpStyle=gap;entryX=1.152;entryY=-0.368;entryDx=0;entryDy=0;entryPerimeter=0;" parent="1" target="dFPvA1FSlUZvYu8P9tU1-189" edge="1">
          <mxGeometry width="50" height="50" relative="1" as="geometry">
            <mxPoint x="-1313" y="-1079.02" as="sourcePoint" />
            <mxPoint x="-973" y="-1078" as="targetPoint" />
            <Array as="points" />
          </mxGeometry>
        </mxCell>
        <mxCell id="dFPvA1FSlUZvYu8P9tU1-203" value="Identity&#xa;Authentication" style="shape=image;verticalLabelPosition=bottom;labelBackgroundColor=default;verticalAlign=top;aspect=fixed;imageAspect=0;image=data:image/svg+xml,PHN2ZyB4bWxucz0iaHR0cDovL3d3dy53My5vcmcvMjAwMC9zdmciIGZpbGw9Im5vbmUiIHZpZXdCb3g9IjAgMCAxNiAxNiIgaGVpZ2h0PSIxNiIgd2lkdGg9IjE2Ij4mI3hhOzxjaXJjbGUgc3Ryb2tlLXdpZHRoPSIwLjI4NTcwOCIgc3Ryb2tlPSIjRDVEQUREIiBmaWxsPSJ1cmwoI3BhaW50MF9saW5lYXJfMzg5MF8yMTUxMykiIHI9IjcuODU2OTYiIGN5PSI3Ljk5Nzg2IiBjeD0iNy45OTkzMyIvPiYjeGE7PHBhdGggZmlsbD0idXJsKCNwYWludDFfbGluZWFyXzM4OTBfMjE1MTMpIiBkPSJNNy4xNzQ4NCAzLjQxNDlMMTAuMTkzNiA0LjI4NTYxSDEwLjE5MjhDMTAuNDA2NSA0LjM0MjkgMTAuNTEzMyA0LjQ4NDkzIDEwLjUxMzMgNC43MTI0OVY2LjIzMDQ0QzEwLjAxNjEgNi4zNzgwNSA5LjY1MjU1IDYuNzY4MjQgOS41NTU4MyA3LjQ0NTUzQzkuNTU1ODMgNy40NDU1MyA5LjI2OTcxIDcuNDYxODcgOC42MzQ4NiA3LjgwMTE2QzggOC4xNDA0NCA3LjU2MzcxIDguNjkwNTQgNy41NjM3MSA4LjY5MDU0QzcuMTM3NDggOS4xNzM1MSA3LjAzMzEyIDkuNDk2MjYgNy4xODA2NiAxMC4yMDMxQzcuMzcwMDQgMTAuNjQzNyA3LjUzMjQ4IDEwLjgxOTggNy45MDEzMSAxMS4wMzQxQzcuOTAxMzEgMTEuMDM0MSA3Ljg1MTMxIDExLjI5OTYgNy45MDI2NCAxMS43Mzc3QzcuNzU0NzYgMTEuODI3OSA3LjYyNDQgMTEuOTAxNCA3LjUxMTY3IDExLjk1ODZDNy4zNDMwNiAxMi4wNDQyIDcuMjQ3MzkgMTIuMDkyNiA3LjIyNTA2IDEyLjEwMzlDNy4xNTc3IDEyLjEyNjkgNy4xMDE0OSAxMi4xMzgyIDcuMDU2NDUgMTIuMTM4MkM3LjAxMTQgMTIuMTM4MiA2Ljk1NTIgMTIuMTI2NSA2Ljg4NzgzIDEyLjEwMzlDNi44NjUxMSAxMi4wOTI2IDYuNzY5ODQgMTIuMDQ3IDYuNjAxMjIgMTEuOTY3NUM2LjQzMjYxIDExLjg4NzYgNi4yMjQ1MyAxMS43NjU0IDUuOTc3MzggMTEuNjAwM0M1LjczMDI0IDExLjQzNTMgNS40Njg3NCAxMS4yMzMyIDUuMTkzMjkgMTAuOTk0M0M0LjkxNzg1IDEwLjc1NTQgNC42NjE5MyAxMC40NzY2IDQuNDI1OTUgMTAuMTU3OUM0LjE4OTU3IDkuODM5NTQgMy45OTMwNSA5LjQ4MTI1IDMuODM1NTkgOS4wODI2MUMzLjY3ODE0IDguNjg0MzcgMy41OTk2MSA4LjI0NjE5IDMuNTk5NjEgNy43NjgwNlY0LjcxMjQ5QzMuNTk5NjEgNC40ODQ5MyAzLjcwNjQ0IDQuMzQyNSAzLjkyMDEgNC4yODU2MUw2LjkzODg1IDMuNDE0OUM3LjAwNjIyIDMuMzkyMyA3LjA4NDc1IDMuMzkyMyA3LjE3NDg0IDMuNDE0OVoiLz4mI3hhOzxwYXRoIGZpbGw9InVybCgjcGFpbnQyX2xpbmVhcl8zODkwXzIxNTEzKSIgZD0iTTEwLjU1MjUgNy41MTg4OUMxMC41ODk5IDcuMjgwMTcgMTAuODEzNiA3LjExNjkxIDExLjA1MjQgNy4xNTQyNEMxMS45MDg5IDcuMjg4MTkgMTIuNzUxMiA3LjY5NTM3IDEzLjQ0NDEgOC4zOTIwNEMxMy42MTQ1IDguNTYzMzYgMTMuNjEzNyA4Ljg0MDM3IDEzLjQ0MjQgOS4wMTA3NUMxMy4yNzExIDkuMTgxMTQgMTIuOTk0MSA5LjE4MDM3IDEyLjgyMzcgOS4wMDkwNUMxMi4yNjMxIDguNDQ1MzYgMTEuNTkxMSA4LjEyNDEyIDEwLjkxNzIgOC4wMTg3M0MxMC42Nzg1IDcuOTgxNCAxMC41MTUyIDcuNzU3NjEgMTAuNTUyNSA3LjUxODg5WiIgY2xpcC1ydWxlPSJldmVub2RkIiBmaWxsLXJ1bGU9ImV2ZW5vZGQiLz4mI3hhOzxwYXRoIGZpbGw9InVybCgjcGFpbnQzX2xpbmVhcl8zODkwXzIxNTEzKSIgZD0iTTEwLjkzNjIgMTEuMjU0OUMxMC45MzYyIDExLjAxMzMgMTAuNzQwMyAxMC44MTc0IDEwLjQ5ODcgMTAuODE3NEMxMC4yNTcxIDEwLjgxNzQgMTAuMDYxMiAxMS4wMTMzIDEwLjA2MTIgMTEuMjU0OUMxMC4wNjEyIDExLjU5ODUgMTAuMTUzMiAxMS45NjQ2IDEwLjMzNjYgMTIuMjYwOUMxMC4zNTU1IDEyLjI5MTQgMTAuMzc0NiAxMi4zMjE5IDEwLjM5NzYgMTIuMzQ5M0MxMC41Mzk4IDEyLjUxOTUgMTAuNzk3IDEyLjU1ODEgMTAuOTgyNyAxMi40Mjk4QzExLjE4MDUgMTIuMjkzMiAxMS4yMzA4IDEyLjAyMjkgMTEuMDk2MiAxMS44MjQ0QzEwLjk5MSAxMS42NTgzIDEwLjkzNjIgMTEuNDUwMiAxMC45MzYyIDExLjI1NDlaIi8+JiN4YTs8cGF0aCBmaWxsPSJ1cmwoI3BhaW50NF9saW5lYXJfMzg5MF8yMTUxMykiIGQ9Ik0xMy4yODggMTAuOTg0N0MxMy4zMzQxIDkuODU4NSAxMi40NjY4IDguOTE0MzggMTEuNDU3MyA4LjUzNTI5QzEwLjQxMTcgOC4xNDI2IDkuMTAzNzUgOC4zMDQ0NiA4LjE5ODU2IDkuNDgyMTVDOC4wNTEzMSA5LjY3MzcyIDguMDg3MjQgOS45NDgzOSA4LjI3ODgyIDEwLjA5NTZDOC40NzAzOSAxMC4yNDI5IDguNzQ1MDYgMTAuMjA3IDguODkyMzEgMTAuMDE1NEM5LjUyOTQ2IDkuMTg2NDMgMTAuNDEwMiA5LjA3NjcxIDExLjE0OTcgOS4zNTQ0M0MxMS45MjU0IDkuNjQ1NzMgMTIuNDM5NyAxMC4zMTQgMTIuNDEzOCAxMC45NDlDMTIuNDA5IDExLjA2NyAxMi4zNjkyIDExLjEyNjkgMTIuMzM4NiAxMS4xNTY3QzEyLjMwNDMgMTEuMTkwNCAxMi4yNTk5IDExLjIwNzQgMTIuMjE3NiAxMS4yMDgyQzEyLjE3NjEgMTEuMjA5IDEyLjE0NSAxMS4xOTQ3IDEyLjEyNDIgMTEuMTczOUMxMi4xMDY2IDExLjE1NjEgMTIuMDY1NiAxMS4xMDI0IDEyLjA2NTYgMTAuOTY2OUMxMi4wNjU2IDEwLjU5MjYgMTEuODI4MiAxMC4xOTE2IDExLjQ4MzcgOS45MzMwOEMxMS4xMTI4IDkuNjU0NzEgMTAuNTg4MSA5LjUxMjU3IDkuOTcxMzkgOS42ODI3M0w5Ljk2MjM2IDkuNjg1MjJMOS45NTM0NCA5LjY4ODA5QzkuMzYyOTEgOS44Nzg1OSA4Ljk4NjIzIDEwLjQzMDYgOC45MDE2IDExLjA3NTVDOC44MTYxMyAxMS43MjY5IDkuMDE2MjMgMTIuNDkzMSA5LjU2ODMxIDEzLjIzODFDOS43MTIxNyAxMy40MzIyIDkuOTg2MTcgMTMuNDczIDEwLjE4MDMgMTMuMzI5MUMxMC4zNzQ0IDEzLjE4NTMgMTAuNDE1MiAxMi45MTEzIDEwLjI3MTMgMTIuNzE3MUM5LjgyNzkgMTIuMTE4OCA5LjcxODUyIDExLjU3NTMgOS43NjkxNiAxMS4xODk0QzkuODE5OTUgMTAuODAyNCAxMC4wMjAxIDEwLjU5IDEwLjIxNCAxMC41MjM1QzEwLjU2MDUgMTAuNDMwOCAxMC44MDI4IDEwLjUxNiAxMC45NTg1IDEwLjYzMjlDMTEuMDQxOSAxMC42OTU1IDExLjEwMzkgMTAuNzcgMTEuMTQzNCAxMC44Mzk0QzExLjE4NTQgMTAuOTExNCAxMS4xODg5IDEwLjk0OCAxMS4xOTEzIDExLjAxMjhDMTEuMjAwOSAxMS4zMjIzIDExLjMwNzYgMTEuNTkzNyAxMS41MDQgMTEuNzkxMUMxMS43MDY5IDExLjk5NSAxMS45NzQ3IDEyLjA4ODEgMTIuMjM0NSAxMi4wODNDMTIuNzY3IDEyLjA3MjcgMTMuMjYwNiAxMS42NTY4IDEzLjI4OCAxMC45ODQ3WiIvPiYjeGE7PGRlZnM+JiN4YTs8bGluZWFyR3JhZGllbnQgZ3JhZGllbnRVbml0cz0idXNlclNwYWNlT25Vc2UiIHkyPSIxNC43NDU4IiB4Mj0iMTMuNjg3NCIgeTE9IjIuMjY4OTQiIHgxPSIxLjQ1MDQzIiBpZD0icGFpbnQwX2xpbmVhcl8zODkwXzIxNTEzIj4mI3hhOzxzdG9wIHN0b3AtY29sb3I9IndoaXRlIi8+JiN4YTs8c3RvcCBzdG9wLWNvbG9yPSIjRUFFQ0VFIiBvZmZzZXQ9IjEiLz4mI3hhOzwvbGluZWFyR3JhZGllbnQ+JiN4YTs8bGluZWFyR3JhZGllbnQgZ3JhZGllbnRVbml0cz0idXNlclNwYWNlT25Vc2UiIHkyPSI5LjQxNzg5IiB4Mj0iMTAuNTkxOSIgeTE9IjQuNzA1IiB4MT0iNC42MzYiIGlkPSJwYWludDFfbGluZWFyXzM4OTBfMjE1MTMiPiYjeGE7PHN0b3Agc3RvcC1jb2xvcj0iIzAxOTVGRiIvPiYjeGE7PHN0b3Agc3RvcC1jb2xvcj0iIzExNDdFOSIgb2Zmc2V0PSIwLjk5MTAyOCIvPiYjeGE7PC9saW5lYXJHcmFkaWVudD4mI3hhOzxsaW5lYXJHcmFkaWVudCBncmFkaWVudFVuaXRzPSJ1c2VyU3BhY2VPblVzZSIgeTI9IjExLjg3NzMiIHgyPSIxMy4yNjI3IiB5MT0iOC4wNzA4MiIgeDE9IjguOTE1NjUiIGlkPSJwYWludDJfbGluZWFyXzM4OTBfMjE1MTMiPiYjeGE7PHN0b3Agc3RvcC1jb2xvcj0iIzEzNDhGRiIvPiYjeGE7PHN0b3Agc3RvcC1jb2xvcj0iIzA2MjM4RCIgb2Zmc2V0PSIxIi8+JiN4YTs8L2xpbmVhckdyYWRpZW50PiYjeGE7PGxpbmVhckdyYWRpZW50IGdyYWRpZW50VW5pdHM9InVzZXJTcGFjZU9uVXNlIiB5Mj0iMTEuODc3MyIgeDI9IjEzLjI2MjciIHkxPSI4LjA3MDgyIiB4MT0iOC45MTU2NSIgaWQ9InBhaW50M19saW5lYXJfMzg5MF8yMTUxMyI+JiN4YTs8c3RvcCBzdG9wLWNvbG9yPSIjMTM0OEZGIi8+JiN4YTs8c3RvcCBzdG9wLWNvbG9yPSIjMDYyMzhEIiBvZmZzZXQ9IjEiLz4mI3hhOzwvbGluZWFyR3JhZGllbnQ+JiN4YTs8bGluZWFyR3JhZGllbnQgZ3JhZGllbnRVbml0cz0idXNlclNwYWNlT25Vc2UiIHkyPSIxMS44NzczIiB4Mj0iMTMuMjYyNyIgeTE9IjguMDcwODIiIHgxPSI4LjkxNTY1IiBpZD0icGFpbnQ0X2xpbmVhcl8zODkwXzIxNTEzIj4mI3hhOzxzdG9wIHN0b3AtY29sb3I9IiMxMzQ4RkYiLz4mI3hhOzxzdG9wIHN0b3AtY29sb3I9IiMwNjIzOEQiIG9mZnNldD0iMSIvPiYjeGE7PC9saW5lYXJHcmFkaWVudD4mI3hhOzwvZGVmcz4mI3hhOzwvc3ZnPg==;container=0;" parent="1" vertex="1">
          <mxGeometry x="-1914.0044444444443" y="-855.89" width="31.889699999999998" height="31.89" as="geometry" />
        </mxCell>
        <mxCell id="dFPvA1FSlUZvYu8P9tU1-206" style="rounded=0;orthogonalLoop=1;jettySize=auto;html=1;fontSize=18;strokeColor=#188918;fontFamily=Helvetica;fontColor=default;targetPerimeterSpacing=15;endSize=4;startSize=4;endArrow=blockThin;endFill=1;strokeWidth=1.5;startArrow=blockThin;startFill=1;exitX=1;exitY=0.5;exitDx=0;exitDy=0;edgeStyle=orthogonalEdgeStyle;entryX=0.5;entryY=1;entryDx=0;entryDy=0;" parent="1" source="dFPvA1FSlUZvYu8P9tU1-202" target="8l6RRYxQaxA69R045GtP-2" edge="1">
          <mxGeometry relative="1" as="geometry">
            <mxPoint x="-1730" y="-899" as="targetPoint" />
            <mxPoint x="-1659.96" y="-757.79" as="sourcePoint" />
          </mxGeometry>
        </mxCell>
        <mxCell id="dFPvA1FSlUZvYu8P9tU1-209" value="&lt;font color=&quot;#188918&quot; size=&quot;1&quot;&gt;&lt;b style=&quot;&quot;&gt;OIDC&lt;/b&gt;&lt;/font&gt;" style="rounded=1;whiteSpace=wrap;html=1;arcSize=50;strokeColor=#188918;fillColor=#f5fae5;fontColor=#266f3a;strokeWidth=1.5;" parent="1" vertex="1">
          <mxGeometry x="-1718.68" y="-834.79" width="43.72" height="15.79" as="geometry" />
        </mxCell>
        <mxCell id="dFPvA1FSlUZvYu8P9tU1-177" value="" style="endArrow=blockThin;html=1;strokeColor=#475E75;bendable=1;rounded=0;endFill=1;endSize=4;startArrow=blockThin;startFill=1;startSize=4;jumpStyle=gap;jumpSize=6;targetPerimeterSpacing=15;strokeWidth=1.5;exitX=1;exitY=0.5;exitDx=0;exitDy=0;entryX=0;entryY=0.5;entryDx=0;entryDy=0;" parent="1" source="dFPvA1FSlUZvYu8P9tU1-176" target="dFPvA1FSlUZvYu8P9tU1-22" edge="1">
          <mxGeometry width="50" height="50" relative="1" as="geometry">
            <mxPoint x="-2081" y="-997" as="sourcePoint" />
            <mxPoint x="-1961" y="-997" as="targetPoint" />
          </mxGeometry>
        </mxCell>
        <mxCell id="dFPvA1FSlUZvYu8P9tU1-196" style="rounded=0;orthogonalLoop=1;jettySize=auto;html=1;fontSize=18;strokeColor=#188918;fontFamily=Helvetica;fontColor=default;targetPerimeterSpacing=15;endSize=4;startSize=4;endArrow=none;endFill=0;strokeWidth=1.5;startArrow=blockThin;startFill=1;exitX=0;exitY=0.5;exitDx=0;exitDy=0;edgeStyle=orthogonalEdgeStyle;jumpStyle=gap;" parent="1" source="dFPvA1FSlUZvYu8P9tU1-202" edge="1">
          <mxGeometry relative="1" as="geometry">
            <mxPoint x="-2125" y="-1207" as="targetPoint" />
            <mxPoint x="-2022.6100000000001" y="-826.4200000000001" as="sourcePoint" />
          </mxGeometry>
        </mxCell>
        <mxCell id="_FdFY5pbQAiYYbf3v4dS-109" value="&lt;font color=&quot;#188918&quot; size=&quot;1&quot;&gt;&lt;b style=&quot;&quot;&gt;SAML2/OIDC&lt;/b&gt;&lt;/font&gt;" style="rounded=1;whiteSpace=wrap;html=1;arcSize=50;strokeColor=#188918;fillColor=#f5fae5;fontColor=#266f3a;strokeWidth=1.5;" parent="1" vertex="1">
          <mxGeometry x="-2171.69" y="-835" width="84.56" height="15.79" as="geometry" />
        </mxCell>
        <mxCell id="dFPvA1FSlUZvYu8P9tU1-210" value="" style="endArrow=none;html=1;strokeColor=#CC00DC;bendable=1;rounded=0;endFill=0;endSize=4;startArrow=blockThin;startFill=1;startSize=4;jumpStyle=none;jumpSize=0;targetPerimeterSpacing=15;strokeWidth=1.5;exitX=1;exitY=0.5;exitDx=0;exitDy=0;entryX=0;entryY=0.5;entryDx=0;entryDy=0;entryPerimeter=0;" parent="1" source="8l6RRYxQaxA69R045GtP-4" target="1nddzdw7vivYGaLFLm3b-1" edge="1">
          <mxGeometry width="50" height="50" relative="1" as="geometry">
            <mxPoint x="-1646.313" y="-895.5799999999999" as="sourcePoint" />
            <mxPoint x="-1275" y="-960" as="targetPoint" />
          </mxGeometry>
        </mxCell>
        <mxCell id="dFPvA1FSlUZvYu8P9tU1-212" value="" style="group" parent="1" vertex="1" connectable="0">
          <mxGeometry x="-1917.46025" y="-1480.5" width="379.92049999999995" height="139" as="geometry" />
        </mxCell>
        <mxCell id="dFPvA1FSlUZvYu8P9tU1-13" value="&amp;nbsp; Integration Advisor" style="rounded=1;whiteSpace=wrap;html=1;strokeColor=#0070F2;strokeWidth=1.5;arcSize=16;fillColor=#FFFFFF;perimeterSpacing=0;absoluteArcSize=1;fontStyle=1;fontSize=14;align=left;verticalAlign=top;spacingLeft=40;spacingTop=3;" parent="dFPvA1FSlUZvYu8P9tU1-212" vertex="1">
          <mxGeometry width="379.9205" height="139" as="geometry" />
        </mxCell>
        <mxCell id="dFPvA1FSlUZvYu8P9tU1-17" value="" style="shape=image;verticalLabelPosition=bottom;labelBackgroundColor=default;verticalAlign=top;aspect=fixed;imageAspect=0;image=data:image/svg+xml,PHN2ZyB4bWxucz0iaHR0cDovL3d3dy53My5vcmcvMjAwMC9zdmciIGZpbGw9Im5vbmUiIHZpZXdCb3g9IjAgMCAxNiAxNiIgaGVpZ2h0PSIxNiIgd2lkdGg9IjE2Ij4mI3hhOzxjaXJjbGUgc3Ryb2tlLXdpZHRoPSIwLjI4NTcwOCIgc3Ryb2tlPSIjRDVEQUREIiBmaWxsPSJ1cmwoI3BhaW50MF9saW5lYXJfMzUxNF80MDI3MykiIHI9IjcuODU2OTYiIGN5PSI3Ljk5NzYyIiBjeD0iNy45OTY4OSIvPiYjeGE7PGcgY2xpcC1wYXRoPSJ1cmwoI2NsaXAwXzM1MTRfNDAyNzMpIj4mI3hhOzxwYXRoIGZpbGw9InVybCgjcGFpbnQxX2xpbmVhcl8zNTE0XzQwMjczKSIgZD0iTTEwLjMwNzQgNi41MjQ2NEM5LjQ1MDA2IDYuNzg3MTEgOC44MDMwNiA3LjYxMTM0IDguODAzMDYgOC41MzUxNkM4LjgwMzA2IDkuMTQ4MzkgOS4wOTc1NCA5LjU1NjE3IDkuMjc2MTkgOS44MDM1N0w5LjI5OTUgOS44MzU4OUw5LjMwMjY0IDkuODQwMjJDOS4zMTkyOCA5Ljg2MzEyIDkuMzM0ODcgOS44ODQ3IDkuMzQ5NDYgOS45MDUxM0M5LjIyNDYyIDkuODM2NTUgOS4wODEyNCA5Ljc5NzU0IDguOTI4NzQgOS43OTc1NEw4LjM3MzQ0IDkuNzk3NTVDOC4xNDA5OSA5LjM5MzEyIDcuNzA0ODUgOS4xMjA5MyA3LjIwNDkgOS4xMjA5M0g2Ljc1MTg1QzYuMDkwMzggOS4xMjA5MyA1LjU0MDI2IDkuNTk3NzIgNS40MjY0MiAxMC4yMjY0SDUuMDM3NjVDNC40ODA5NiAxMC4yMjY0IDQuMDA4MTcgMTAuMDUzIDMuNjc1MTUgOS43MTA4N0MzLjM0NDM2IDkuMzcwOTkgMy4xOTcwMiA4LjkxMTI5IDMuMTk3MDIgOC40MjQ5NEMzLjE5NzAyIDcuOTAxNjIgMy4zODg2MiA3LjQwNTM3IDMuNzU5NTkgNy4wNjM0OUM0LjAzMzggNi44MTA3NyA0LjM4Njg2IDYuNjYwMzEgNC43ODY3MSA2LjYzNjQ4QzQuOTMzODUgNS41Nzg3OCA1LjgxNyA0LjU2NTY3IDcuMDYwMDIgNC41NjU2N0M4LjA0ODg5IDQuNTY1NjcgOC43ODkyNSA1LjEyMTA5IDkuMTg4MDkgNS45NDY4OUM5LjU0ODIxIDUuOTgwOTUgOS44ODYyNiA2LjExOTI1IDEwLjE3MSA2LjMzNjc3QzEwLjIwODEgNi40MDU0MyAxMC4yNTQxIDYuNDY4NTcgMTAuMzA3NCA2LjUyNDY0WiIvPiYjeGE7PHBhdGggZmlsbD0idXJsKCNwYWludDJfbGluZWFyXzM1MTRfNDAyNzMpIiBkPSJNMTAuMjE2MyAxMC41MzU2QzEwLjI1MzggMTAuNTc2OSAxMC4zMDQgMTAuNTk4OSAxMC4zNTY2IDEwLjU5ODlMMTEuNDg0MSAxMC41NzY5QzExLjU5NDMgMTAuNTc0MSAxMS42ODIgMTAuNDc3OCAxMS42ODIgMTAuMzU2OEMxMS42ODIgOS45Nzk1NyAxMS44NDI3IDkuNzYyNTYgMTIuMDI2NiA5LjUxNDI2TDEyLjAzMDMgOS41MDkyNUMxMi4yMTU3IDkuMjYxNiAxMi40MjM3IDguOTgwOTMgMTIuNDIzNyA4LjU0MzQyQzEyLjQyMzcgNy43MjYxOCAxMS43Mjk2IDcuMDEwNzQgMTAuOTI1MyA3LjAxMDc0QzEwLjEyMTEgNy4wMTA3NCA5LjQxNjk5IDcuNzIzNDIgOS40MTY5OSA4LjUzNTE2QzkuNDE2OTkgOC45NjIyNCA5LjYxNzY2IDkuMjQwNjIgOS43OTU3NiA5LjQ4NzY5QzkuNzk4OTcgOS40OTIxNCA5LjgwMjE2IDkuNDk2NTcgOS44MDUzNSA5LjUwMUw5LjgwNzE3IDkuNTAzNUM5Ljk5NDMyIDkuNzYxMDkgMTAuMTU2MSA5Ljk4MzgyIDEwLjE1NjEgMTAuMzc4OEMxMC4xNTYxIDEwLjQzNjYgMTAuMTc4NyAxMC40OTQzIDEwLjIxNjMgMTAuNTM1NloiLz4mI3hhOzxwYXRoIGZpbGw9InVybCgjcGFpbnQzX2xpbmVhcl8zNTE0XzQwMjczKSIgZD0iTTEwLjMyODggMTEuMDEzOEMxMC4yMzY3IDExLjA2NDcgMTAuMTczMyAxMS4xNjE1IDEwLjE2OTYgMTEuMjczNUwxMC4xNjk0IDExLjI4NDFDMTAuMTY5NCAxMS40NTQ1IDEwLjMwNzMgMTEuNTkyNyAxMC40Nzc0IDExLjU5MjdIMTEuNDYwOUMxMS42MzEgMTEuNTkyNyAxMS43Njg5IDExLjQ1NDUgMTEuNzY4OSAxMS4yODQxQzExLjc2ODkgMTEuMjc0MiAxMS43Njg0IDExLjI2NDMgMTEuNzY3NSAxMS4yNTQ2QzExLjc1OTEgMTEuMTY1NiAxMS43MTI5IDExLjA4NzYgMTEuNjQ1MiAxMS4wMzY5TDExLjY0MjYgMTEuMDM0OUMxMS41OTE2IDEwLjk5NzYgMTEuNTI4OCAxMC45NzU2IDExLjQ2MDkgMTAuOTc1NkgxMC40Nzc0QzEwLjQyNjkgMTAuOTc1NiAxMC4zNzkyIDEwLjk4NzggMTAuMzM3MSAxMS4wMDk0TDEwLjMyODggMTEuMDEzOFoiLz4mI3hhOzxwYXRoIGZpbGw9InVybCgjcGFpbnQ0X2xpbmVhcl8zNTE0XzQwMjczKSIgZD0iTTEwLjY5MTUgNC45MjAwNkMxMC4yOTQ0IDQuOTE4MDggOS45NzMxMiA0LjU5NTU4IDkuOTczMTIgNC4xOTgwM1YzLjc0NDk5QzkuOTczMTIgMy4zNDYyMiAxMC4yOTY0IDMuMDIyOTUgMTAuNjk1MiAzLjAyMjk1SDExLjE0NjJDMTEuNTQ1IDMuMDIyOTUgMTEuODY4MiAzLjM0NjIyIDExLjg2ODIgMy43NDQ5OVY0LjE5ODAzQzExLjg2ODIgNC41ODE2IDExLjU2OTIgNC44OTUzMSAxMS4xOTE1IDQuOTE4NjhMMTEuMTkxNSA1LjkyMTQzQzExLjE5MTUgNi4wNTk1IDExLjA3OTYgNi4xNzE0MyAxMC45NDE1IDYuMTcxNDNDMTAuODAzNCA2LjE3MTQzIDEwLjY5MTUgNi4wNTk1IDEwLjY5MTUgNS45MjE0M0wxMC42OTE1IDQuOTIwMDZaTTEwLjY5NTIgNC4yOTUwN0MxMC42NDE2IDQuMjk1MDcgMTAuNTk4MSA0LjI1MTYzIDEwLjU5ODEgNC4xOTgwM1YzLjc0NDk5QzEwLjU5ODEgMy42OTEzOSAxMC42NDE2IDMuNjQ3OTUgMTAuNjk1MiAzLjY0Nzk1TDExLjE0NjIgMy42NDc5NUMxMS4xOTk4IDMuNjQ3OTUgMTEuMjQzMiAzLjY5MTM5IDExLjI0MzIgMy43NDQ5OVY0LjE5ODAzQzExLjI0MzIgNC4yNTE2MyAxMS4xOTk4IDQuMjk1MDcgMTEuMTQ2MiA0LjI5NTA3SDEwLjY5NTJaIiBjbGlwLXJ1bGU9ImV2ZW5vZGQiIGZpbGwtcnVsZT0iZXZlbm9kZCIvPiYjeGE7PHBhdGggZmlsbD0idXJsKCNwYWludDVfbGluZWFyXzM1MTRfNDAyNzMpIiBkPSJNNy45MjcxNCAxMC45MjI5QzcuOTI1MjMgMTEuMzIwMSA3LjYwMjcgMTEuNjQxNCA3LjIwNTExIDExLjY0MTRINi43NTIwN0M2LjM1MzMgMTEuNjQxNCA2LjAzMDAzIDExLjMxODEgNi4wMzAwMyAxMC45MTk0VjEwLjQ2ODNDNi4wMzAwMyAxMC4wNjk2IDYuMzUzMyA5Ljc0NjMgNi43NTIwNyA5Ljc0NjNINy4yMDUxMUM3LjU4ODYzIDkuNzQ2MyA3LjkwMjMxIDEwLjA0NTMgNy45MjU3NSAxMC40MjI5TDguOTI4OTcgMTAuNDIyOUM5LjA2NzA0IDEwLjQyMjkgOS4xNzg5NyAxMC41MzQ4IDkuMTc4OTcgMTAuNjcyOUM5LjE3ODk3IDEwLjgxMSA5LjA2NzA1IDEwLjkyMjkgOC45Mjg5OCAxMC45MjI5TDcuOTI3MTQgMTAuOTIyOVpNNy4zMDIxNSAxMC45MTk0QzcuMzAyMTUgMTAuOTczIDcuMjU4NzEgMTEuMDE2NCA3LjIwNTExIDExLjAxNjRINi43NTIwN0M2LjY5ODQ3IDExLjAxNjQgNi42NTUwMyAxMC45NzMgNi42NTUwMyAxMC45MTk0TDYuNjU1MDMgMTAuNDY4M0M2LjY1NTAzIDEwLjQxNDcgNi42OTg0NyAxMC4zNzEzIDYuNzUyMDcgMTAuMzcxM0g3LjIwNTExQzcuMjU4NzEgMTAuMzcxMyA3LjMwMjE1IDEwLjQxNDcgNy4zMDIxNSAxMC40NjgzTDcuMzAyMTUgMTAuOTE5NFoiIGNsaXAtcnVsZT0iZXZlbm9kZCIgZmlsbC1ydWxlPSJldmVub2RkIi8+JiN4YTs8L2c+JiN4YTs8ZGVmcz4mI3hhOzxsaW5lYXJHcmFkaWVudCBncmFkaWVudFVuaXRzPSJ1c2VyU3BhY2VPblVzZSIgeTI9IjE0Ljc0NTYiIHgyPSIxMy42ODQ5IiB5MT0iMi4yNjg3IiB4MT0iMS40NDc5OSIgaWQ9InBhaW50MF9saW5lYXJfMzUxNF80MDI3MyI+JiN4YTs8c3RvcCBzdG9wLWNvbG9yPSJ3aGl0ZSIvPiYjeGE7PHN0b3Agc3RvcC1jb2xvcj0iI0VBRUNFRSIgb2Zmc2V0PSIxIi8+JiN4YTs8L2xpbmVhckdyYWRpZW50PiYjeGE7PGxpbmVhckdyYWRpZW50IGdyYWRpZW50VW5pdHM9InVzZXJTcGFjZU9uVXNlIiB5Mj0iMTAuMjY1NSIgeDI9IjguMTI1MzUiIHkxPSI1LjQxMjIiIHgxPSI0LjI2MjkiIGlkPSJwYWludDFfbGluZWFyXzM1MTRfNDAyNzMiPiYjeGE7PHN0b3Agc3RvcC1jb2xvcj0iIzAxOTVGRiIvPiYjeGE7PHN0b3Agc3RvcC1jb2xvcj0iIzExNDdFOSIgb2Zmc2V0PSIwLjk5MTAyOCIvPiYjeGE7PC9saW5lYXJHcmFkaWVudD4mI3hhOzxsaW5lYXJHcmFkaWVudCBncmFkaWVudFVuaXRzPSJ1c2VyU3BhY2VPblVzZSIgeTI9IjkuNjI2ODMiIHgyPSIxMi44MDgyIiB5MT0iNy42ODQ4NCIgeDE9IjkuODYxNTEiIGlkPSJwYWludDJfbGluZWFyXzM1MTRfNDAyNzMiPiYjeGE7PHN0b3Agc3RvcC1jb2xvcj0iIzEzNDhGRiIvPiYjeGE7PHN0b3Agc3RvcC1jb2xvcj0iIzA2MjM4RCIgb2Zmc2V0PSIxIi8+JiN4YTs8L2xpbmVhckdyYWRpZW50PiYjeGE7PGxpbmVhckdyYWRpZW50IGdyYWRpZW50VW5pdHM9InVzZXJTcGFjZU9uVXNlIiB5Mj0iOS42MjY4MyIgeDI9IjEyLjgwODIiIHkxPSI3LjY4NDg0IiB4MT0iOS44NjE1MSIgaWQ9InBhaW50M19saW5lYXJfMzUxNF80MDI3MyI+JiN4YTs8c3RvcCBzdG9wLWNvbG9yPSIjMTM0OEZGIi8+JiN4YTs8c3RvcCBzdG9wLWNvbG9yPSIjMDYyMzhEIiBvZmZzZXQ9IjEiLz4mI3hhOzwvbGluZWFyR3JhZGllbnQ+JiN4YTs8bGluZWFyR3JhZGllbnQgZ3JhZGllbnRVbml0cz0idXNlclNwYWNlT25Vc2UiIHkyPSI4LjEwODY1IiB4Mj0iMTIuNTA2NSIgeTE9IjQuMzE2IiB4MT0iNi45MDM3NiIgaWQ9InBhaW50NF9saW5lYXJfMzUxNF80MDI3MyI+JiN4YTs8c3RvcCBzdG9wLWNvbG9yPSIjMDBCQkZGIi8+JiN4YTs8c3RvcCBzdG9wLWNvbG9yPSIjMDA4QkZGIiBvZmZzZXQ9IjEiLz4mI3hhOzwvbGluZWFyR3JhZGllbnQ+JiN4YTs8bGluZWFyR3JhZGllbnQgZ3JhZGllbnRVbml0cz0idXNlclNwYWNlT25Vc2UiIHkyPSI4LjEwODY1IiB4Mj0iMTIuNTA2NSIgeTE9IjQuMzE2IiB4MT0iNi45MDM3NiIgaWQ9InBhaW50NV9saW5lYXJfMzUxNF80MDI3MyI+JiN4YTs8c3RvcCBzdG9wLWNvbG9yPSIjMDBCQkZGIi8+JiN4YTs8c3RvcCBzdG9wLWNvbG9yPSIjMDA4QkZGIiBvZmZzZXQ9IjEiLz4mI3hhOzwvbGluZWFyR3JhZGllbnQ+JiN4YTs8Y2xpcFBhdGggaWQ9ImNsaXAwXzM1MTRfNDAyNzMiPiYjeGE7PHJlY3QgdHJhbnNmb3JtPSJ0cmFuc2xhdGUoMy4xOTcwMiAyLjM5NzcxKSIgZmlsbD0id2hpdGUiIGhlaWdodD0iMTAiIHdpZHRoPSI5Ljk5OTgiLz4mI3hhOzwvY2xpcFBhdGg+JiN4YTs8L2RlZnM+JiN4YTs8L3N2Zz4=;points=[[0,0,0,0,0],[0,0.25,0,0,0],[0,0.5,0,0,0],[0,0.75,0,0,0],[0.25,0,0,0,0],[0.5,0,0,0,0],[0.75,0,0,0,0],[1,0,0,0,0],[1,0.25,0,0,0],[1,0.5,0,0,0],[1,0.75,0,0,0]];" parent="dFPvA1FSlUZvYu8P9tU1-212" vertex="1">
          <mxGeometry x="10.462496144893766" y="7.5" width="31.89" height="31.889699999999998" as="geometry" />
        </mxCell>
        <mxCell id="dFPvA1FSlUZvYu8P9tU1-163" value="" style="group" parent="dFPvA1FSlUZvYu8P9tU1-212" vertex="1" connectable="0">
          <mxGeometry x="62.46025000000009" y="35" width="283.5" height="94.50000000000006" as="geometry" />
        </mxCell>
        <mxCell id="dFPvA1FSlUZvYu8P9tU1-37" value="&lt;div style=&quot;&quot;&gt;&lt;br&gt;&lt;/div&gt;&lt;span style=&quot;&quot;&gt;&lt;/span&gt;" style="rounded=1;whiteSpace=wrap;html=1;strokeColor=#0070F2;strokeWidth=1.5;arcSize=16;fillColor=#ECF8FF;perimeterSpacing=0;absoluteArcSize=1;container=0;align=left;verticalAlign=top;spacingLeft=45;spacingTop=4;dashed=1;" parent="dFPvA1FSlUZvYu8P9tU1-163" vertex="1">
          <mxGeometry width="200" height="92.13" as="geometry" />
        </mxCell>
        <mxCell id="dFPvA1FSlUZvYu8P9tU1-27" value="" style="shape=image;verticalLabelPosition=bottom;verticalAlign=top;imageAspect=0;aspect=fixed;image=data:image/svg+xml,PHN2ZyB4bWxucz0iaHR0cDovL3d3dy53My5vcmcvMjAwMC9zdmciIGZpbGw9Im5vbmUiIHZpZXdCb3g9IjAgMCAxNyAxNiIgaGVpZ2h0PSIxNiIgd2lkdGg9IjE3Ij4mI3hhOzxnIGNsaXAtcGF0aD0idXJsKCNjbGlwMF82OTNfMTIyMikiPiYjeGE7PHBhdGggZmlsbD0idXJsKCNwYWludDBfbGluZWFyXzY5M18xMjIyKSIgZD0iTTE2LjE1IDAuMjUwMDA2QzE2LjMxNyAwLjQxNzAwNiAxNi40IDAuNTk0MDA2IDE2LjQgMC43ODEwMDZWMTUuMTU2QzE2LjQwMDEgMTUuMzY0NSAxNi4zMjIgMTUuNTY1NCAxNi4xODEgMTUuNzE5QzE2LjAzNSAxNS44ODUgMTUuODM3IDE1Ljk2OSAxNS41ODcgMTUuOTY5SDQuNDMxQzQuMTgxIDE1Ljk2OSAzLjk4MyAxNS44ODUgMy44MzggMTUuNzE5QzMuNjk2NjcgMTUuNTY1NiAzLjYxODE1IDE1LjM2NDYgMy42MTggMTUuMTU2VjUuNTk0MDFDMy42MTggNS4zODUwMSAzLjcwMiA1LjE5ODAxIDMuODY4IDUuMDMxMDFMOC42NSAwLjI1MDAwNkM4LjcxOTE4IDAuMTY4ODk2IDguODA1NjcgMC4xMDQzMzIgOC45MDMxIDAuMDYxMDY3MUM5LjAwMDU0IDAuMDE3ODAxOCA5LjEwNjQzIC0wLjAwMzA2MzkgOS4yMTMgNS43NDQyMmUtMDZIMTUuNTg3QzE1LjgxNyA1Ljc0NDIyZS0wNiAxNi4wMDQgMC4wODMwMDU4IDE2LjE1IDAuMjUwMDA2Wk0xNC44MDYgMS41OTQwMUg5LjUyNUw5LjIxMiAxLjkwNjAxVjQuMDAwMDFDOS4yMTIgNC40MzgwMSA5LjA1NiA0LjgxMzAxIDguNzQ0IDUuMTI1MDFDOC41OTg0NyA1LjI3NTkgOC40MjM1NyA1LjM5NTM3IDguMjMwMDggNS40NzYwNEM4LjAzNjU4IDUuNTU2NyA3LjgyODYxIDUuNTk2ODUgNy42MTkgNS41OTQwMUg1LjUyNUw1LjIxMiA1LjkwNjAxVjE0LjM3NUgxNC44MDZWMS41OTQwMVpNNi44MDYgOC43ODEwMUM2LjgwNiA4LjU1MjAxIDYuODc5IDguMzY1MDEgNy4wMjUgOC4yMTkwMUM3LjE3MSA4LjA1MjAxIDcuMzY5IDcuOTY5MDEgNy42MTkgNy45NjkwMUgxMi40QzEyLjYzIDcuOTY5MDEgMTIuODE3IDguMDUyMDEgMTIuOTYzIDguMjE5MDFDMTMuMTI5IDguMzY1MDEgMTMuMjEzIDguNTUyMDEgMTMuMjEzIDguNzgxMDFDMTMuMjEzIDkuMDExMDEgMTMuMTI5IDkuMTk4MDEgMTIuOTYzIDkuMzQ0MDFDMTIuODg5MSA5LjQxNzAxIDEyLjgwMSA5LjQ3NDEgMTIuNzA0MiA5LjUxMTc2QzEyLjYwNzMgOS41NDk0MyAxMi41MDM4IDkuNTY2ODcgMTIuNCA5LjU2MzAxSDcuNjE5QzcuMDc3IDkuNTYzMDEgNi44MDYgOS4zMDMwMSA2LjgwNiA4Ljc4MTAxWk0xMi40IDExLjE4N0MxMi42MyAxMS4xODcgMTIuODE3IDExLjI3MSAxMi45NjMgMTEuNDM3QzEzLjA0MTggMTEuNTAxMyAxMy4xMDUyIDExLjU4MjUgMTMuMTQ4NCAxMS42NzQ2QzEzLjE5MTcgMTEuNzY2NyAxMy4yMTM4IDExLjg2NzMgMTMuMjEzIDExLjk2OUMxMy4yMTE4IDEyLjA3NDggMTMuMTg5IDEyLjE3OTIgMTMuMTQ2IDEyLjI3NThDMTMuMTAzIDEyLjM3MjQgMTMuMDQwNyAxMi40NTkzIDEyLjk2MyAxMi41MzFDMTIuODkzOCAxMi42MTIxIDEyLjgwNzMgMTIuNjc2NyAxMi43MDk5IDEyLjcxOTlDMTIuNjEyNSAxMi43NjMyIDEyLjUwNjYgMTIuNzg0MSAxMi40IDEyLjc4MUg3LjYxOUM3LjM2OSAxMi43ODEgNy4xNzEgMTIuNjk4IDcuMDI1IDEyLjUzMUM2Ljg4NDI3IDEyLjM3NzcgNi44MDYxMyAxMi4xNzcxIDYuODA2IDExLjk2OUM2LjgwNiAxMS43NiA2Ljg3OSAxMS41ODMgNy4wMjUgMTEuNDM4QzcuMTcxIDExLjI3MSA3LjM2OSAxMS4xODggNy42MTkgMTEuMTg4TDEyLjQgMTEuMTg3Wk01Ljc3NSAwLjI1MDAwNkM1Ljk0MiAwLjQxNzAwNiA2LjAyNSAwLjYwNDAwNiA2LjAyNSAwLjgxMzAwNkM2LjAyNSAxLjAwMDAxIDUuOTQyIDEuMTc3MDEgNS43NzUgMS4zNDMwMUwyLjAyNSA1LjA5MzAxVjE1LjE1NkMyLjAyNTExIDE1LjM2NDUgMS45NDY5NSAxNS41NjU0IDEuODA2IDE1LjcxOUMxLjY2IDE1Ljg4NSAxLjQ2MyAxNS45NjkgMS4yMTMgMTUuOTY5QzEuMTA2NDQgMTUuOTcyIDEuMDAwNTcgMTUuOTUxMSAwLjkwMzE0OCAxNS45MDc4QzAuODA1NzI2IDE1Ljg2NDYgMC43MTkyMjYgMTUuODAwMSAwLjY0OTk5NiAxNS43MTlDMC41MDkwMzggMTUuNTY1NCAwLjQzMDg4MiAxNS4zNjQ1IDAuNDMwOTk2IDE1LjE1NlY0Ljc4MTAxQzAuNDMwOTk2IDQuNTUyMDEgMC41MTQ5OTYgNC4zNjUwMSAwLjY4MDk5NiA0LjIxOTAxTDQuNjUgMC4yNTAwMDZDNC43MjE4NCAwLjE3MjE1NyA0LjgwODg0IDAuMTA5ODIxIDQuOTA1NjYgMC4wNjY4MjlDNS4wMDI0OCAwLjAyMzgzNjkgNS4xMDcwNyAwLjAwMTA5NjczIDUuMjEzIDUuNzQ0MjJlLTA2QzUuNDIxIDUuNzQ0MjJlLTA2IDUuNjA4IDAuMDgzMDA1OCA1Ljc3NSAwLjI1MDAwNloiLz4mI3hhOzwvZz4mI3hhOzxkZWZzPiYjeGE7PGxpbmVhckdyYWRpZW50IGdyYWRpZW50VW5pdHM9InVzZXJTcGFjZU9uVXNlIiB5Mj0iOS43NjgzOCIgeDI9IjE2LjU5NTgiIHkxPSIxLjUwMTk0IiB4MT0iMi40OTQ4NCIgaWQ9InBhaW50MF9saW5lYXJfNjkzXzEyMjIiPiYjeGE7PHN0b3Agc3RvcC1jb2xvcj0iIzIzOTVGRiIvPiYjeGE7PHN0b3Agc3RvcC1jb2xvcj0iIzAwNTdEMiIgb2Zmc2V0PSIxIi8+JiN4YTs8L2xpbmVhckdyYWRpZW50PiYjeGE7PGNsaXBQYXRoIGlkPSJjbGlwMF82OTNfMTIyMiI+JiN4YTs8cmVjdCB0cmFuc2Zvcm09InRyYW5zbGF0ZSgwLjM5OTk5OCkiIGZpbGw9IndoaXRlIiBoZWlnaHQ9IjE2IiB3aWR0aD0iMTYiLz4mI3hhOzwvY2xpcFBhdGg+JiN4YTs8L2RlZnM+JiN4YTs8L3N2Zz4=" parent="dFPvA1FSlUZvYu8P9tU1-163" vertex="1">
          <mxGeometry x="12" y="13.39" width="25.11" height="23.622" as="geometry" />
        </mxCell>
        <mxCell id="dFPvA1FSlUZvYu8P9tU1-29" value="Message implementation&lt;br&gt;guidelines" style="text;html=1;align=right;verticalAlign=middle;resizable=0;points=[];autosize=1;strokeColor=none;fillColor=none;" parent="dFPvA1FSlUZvYu8P9tU1-163" vertex="1">
          <mxGeometry x="29" y="1.009999999999991" width="160" height="40" as="geometry" />
        </mxCell>
        <mxCell id="dFPvA1FSlUZvYu8P9tU1-30" value="Mapping guidelines" style="text;html=1;align=right;verticalAlign=middle;resizable=0;points=[];autosize=1;strokeColor=none;fillColor=none;" parent="dFPvA1FSlUZvYu8P9tU1-163" vertex="1">
          <mxGeometry x="32" y="64.50000000000004" width="130" height="30" as="geometry" />
        </mxCell>
        <mxCell id="dFPvA1FSlUZvYu8P9tU1-33" value="Knowledge&#xa;graph" style="shape=image;verticalLabelPosition=bottom;verticalAlign=top;imageAspect=0;aspect=fixed;image=data:image/svg+xml,PHN2ZyB4bWxucz0iaHR0cDovL3d3dy53My5vcmcvMjAwMC9zdmciIGZpbGw9Im5vbmUiIHZpZXdCb3g9IjAgMCAxNyAxNyIgaGVpZ2h0PSIxNyIgd2lkdGg9IjE3Ij4mI3hhOzxwYXRoIGZpbGw9InVybCgjcGFpbnQwX2xpbmVhcl8yXzI4ODA4KSIgZD0iTTE0LjUyNjQgMi42MTUyM0MxNC43NzY0IDIuODIzNTcgMTQuOTc0MyAzLjA1MjczIDE1LjEyMDEgMy4zMDI3M0MxNS4yNjYgMy41MzE5IDE1LjMzODkgMy44MTMxNSAxNS4zMzg5IDQuMTQ2NDhWMTMuODM0QzE1LjMzODkgMTQuMTQ2NSAxNS4yNTU1IDE0LjQyNzcgMTUuMDg4OSAxNC42Nzc3QzE0LjkyMjIgMTQuOTI3NyAxNC43MzQ3IDE1LjE1NjkgMTQuNTI2NCAxNS4zNjUyQzE0LjMzODkgMTUuNTMxOSAxNC4wOTkzIDE1LjY4ODIgMTMuODA3NiAxNS44MzRDMTMuNTM2OCAxNS45Nzk4IDEzLjI0NTEgMTYuMTE1MiAxMi45MzI2IDE2LjI0MDJDMTIuMjg2OCAxNi40OTAyIDExLjU0NzIgMTYuNjY3MyAxMC43MTM5IDE2Ljc3MTVDOS45MDEzNyAxNi44OTY1IDkuMDI2MzcgMTYuOTU5IDguMDg4ODcgMTYuOTU5QzcuMTUxMzcgMTYuOTU5IDYuMjY1OTUgMTYuODk2NSA1LjQzMjYyIDE2Ljc3MTVDNC42MjAxMiAxNi42NjczIDMuODkwOTUgMTYuNDkwMiAzLjI0NTEyIDE2LjI0MDJDMi45NTM0NSAxNi4xMzYxIDIuNjYxNzggMTYuMDIxNSAyLjM3MDEyIDE1Ljg5NjVDMi4wOTkyOCAxNS43NTA3IDEuODU5NyAxNS41NzM2IDEuNjUxMzcgMTUuMzY1MkMxLjEwOTcgMTQuOTI3NyAwLjgzODg2NyAxNC40MTczIDAuODM4ODY3IDEzLjgzNFY0LjE0NjQ4QzAuODM4ODY3IDMuODEzMTUgMC45MjIyMDEgMy41MzE5IDEuMDg4ODcgMy4zMDI3M0MxLjI1NTUzIDMuMDUyNzMgMS40NDMwMyAyLjgyMzU3IDEuNjUxMzcgMi42MTUyM0MyLjA2ODAzIDIuMjYxMDcgMi41OTkyOCAxLjk1ODk4IDMuMjQ1MTIgMS43MDg5OEMzLjg5MDk1IDEuNDc5ODIgNC42MjAxMiAxLjMwMjczIDUuNDMyNjIgMS4xNzc3M0M2LjI2NTk1IDEuMDUyNzMgNy4xNTEzNyAwLjk5MDIzNCA4LjA4ODg3IDAuOTkwMjM0QzkuMDI2MzcgMC45OTAyMzQgOS45MDEzNyAxLjA1MjczIDEwLjcxMzkgMS4xNzc3M0MxMS41NDcyIDEuMzAyNzMgMTIuMjg2OCAxLjQ3OTgyIDEyLjkzMjYgMS43MDg5OEMxMy4yNDUxIDEuODMzOTggMTMuNTM2OCAxLjk2OTQgMTMuODA3NiAyLjExNTIzQzE0LjA5OTMgMi4yNDAyMyAxNC4zMzg5IDIuNDA2OSAxNC41MjY0IDIuNjE1MjNaTTEzLjc0NTEgOS40NTg5OEMxMi43NjYgOS43OTIzMiAxMS44Mzg5IDEwLjA1MjcgMTAuOTYzOSAxMC4yNDAyQzEwLjEwOTcgMTAuNDI3NyA5LjE1MTM3IDEwLjUyMTUgOC4wODg4NyAxMC41MjE1QzcuMTUxMzcgMTAuNTIxNSA2LjI2NTk1IDEwLjQ1OSA1LjQzMjYyIDEwLjMzNEM0LjYyMDEyIDEwLjIwOSAzLjg5MDk1IDEwLjAzMTkgMy4yNDUxMiA5LjgwMjczQzIuOTExNzggOS42OTg1NyAyLjY0MDk1IDkuNTgzOTggMi40MzI2MiA5LjQ1ODk4VjEwLjU4NEMyLjQ1MzQ1IDEwLjYyNTcgMi40NzQyOCAxMC42NjczIDIuNDk1MTIgMTAuNzA5QzIuNTE1OTUgMTAuNzUwNyAyLjU3ODQ1IDEwLjgyMzYgMi42ODI2MiAxMC45Mjc3QzIuOTUzNDUgMTEuMTc3NyAzLjMxODAzIDExLjM4NjEgMy43NzYzNyAxMS41NTI3QzQuMjU1NTMgMTEuNzE5NCA0Ljc1NTUzIDExLjg1NDggNS4yNzYzNyAxMS45NTlDNS43OTcyIDEyLjA0MjMgNi4zMDc2MiAxMi4xMDQ4IDYuODA3NjIgMTIuMTQ2NUM3LjMyODQ1IDEyLjE4ODIgNy43NTU1MyAxMi4yMDkgOC4wODg4NyAxMi4yMDlDOS4wNDcyIDEyLjIwOSA5Ljk4NDcgMTIuMTM2MSAxMC45MDE0IDExLjk5MDJDMTEuODE4IDExLjgyMzYgMTIuNjgyNiAxMS40Njk0IDEzLjQ5NTEgMTAuOTI3N0MxMy42MjAxIDEwLjg0NDQgMTMuNjkzIDEwLjc3MTUgMTMuNzEzOSAxMC43MDlDMTMuNzM0NyAxMC42NjczIDEzLjc0NTEgMTAuNjI1NyAxMy43NDUxIDEwLjU4NFY5LjQ1ODk4Wk0xMy43NDUxIDYuMjQwMjNDMTIuNzY2IDYuNTczNTcgMTEuODM4OSA2LjgzMzk4IDEwLjk2MzkgNy4wMjE0OEMxMC4xMDk3IDcuMjA4OTggOS4xNTEzNyA3LjMwMjczIDguMDg4ODcgNy4zMDI3M0M3Ljc3NjM3IDcuMzAyNzMgNy4zNTk3IDcuMjgxOSA2LjgzODg3IDcuMjQwMjNDNi4zMTgwMyA3LjE5ODU3IDUuNzc2MzcgNy4xMzYwNyA1LjIxMzg3IDcuMDUyNzNDNC42NTEzNyA2Ljk2OTQgNC4xMjAxMiA2Ljg2NTIzIDMuNjIwMTIgNi43NDAyM0MzLjEyMDEyIDYuNTk0NCAyLjcyNDI4IDYuNDI3NzMgMi40MzI2MiA2LjI0MDIzVjcuMzY1MjNDMi40MzI2MiA3LjM4NjA3IDIuNDQzMDMgNy40MTczMiAyLjQ2Mzg3IDcuNDU4OThDMi41MDU1MyA3LjQ3OTgyIDIuNTM2NzggNy41MTEwNyAyLjU1NzYyIDcuNTUyNzNDMi41OTkyOCA3LjU5NDQgMi42NDA5NSA3LjYzNjA3IDIuNjgyNjIgNy42Nzc3M0MyLjk1MzQ1IDcuOTQ4NTcgMy4zMTgwMyA4LjE2NzMyIDMuNzc2MzcgOC4zMzM5OEM0LjI1NTUzIDguNTAwNjUgNC43NTU1MyA4LjYzNjA3IDUuMjc2MzcgOC43NDAyM0M1Ljc5NzIgOC44MjM1NyA2LjMwNzYyIDguODg2MDcgNi44MDc2MiA4LjkyNzczQzcuMzI4NDUgOC45Njk0IDcuNzU1NTMgOC45OTAyMyA4LjA4ODg3IDguOTkwMjNDOS4wNDcyIDguOTkwMjMgOS45ODQ3IDguOTA2OSAxMC45MDE0IDguNzQwMjNDMTEuODE4IDguNTczNTcgMTIuNjgyNiA4LjIxOTQgMTMuNDk1MSA3LjY3NzczQzEzLjYyMDEgNy41OTQ0IDEzLjY5MyA3LjUyMTQ4IDEzLjcxMzkgNy40NTg5OEMxMy43MzQ3IDcuNDE3MzIgMTMuNzQ1MSA3LjM4NjA3IDEzLjc0NTEgNy4zNjUyM1Y2LjI0MDIzWk0yLjY4MjYyIDMuODMzOThDMi41Nzg0NSAzLjg3NTY1IDIuNTA1NTMgMy45NDg1NyAyLjQ2Mzg3IDQuMDUyNzNDMi40NDMwMyA0LjA5NDQgMi40MzI2MiA0LjEyNTY1IDIuNDMyNjIgNC4xNDY0OEMyLjQzMjYyIDQuMTY3MzIgMi40NDMwMyA0LjE5ODU3IDIuNDYzODcgNC4yNDAyM0MyLjUwNTUzIDQuMjYxMDcgMi41MzY3OCA0LjI5MjMyIDIuNTU3NjIgNC4zMzM5OEMyLjU5OTI4IDQuMzc1NjUgMi42NDA5NSA0LjQxNzMyIDIuNjgyNjIgNC40NTg5OEMyLjk1MzQ1IDQuNzI5ODIgMy4zMTgwMyA0Ljk0ODU3IDMuNzc2MzcgNS4xMTUyM0M0LjI1NTUzIDUuMjgxOSA0Ljc1NTUzIDUuNDE3MzIgNS4yNzYzNyA1LjUyMTQ4QzUuNzk3MiA1LjYwNDgyIDYuMzA3NjIgNS42NjczMiA2LjgwNzYyIDUuNzA4OThDNy4zMjg0NSA1Ljc1MDY1IDcuNzU1NTMgNS43NzE0OCA4LjA4ODg3IDUuNzcxNDhDOC45NDMwMyA1Ljc3MTQ4IDkuNzM0NyA1LjcxOTQgMTAuNDYzOSA1LjYxNTIzQzExLjE5MyA1LjQ5MDIzIDExLjgyODUgNS4zMjM1NyAxMi4zNzAxIDUuMTE1MjNMMTMuNDk1MSA0LjQ1ODk4QzEzLjYyMDEgNC4zNzU2NSAxMy42OTMgNC4zMDI3MyAxMy43MTM5IDQuMjQwMjNDMTMuNzM0NyA0LjE5ODU3IDEzLjc0NTEgNC4xNjczMiAxMy43NDUxIDQuMTQ2NDhDMTMuNzI0MyA0LjEyNTY1IDEzLjcwMzUgNC4wOTQ0IDEzLjY4MjYgNC4wNTI3M0MxMy42NjE4IDQuMDExMDcgMTMuNTk5MyAzLjkzODE1IDEzLjQ5NTEgMy44MzM5OEMxMy4yMjQzIDMuNTYzMTUgMTIuODQ5MyAzLjM0NDQgMTIuMzcwMSAzLjE3NzczQzExLjkxMTggMy4wMTEwNyAxMS40MjIyIDIuODg2MDcgMTAuOTAxNCAyLjgwMjczQzEwLjM4MDUgMi42OTg1NyA5Ljg1OTcgMi42MjU2NSA5LjMzODg3IDIuNTgzOThDOC44Mzg4NyAyLjU0MjMyIDguNDIyMiAyLjUyMTQ4IDguMDg4ODcgMi41MjE0OEM3LjEzMDUzIDIuNTIxNDggNi4xOTMwMyAyLjYwNDgyIDUuMjc2MzcgMi43NzE0OEM0LjM1OTcgMi45MzgxNSAzLjQ5NTEyIDMuMjkyMzIgMi42ODI2MiAzLjgzMzk4Wk0xMy40OTUxIDE0LjE0NjVDMTMuNjIwMSAxNC4wNjMyIDEzLjY5MyAxMy45OTAyIDEzLjcxMzkgMTMuOTI3N0MxMy43MzQ3IDEzLjg4NjEgMTMuNzQ1MSAxMy44NTQ4IDEzLjc0NTEgMTMuODM0VjEyLjY3NzdDMTMuNzI0MyAxMi42OTg2IDEzLjcwMzUgMTIuNzA5IDEzLjY4MjYgMTIuNzA5QzEzLjY2MTggMTIuNzA5IDEzLjY1MTQgMTIuNzE5NCAxMy42NTE0IDEyLjc0MDJIMTMuNTg4OUMxMy41NDcyIDEyLjc2MTEgMTMuNTI2NCAxMi43NzE1IDEzLjUyNjQgMTIuNzcxNUMxMy41MDU1IDEyLjc5MjMgMTMuNDg0NyAxMi44MDI3IDEzLjQ2MzkgMTIuODAyN0MxMi41MjY0IDEzLjE1NjkgMTEuNjQxIDEzLjQwNjkgMTAuODA3NiAxMy41NTI3QzkuOTk1MTIgMTMuNjc3NyA5LjA4ODg3IDEzLjc0MDIgOC4wODg4NyAxMy43NDAyQzcuNzc2MzcgMTMuNzQwMiA3LjM1OTcgMTMuNzE5NCA2LjgzODg3IDEzLjY3NzdDNi4zMTgwMyAxMy42MzYxIDUuNzc2MzcgMTMuNTczNiA1LjIxMzg3IDEzLjQ5MDJDNC42NTEzNyAxMy40MDY5IDQuMTIwMTIgMTMuMzAyNyAzLjYyMDEyIDEzLjE3NzdDMy4xMjAxMiAxMy4wMzE5IDIuNzI0MjggMTIuODY1MiAyLjQzMjYyIDEyLjY3NzdWMTMuODM0QzIuNDMyNjIgMTMuODU0OCAyLjQ0MzAzIDEzLjg4NjEgMi40NjM4NyAxMy45Mjc3QzIuNDg0NyAxMy45OTAyIDIuNTU3NjIgMTQuMDYzMiAyLjY4MjYyIDE0LjE0NjVDMi45NTM0NSAxNC40MTczIDMuMzE4MDMgMTQuNjM2MSAzLjc3NjM3IDE0LjgwMjdDNC4yNTU1MyAxNC45Njk0IDQuNzU1NTMgMTUuMTA0OCA1LjI3NjM3IDE1LjIwOUM1Ljc5NzIgMTUuMjkyMyA2LjMwNzYyIDE1LjM1NDggNi44MDc2MiAxNS4zOTY1QzcuMzI4NDUgMTUuNDE3MyA3Ljc1NTUzIDE1LjQyNzcgOC4wODg4NyAxNS40Mjc3QzkuMDQ3MiAxNS40Mjc3IDkuOTg0NyAxNS4zNTQ4IDEwLjkwMTQgMTUuMjA5QzExLjgxOCAxNS4wNDIzIDEyLjY4MjYgMTQuNjg4MiAxMy40OTUxIDE0LjE0NjVaIi8+JiN4YTs8ZGVmcz4mI3hhOzxsaW5lYXJHcmFkaWVudCBncmFkaWVudFVuaXRzPSJ1c2VyU3BhY2VPblVzZSIgeTI9IjkuNjI4NDYiIHgyPSIxNi4xMTgxIiB5MT0iMi40OTIzOCIgeDE9IjIuNzEyODYiIGlkPSJwYWludDBfbGluZWFyXzJfMjg4MDgiPiYjeGE7PHN0b3Agc3RvcC1jb2xvcj0iIzIzOTVGRiIvPiYjeGE7PHN0b3Agc3RvcC1jb2xvcj0iIzAwNTdEMiIgb2Zmc2V0PSIxIi8+JiN4YTs8L2xpbmVhckdyYWRpZW50PiYjeGE7PC9kZWZzPiYjeGE7PC9zdmc+" parent="dFPvA1FSlUZvYu8P9tU1-163" vertex="1">
          <mxGeometry x="238" y="30.75200000000001" width="31.5" height="31.496" as="geometry" />
        </mxCell>
        <mxCell id="dFPvA1FSlUZvYu8P9tU1-28" value="" style="shape=image;verticalLabelPosition=bottom;verticalAlign=top;imageAspect=0;aspect=fixed;image=data:image/svg+xml,PHN2ZyB4bWxucz0iaHR0cDovL3d3dy53My5vcmcvMjAwMC9zdmciIGZpbGw9Im5vbmUiIHZpZXdCb3g9IjAgMCAxNyAxNiIgaGVpZ2h0PSIxNiIgd2lkdGg9IjE3Ij4mI3hhOzxnIGNsaXAtcGF0aD0idXJsKCNjbGlwMF82OTNfMTIyMikiPiYjeGE7PHBhdGggZmlsbD0idXJsKCNwYWludDBfbGluZWFyXzY5M18xMjIyKSIgZD0iTTE2LjE1IDAuMjUwMDA2QzE2LjMxNyAwLjQxNzAwNiAxNi40IDAuNTk0MDA2IDE2LjQgMC43ODEwMDZWMTUuMTU2QzE2LjQwMDEgMTUuMzY0NSAxNi4zMjIgMTUuNTY1NCAxNi4xODEgMTUuNzE5QzE2LjAzNSAxNS44ODUgMTUuODM3IDE1Ljk2OSAxNS41ODcgMTUuOTY5SDQuNDMxQzQuMTgxIDE1Ljk2OSAzLjk4MyAxNS44ODUgMy44MzggMTUuNzE5QzMuNjk2NjcgMTUuNTY1NiAzLjYxODE1IDE1LjM2NDYgMy42MTggMTUuMTU2VjUuNTk0MDFDMy42MTggNS4zODUwMSAzLjcwMiA1LjE5ODAxIDMuODY4IDUuMDMxMDFMOC42NSAwLjI1MDAwNkM4LjcxOTE4IDAuMTY4ODk2IDguODA1NjcgMC4xMDQzMzIgOC45MDMxIDAuMDYxMDY3MUM5LjAwMDU0IDAuMDE3ODAxOCA5LjEwNjQzIC0wLjAwMzA2MzkgOS4yMTMgNS43NDQyMmUtMDZIMTUuNTg3QzE1LjgxNyA1Ljc0NDIyZS0wNiAxNi4wMDQgMC4wODMwMDU4IDE2LjE1IDAuMjUwMDA2Wk0xNC44MDYgMS41OTQwMUg5LjUyNUw5LjIxMiAxLjkwNjAxVjQuMDAwMDFDOS4yMTIgNC40MzgwMSA5LjA1NiA0LjgxMzAxIDguNzQ0IDUuMTI1MDFDOC41OTg0NyA1LjI3NTkgOC40MjM1NyA1LjM5NTM3IDguMjMwMDggNS40NzYwNEM4LjAzNjU4IDUuNTU2NyA3LjgyODYxIDUuNTk2ODUgNy42MTkgNS41OTQwMUg1LjUyNUw1LjIxMiA1LjkwNjAxVjE0LjM3NUgxNC44MDZWMS41OTQwMVpNNi44MDYgOC43ODEwMUM2LjgwNiA4LjU1MjAxIDYuODc5IDguMzY1MDEgNy4wMjUgOC4yMTkwMUM3LjE3MSA4LjA1MjAxIDcuMzY5IDcuOTY5MDEgNy42MTkgNy45NjkwMUgxMi40QzEyLjYzIDcuOTY5MDEgMTIuODE3IDguMDUyMDEgMTIuOTYzIDguMjE5MDFDMTMuMTI5IDguMzY1MDEgMTMuMjEzIDguNTUyMDEgMTMuMjEzIDguNzgxMDFDMTMuMjEzIDkuMDExMDEgMTMuMTI5IDkuMTk4MDEgMTIuOTYzIDkuMzQ0MDFDMTIuODg5MSA5LjQxNzAxIDEyLjgwMSA5LjQ3NDEgMTIuNzA0MiA5LjUxMTc2QzEyLjYwNzMgOS41NDk0MyAxMi41MDM4IDkuNTY2ODcgMTIuNCA5LjU2MzAxSDcuNjE5QzcuMDc3IDkuNTYzMDEgNi44MDYgOS4zMDMwMSA2LjgwNiA4Ljc4MTAxWk0xMi40IDExLjE4N0MxMi42MyAxMS4xODcgMTIuODE3IDExLjI3MSAxMi45NjMgMTEuNDM3QzEzLjA0MTggMTEuNTAxMyAxMy4xMDUyIDExLjU4MjUgMTMuMTQ4NCAxMS42NzQ2QzEzLjE5MTcgMTEuNzY2NyAxMy4yMTM4IDExLjg2NzMgMTMuMjEzIDExLjk2OUMxMy4yMTE4IDEyLjA3NDggMTMuMTg5IDEyLjE3OTIgMTMuMTQ2IDEyLjI3NThDMTMuMTAzIDEyLjM3MjQgMTMuMDQwNyAxMi40NTkzIDEyLjk2MyAxMi41MzFDMTIuODkzOCAxMi42MTIxIDEyLjgwNzMgMTIuNjc2NyAxMi43MDk5IDEyLjcxOTlDMTIuNjEyNSAxMi43NjMyIDEyLjUwNjYgMTIuNzg0MSAxMi40IDEyLjc4MUg3LjYxOUM3LjM2OSAxMi43ODEgNy4xNzEgMTIuNjk4IDcuMDI1IDEyLjUzMUM2Ljg4NDI3IDEyLjM3NzcgNi44MDYxMyAxMi4xNzcxIDYuODA2IDExLjk2OUM2LjgwNiAxMS43NiA2Ljg3OSAxMS41ODMgNy4wMjUgMTEuNDM4QzcuMTcxIDExLjI3MSA3LjM2OSAxMS4xODggNy42MTkgMTEuMTg4TDEyLjQgMTEuMTg3Wk01Ljc3NSAwLjI1MDAwNkM1Ljk0MiAwLjQxNzAwNiA2LjAyNSAwLjYwNDAwNiA2LjAyNSAwLjgxMzAwNkM2LjAyNSAxLjAwMDAxIDUuOTQyIDEuMTc3MDEgNS43NzUgMS4zNDMwMUwyLjAyNSA1LjA5MzAxVjE1LjE1NkMyLjAyNTExIDE1LjM2NDUgMS45NDY5NSAxNS41NjU0IDEuODA2IDE1LjcxOUMxLjY2IDE1Ljg4NSAxLjQ2MyAxNS45NjkgMS4yMTMgMTUuOTY5QzEuMTA2NDQgMTUuOTcyIDEuMDAwNTcgMTUuOTUxMSAwLjkwMzE0OCAxNS45MDc4QzAuODA1NzI2IDE1Ljg2NDYgMC43MTkyMjYgMTUuODAwMSAwLjY0OTk5NiAxNS43MTlDMC41MDkwMzggMTUuNTY1NCAwLjQzMDg4MiAxNS4zNjQ1IDAuNDMwOTk2IDE1LjE1NlY0Ljc4MTAxQzAuNDMwOTk2IDQuNTUyMDEgMC41MTQ5OTYgNC4zNjUwMSAwLjY4MDk5NiA0LjIxOTAxTDQuNjUgMC4yNTAwMDZDNC43MjE4NCAwLjE3MjE1NyA0LjgwODg0IDAuMTA5ODIxIDQuOTA1NjYgMC4wNjY4MjlDNS4wMDI0OCAwLjAyMzgzNjkgNS4xMDcwNyAwLjAwMTA5NjczIDUuMjEzIDUuNzQ0MjJlLTA2QzUuNDIxIDUuNzQ0MjJlLTA2IDUuNjA4IDAuMDgzMDA1OCA1Ljc3NSAwLjI1MDAwNloiLz4mI3hhOzwvZz4mI3hhOzxkZWZzPiYjeGE7PGxpbmVhckdyYWRpZW50IGdyYWRpZW50VW5pdHM9InVzZXJTcGFjZU9uVXNlIiB5Mj0iOS43NjgzOCIgeDI9IjE2LjU5NTgiIHkxPSIxLjUwMTk0IiB4MT0iMi40OTQ4NCIgaWQ9InBhaW50MF9saW5lYXJfNjkzXzEyMjIiPiYjeGE7PHN0b3Agc3RvcC1jb2xvcj0iIzIzOTVGRiIvPiYjeGE7PHN0b3Agc3RvcC1jb2xvcj0iIzAwNTdEMiIgb2Zmc2V0PSIxIi8+JiN4YTs8L2xpbmVhckdyYWRpZW50PiYjeGE7PGNsaXBQYXRoIGlkPSJjbGlwMF82OTNfMTIyMiI+JiN4YTs8cmVjdCB0cmFuc2Zvcm09InRyYW5zbGF0ZSgwLjM5OTk5OCkiIGZpbGw9IndoaXRlIiBoZWlnaHQ9IjE2IiB3aWR0aD0iMTYiLz4mI3hhOzwvY2xpcFBhdGg+JiN4YTs8L2RlZnM+JiN4YTs8L3N2Zz4=" parent="dFPvA1FSlUZvYu8P9tU1-163" vertex="1">
          <mxGeometry x="13" y="57.49999999999994" width="25.11" height="23.622" as="geometry" />
        </mxCell>
        <mxCell id="dFPvA1FSlUZvYu8P9tU1-148" value="" style="endArrow=blockThin;html=1;strokeColor=#CC00DC;bendable=1;rounded=0;endFill=1;endSize=4;edgeStyle=elbowEdgeStyle;startArrow=blockThin;startFill=1;startSize=4;jumpStyle=none;jumpSize=0;targetPerimeterSpacing=15;strokeWidth=1.5;exitX=1;exitY=0.5;exitDx=0;exitDy=0;entryX=0;entryY=0.5;entryDx=0;entryDy=0;" parent="dFPvA1FSlUZvYu8P9tU1-163" source="dFPvA1FSlUZvYu8P9tU1-27" target="dFPvA1FSlUZvYu8P9tU1-33" edge="1">
          <mxGeometry width="50" height="50" relative="1" as="geometry">
            <mxPoint x="142" y="206.5" as="sourcePoint" />
            <mxPoint x="262" y="206.5" as="targetPoint" />
            <Array as="points">
              <mxPoint x="122" y="46.5" />
            </Array>
          </mxGeometry>
        </mxCell>
        <mxCell id="dFPvA1FSlUZvYu8P9tU1-151" value="" style="endArrow=blockThin;html=1;strokeColor=#CC00DC;bendable=1;rounded=0;endFill=1;endSize=4;startArrow=blockThin;startFill=1;startSize=4;jumpStyle=none;jumpSize=0;targetPerimeterSpacing=15;strokeWidth=1.5;exitX=0.5;exitY=1;exitDx=0;exitDy=0;entryX=0.5;entryY=0;entryDx=0;entryDy=0;" parent="dFPvA1FSlUZvYu8P9tU1-163" source="dFPvA1FSlUZvYu8P9tU1-27" target="dFPvA1FSlUZvYu8P9tU1-28" edge="1">
          <mxGeometry width="50" height="50" relative="1" as="geometry">
            <mxPoint x="-40.445000000000164" y="42.01200000000017" as="sourcePoint" />
            <mxPoint x="-39.445000000000164" y="57.5" as="targetPoint" />
          </mxGeometry>
        </mxCell>
        <mxCell id="dFPvA1FSlUZvYu8P9tU1-149" value="" style="endArrow=none;html=1;strokeColor=#CC00DC;bendable=1;rounded=0;endFill=0;endSize=4;edgeStyle=orthogonalEdgeStyle;startArrow=blockThin;startFill=1;startSize=4;jumpStyle=none;jumpSize=0;targetPerimeterSpacing=15;strokeWidth=1.5;" parent="dFPvA1FSlUZvYu8P9tU1-212" edge="1">
          <mxGeometry width="50" height="50" relative="1" as="geometry">
            <mxPoint x="101.46025000000009" y="104.5" as="sourcePoint" />
            <mxPoint x="184.4602500000001" y="75.5" as="targetPoint" />
          </mxGeometry>
        </mxCell>
        <mxCell id="zcfOwq0cMA0aAQK2KSSR-15" value="&lt;p style=&quot;line-height: 100%; font-size: 16px;&quot;&gt;&lt;b style=&quot;font-size: 16px;&quot;&gt;&lt;font color=&quot;#ffffff&quot; style=&quot;font-size: 16px;&quot; face=&quot;arial black&quot;&gt;4&lt;/font&gt;&lt;/b&gt;&lt;/p&gt;" style="ellipse;whiteSpace=wrap;html=1;aspect=fixed;rotation=0;gradientColor=#0057D2;strokeColor=none;gradientDirection=east;fillColor=#2395FF;rounded=0;pointerEvents=0;fontFamily=Helvetica;fontSize=16;fontColor=default;spacingTop=4;spacingBottom=4;spacingLeft=4;spacingRight=4;verticalAlign=middle;container=0;" parent="dFPvA1FSlUZvYu8P9tU1-212" vertex="1">
          <mxGeometry x="28.46025000000006" y="71.25" width="27.56" height="27.558999999999997" as="geometry" />
        </mxCell>
        <mxCell id="dFPvA1FSlUZvYu8P9tU1-213" value="" style="group" parent="1" vertex="1" connectable="0">
          <mxGeometry x="-1917.46" y="-1353.37" width="379.9200000000001" height="178.3699999999999" as="geometry" />
        </mxCell>
        <mxCell id="dFPvA1FSlUZvYu8P9tU1-19" value="&amp;nbsp; Trading Partner&lt;div&gt;&amp;nbsp; Management&lt;/div&gt;" style="rounded=1;whiteSpace=wrap;html=1;strokeColor=#0070F2;strokeWidth=1.5;arcSize=16;fillColor=#FFFFFF;perimeterSpacing=0;absoluteArcSize=1;fontStyle=1;fontSize=14;align=left;verticalAlign=top;spacingLeft=40;spacingTop=3;container=0;" parent="dFPvA1FSlUZvYu8P9tU1-213" vertex="1">
          <mxGeometry y="24.36999999999989" width="379.92" height="151" as="geometry" />
        </mxCell>
        <mxCell id="dFPvA1FSlUZvYu8P9tU1-11" value="" style="shape=image;verticalLabelPosition=bottom;labelBackgroundColor=default;verticalAlign=top;aspect=fixed;imageAspect=0;image=data:image/svg+xml,PHN2ZyB4bWxucz0iaHR0cDovL3d3dy53My5vcmcvMjAwMC9zdmciIGZpbGw9Im5vbmUiIHZpZXdCb3g9IjAgMCAxNiAxNiIgaGVpZ2h0PSIxNiIgd2lkdGg9IjE2Ij4mI3hhOzxjaXJjbGUgc3Ryb2tlLXdpZHRoPSIwLjI4NTcwOCIgc3Ryb2tlPSIjRDVEQUREIiBmaWxsPSJ1cmwoI3BhaW50MF9saW5lYXJfMzUxNF80MDI3NykiIHI9IjcuODU2OTYiIGN5PSI3Ljk5NzYyIiBjeD0iNy45OTU0MiIvPiYjeGE7PGcgY2xpcC1wYXRoPSJ1cmwoI2NsaXAwXzM1MTRfNDAyNzcpIj4mI3hhOzxwYXRoIGZpbGw9InVybCgjcGFpbnQxX2xpbmVhcl8zNTE0XzQwMjc3KSIgZD0iTTcuMTU4ODkgMy4zOTc3MUM1LjkxNTg4IDMuMzk3NzEgNS4wMzI3MiA0LjQxMDgxIDQuODg1NTggNS40Njg1MUM0LjQ4NTc0IDUuNDkyMzQgNC4xMzI2NyA1LjY0MjggMy44NTg0NiA1Ljg5NTUyQzMuNDg3NSA2LjIzNzQgMy4yOTU5IDYuNzMzNjUgMy4yOTU5IDcuMjU2OTdDMy4yOTU5IDcuNzQzMzIgMy40NDMyNCA4LjIwMzAyIDMuNzc0MDMgOC41NDI5QzQuMTA3MDUgOC44ODUwNyA0LjU3OTg0IDkuMDU4NCA1LjEzNjUzIDkuMDU4NEg1LjgwODhDNS43NTQ4IDguNzYyOTcgNS44NDM0MiA4LjQ0Njg0IDYuMDczNzIgOC4yMjA0M0w3LjQ2MTg2IDYuODU1NzZDNy44MzEwOCA2LjQ5Mjc4IDguNDI0NjUgNi40OTc4NCA4Ljc4NzYzIDYuODY3MDZDOS4wMzEwMiA3LjExNDYzIDkuMTA4OTMgNy40NjMwNyA5LjAyMjU1IDcuNzc1MjJMOS4xNTc4MSA3Ljg2OTI5QzkuNDczMzUgNy42MTUxOCA5LjgwMDcyIDcuNTExNSA5LjkyMzE2IDcuNDc1NzdDMTAuMTQxNyA3LjQxMTk5IDEwLjM3ODkgNy4zOTgwMSAxMC41NTI2IDcuMzk4NzdDMTAuNTU5NiA3LjM5ODggMTAuNTY3IDcuMzk5NTIgMTAuNTc0NCA3LjQwMDI0QzEwLjU5ODUgNy40MDI2IDEwLjYyMjcgNy40MDQ5NSAxMC42MzM2IDcuMzgyODhDMTAuNTYyMyA3LjA4MDAyIDEwLjY0MzMgNi43NDgzMiAxMC44Nzc1IDYuNTEwMDZDMTAuOTI5IDYuNDU3NjggMTAuOTg1MSA2LjQxMjY0IDExLjA0NDYgNi4zNzQ5M0MxMC44MzI4IDUuNDkyMzUgMTAuMTE4NyA0Ljg1NzU5IDkuMjg2OTYgNC43Nzg5MkM4Ljg4ODEyIDMuOTUzMTMgOC4xNDc3NyAzLjM5NzcxIDcuMTU4ODkgMy4zOTc3MVoiLz4mI3hhOzxwYXRoIGZpbGw9InVybCgjcGFpbnQyX2xpbmVhcl8zNTE0XzQwMjc3KSIgZD0iTTExLjM3MTYgNi45OTEzN0MxMS40OTI1IDYuODY4MyAxMS42OTA0IDYuODY2NjEgMTEuODEzNSA2Ljk4NzZMMTMuMjAxNiA4LjM1MjI3QzEzLjMyNDcgOC40NzMyNyAxMy4zMjY0IDguNjcxMTIgMTMuMjA1NCA4Ljc5NDJDMTMuMDg0NCA4LjkxNzI3IDEyLjg4NjUgOC45MTg5NiAxMi43NjM1IDguNzk3OTdMMTEuMzc1MyA3LjQzMzNDMTEuMjUyMiA3LjMxMjMgMTEuMjUwNiA3LjExNDQ0IDExLjM3MTYgNi45OTEzN1pNOC4zOTAyOCA3LjM0ODM4QzguNTExMjcgNy40NzE0NSA4LjUwOTU5IDcuNjY5MzEgOC4zODY1MSA3Ljc5MDNMNi45OTgzOCA5LjE1NDk3QzYuODc1MyA5LjI3NTk2IDYuNjc3NDQgOS4yNzQyOCA2LjU1NjQ1IDkuMTUxMkM2LjQzNTQ2IDkuMDI4MTMgNi40MzcxNCA4LjgzMDI3IDYuNTYwMjIgOC43MDkyOEw3Ljk0ODM1IDcuMzQ0NjFDOC4wNzE0MyA3LjIyMzYxIDguMjY5MjkgNy4yMjUzIDguMzkwMjggNy4zNDgzOFpNMTIuMzg5NSAxMC4xMDk1TDEyLjM4OTkgMTAuMTA4NUwxMi4zOTA5IDEwLjEwNjFDMTIuNDI4NyAxMC4wMDk1IDEyLjQ1MjMgOS45MDY3NCAxMi40NjQ0IDkuODAzOTNDMTIuNDgzOSA5LjYzNzUyIDEyLjQ3ODkgOS4zODc0MSAxMi4zMzA2IDkuMTU2NzdDMTIuMjYzMiA5LjA1MjA5IDEyLjE1OTUgOC45NDE2IDEyLjA1NTkgOC44NDI2N0MxMS45NDgxIDguNzM5NzYgMTEuODIzOCA4LjYzMzggMTEuNzAxNyA4LjUzNzI0QzExLjU3OTYgOC40NDA2OSAxMS40NTYgOC4zNTA1NiAxMS4zNDg3IDguMjc5OTNDMTEuMjUyMyA4LjIxNjUgMTEuMTQ5NSA4LjE0OTMzIDExLjAzNzMgOC4xMTc5NUMxMC45MDk3IDguMDgyMjIgMTAuNzQ1OSA4LjA2NzU3IDEwLjU5ODIgOC4wNjY5MkMxMC40NTEyIDguMDY2MjggMTAuMjgyMiA4LjA3OTMxIDEwLjE0NjYgOC4xMTg5QzkuOTQ0NDMgOC4xNzc4OSA5LjIzNDIyIDguNDIyNjEgOS4xNDQ4OSA5LjIzOTlDOS4xMTgyNyA5LjQ4MzQzIDkuMTI3MjkgOS42OTA1MyA5LjEzNTYgOS44ODEyNkM5LjEzNzE5IDkuOTE3NjQgOS4xMzg3NSA5Ljk1MzQyIDkuMTQwMDMgOS45ODg3NEM5LjE0ODA2IDEwLjIxMDIgOS4xNDgxNSAxMC40NDgyIDkuMDkwOTUgMTAuNzg2OUM5LjA3Njc1IDEwLjg3MDkgOS4wOTc1MSAxMC45NTcxIDkuMTQ4NDMgMTEuMDI1NUM5LjE5OTM0IDExLjA5MzkgOS4yNzU5OCAxMS4xMzg1IDkuMzYwNTkgMTEuMTQ5QzkuNjAzMTcgMTEuMTc5MSA5LjgyNDQ3IDExLjE2MDYgMTAuMDA1MiAxMS4wNDYzQzEwLjE4OTQgMTAuOTI5OSAxMC4yNjkzIDEwLjc1MjkgMTAuMzE1IDEwLjYxNjVDMTAuMzU4NSAxMC40ODY2IDEwLjM4NDkgMTAuMzUxOCAxMC40MjM0IDEwLjIzNDdDMTAuNDYwMSAxMC4xMjI5IDEwLjUwNjMgMTAuMDI2NyAxMC41ODE3IDkuOTQxODNDMTAuNzcyOCA5LjcyNjc3IDExLjA4MTIgOS42ODgxIDExLjI1MSA5Ljc5NzM1QzExLjQxIDkuODk5NiAxMS41Nzc1IDEwLjAxMjEgMTEuNzA1OSAxMC4wOTk2QzExLjc3NzkgMTAuMTQ4NiAxMS44NDk1IDEwLjE5OCAxMS45MjExIDEwLjI0NzZDMTEuOTk4OCAxMC4zMDE5IDEyLjA5NzIgMTAuMzE4MSAxMi4xODgyIDEwLjI5MTRDMTIuMjc4NyAxMC4yNjQ4IDEyLjM1MzggMTAuMTk2OCAxMi4zODk1IDEwLjEwOTVaIiBjbGlwLXJ1bGU9ImV2ZW5vZGQiIGZpbGwtcnVsZT0iZXZlbm9kZCIvPiYjeGE7PHBhdGggZmlsbD0idXJsKCNwYWludDNfbGluZWFyXzM1MTRfNDAyNzcpIiBkPSJNOC4zMzQzNSA5LjQ5MzM2QzguNDcyMzEgOS4zOTAwNiA4LjUwMDU5IDkuMTk0NSA4LjM5NzQ3IDkuMDU2MzNDOC4yOTQyNSA4LjkxODAxIDguMDk4NDQgOC44ODk1NiA3Ljk2MDEyIDguOTkyNzhMNy45NTkxMSA4Ljk5MzU0TDcuOTU3NzEgOC45OTQ1OUM3LjkwNTQ1IDkuMDM0NDUgNy44NTQ2OCA5LjA3NzMyIDcuNzc1OTcgOS4xNTQ3NkM3LjY3NTc3IDkuMjUzMzMgNy41NDU3NSA5LjM5ODI3IDcuNDMxNDMgOS41ODE1NEM3LjIwMTMyIDkuOTUwNDIgNy4wMjExOSAxMC41MDM4IDcuMzIwODMgMTEuMTI1NkM3LjUwMDc3IDExLjQ5OTEgNy44MDgzNiAxMS44MjM1IDguMDk3MzEgMTIuMTE0NUM4LjM4MzI3IDEyLjQwMjYgOC42ODIyOCAxMi42Njc5IDguOTYxMDQgMTIuOTUxN0M4Ljk3MTQxIDEyLjk2MjMgOC45ODI1MSAxMi45NzIxIDguOTk0MjcgMTIuOTgxMUM5LjMwOTA0IDEzLjIyMTYgOS43MDM0MyAxMy4xOTgzIDkuOTY1MzcgMTIuOTg5NkMxMC4wNTQ0IDEyLjkxODcgMTAuMTI3OSAxMi44MjYxIDEwLjE3NTUgMTIuNzE3NEMxMC4zNjM5IDEyLjc0NDYgMTAuNTUzMSAxMi43MDEyIDEwLjcxMTMgMTIuNTkyM0MxMC44MzYxIDEyLjUwNjQgMTAuOTM1MiAxMi4zODE5IDEwLjk4ODEgMTIuMjMyOEMxMS4yNDg0IDEyLjMxNDMgMTEuNTA5OCAxMi4yOSAxMS43MjgyIDEyLjExNTNDMTIuMDA0MyAxMS44OTQ0IDEyLjA5NDMgMTEuNTQ4OCAxMS45ODA1IDExLjIxNzJDMTEuODgxIDEwLjkyNzMgMTEuNjQ1OSAxMC42NDU3IDExLjM2MDggMTAuMzkwMkMxMS4yMzIzIDEwLjI3NSAxMS4wMzQ3IDEwLjI4NTggMTAuOTE5NSAxMC40MTQ0QzEwLjgwNDMgMTAuNTQyOSAxMC44MTUxIDEwLjc0MDUgMTAuOTQzNyAxMC44NTU3QzExLjIwMTUgMTEuMDg2OCAxMS4zNDE3IDExLjI4MTQgMTEuMzg5MyAxMS40MjAxQzExLjQxODggMTEuNTA2MSAxMS40MTAyIDExLjU2OTMgMTEuMzM3OCAxMS42MjcyQzExLjMxMTIgMTEuNjQ4NSAxMS4yODIyIDExLjY2MjQgMTEuMjA4NyAxMS42NDU2QzExLjExNzkgMTEuNjI0OCAxMC45ODI3IDExLjU1OTUgMTAuNzkxMiAxMS40MTc0QzEwLjY2NzcgMTEuMzI1NyAxMC40OTU5IDExLjMzNzYgMTAuMzg2MiAxMS40NDUzQzEwLjI3NjQgMTEuNTUzIDEwLjI2MTMgMTEuNzI0NiAxMC4zNTA2IDExLjg0OThDMTAuNDA2OCAxMS45Mjg1IDEwLjQwNzUgMTEuOTgxNCAxMC40MDM1IDEyLjAwNjFDMTAuMzk0NCAxMi4wNjE4IDEwLjMzNTkgMTIuMTExOSAxMC4yNTczIDEyLjA5NzVDMTAuMjIwNSAxMi4wOTA4IDEwLjE1ODMgMTIuMDY1MiAxMC4wODk0IDExLjk3NjNDOS45ODgzIDExLjg0NTcgOS44MDMwNiAxMS44MTY0IDkuNjY2NTYgMTEuOTA5M0M5LjUzMDA1IDEyLjAwMjIgOS40ODk0IDEyLjE4NTMgOS41NzM3NSAxMi4zMjczQzkuNjA1MSAxMi4zOCA5LjYzMjczIDEyLjQ1NTUgOS41NzU4OCAxMi41MDA4QzkuNTM5NzggMTIuNTI5NSA5LjQ2ODgyIDEyLjU0ODMgOS4zODgyOSAxMi40OTQ5QzkuMjUwNTMgMTIuMzU1NCA5LjEwNzM1IDEyLjIxOTMgOC45Njc3NSAxMi4wODY5TDguOTUxMyAxMi4wNzEzQzguODA5ODYgMTEuOTM3MSA4LjY3MjM1IDExLjgwNjcgOC41NDA4NSAxMS42NzQyQzguMjY5IDExLjQwMDQgOC4wMzg1MyAxMS4xMzMxIDcuODgwNDYgMTAuODQ3MkM3LjcwOTc0IDEwLjQ4NjIgNy44MDE4IDEwLjE2ODcgNy45NjE3MSA5LjkxMjMzQzguMDU5OTkgOS43NTQ3OSA4LjE4NzYxIDkuNjA4MiA4LjMzNDM1IDkuNDkzMzZaIi8+JiN4YTs8L2c+JiN4YTs8ZGVmcz4mI3hhOzxsaW5lYXJHcmFkaWVudCBncmFkaWVudFVuaXRzPSJ1c2VyU3BhY2VPblVzZSIgeTI9IjE0Ljc0NTYiIHgyPSIxMy42ODM1IiB5MT0iMi4yNjg3IiB4MT0iMS40NDY1MyIgaWQ9InBhaW50MF9saW5lYXJfMzUxNF80MDI3NyI+JiN4YTs8c3RvcCBzdG9wLWNvbG9yPSJ3aGl0ZSIvPiYjeGE7PHN0b3Agc3RvcC1jb2xvcj0iI0VBRUNFRSIgb2Zmc2V0PSIxIi8+JiN4YTs8L2xpbmVhckdyYWRpZW50PiYjeGE7PGxpbmVhckdyYWRpZW50IGdyYWRpZW50VW5pdHM9InVzZXJTcGFjZU9uVXNlIiB5Mj0iOS40MTQyMSIgeDI9IjguMjMzIiB5MT0iNC4yNDQyMyIgeDE9IjQuNDU3NDYiIGlkPSJwYWludDFfbGluZWFyXzM1MTRfNDAyNzciPiYjeGE7PHN0b3Agc3RvcC1jb2xvcj0iIzAxOTVGRiIvPiYjeGE7PHN0b3Agc3RvcC1jb2xvcj0iIzExNDdFOSIgb2Zmc2V0PSIwLjk5MTAyOCIvPiYjeGE7PC9saW5lYXJHcmFkaWVudD4mI3hhOzxsaW5lYXJHcmFkaWVudCBncmFkaWVudFVuaXRzPSJ1c2VyU3BhY2VPblVzZSIgeTI9IjEyLjU5NzUiIHgyPSIxMS44MzYxIiB5MT0iNy44MTgzMyIgeDE9IjcuNDc2MzEiIGlkPSJwYWludDJfbGluZWFyXzM1MTRfNDAyNzciPiYjeGE7PHN0b3Agc3RvcC1jb2xvcj0iIzEzNDhGRiIvPiYjeGE7PHN0b3Agc3RvcC1jb2xvcj0iIzA2MjM4RCIgb2Zmc2V0PSIxIi8+JiN4YTs8L2xpbmVhckdyYWRpZW50PiYjeGE7PGxpbmVhckdyYWRpZW50IGdyYWRpZW50VW5pdHM9InVzZXJTcGFjZU9uVXNlIiB5Mj0iMTIuNTk3NSIgeDI9IjExLjgzNjEiIHkxPSI3LjgxODMzIiB4MT0iNy40NzYzMSIgaWQ9InBhaW50M19saW5lYXJfMzUxNF80MDI3NyI+JiN4YTs8c3RvcCBzdG9wLWNvbG9yPSIjMTM0OEZGIi8+JiN4YTs8c3RvcCBzdG9wLWNvbG9yPSIjMDYyMzhEIiBvZmZzZXQ9IjEiLz4mI3hhOzwvbGluZWFyR3JhZGllbnQ+JiN4YTs8Y2xpcFBhdGggaWQ9ImNsaXAwXzM1MTRfNDAyNzciPiYjeGE7PHJlY3QgdHJhbnNmb3JtPSJ0cmFuc2xhdGUoMy4yOTU0MSAzLjM5NzcxKSIgZmlsbD0id2hpdGUiIGhlaWdodD0iOS43NTYxIiB3aWR0aD0iOS45OTk4Ii8+JiN4YTs8L2NsaXBQYXRoPiYjeGE7PC9kZWZzPiYjeGE7PC9zdmc+;points=[[0,0,0,0,0],[0,0.25,0,0,0],[0,0.5,0,0,0],[0,0.75,0,0,0],[0.25,0,0,0,0],[0.5,0,0,0,0],[0.75,0,0,0,0],[1,0,0,0,0],[1,0.25,0,0,0],[1,0.5,0,0,0],[1,0.75,0,0,0]];container=0;" parent="dFPvA1FSlUZvYu8P9tU1-213" vertex="1">
          <mxGeometry x="10.692246144893716" y="31.36999999999989" width="32" height="32" as="geometry" />
        </mxCell>
        <mxCell id="dFPvA1FSlUZvYu8P9tU1-162" value="" style="endArrow=blockThin;html=1;strokeColor=#CC00DC;bendable=1;rounded=0;endFill=1;endSize=4;strokeWidth=1.5;startSize=4;startArrow=none;startFill=0;exitX=0.5;exitY=1;exitDx=0;exitDy=0;entryX=0.5;entryY=0;entryDx=0;entryDy=0;" parent="dFPvA1FSlUZvYu8P9tU1-213" edge="1">
          <mxGeometry width="50" height="50" relative="1" as="geometry">
            <mxPoint x="164.46000000000004" as="sourcePoint" />
            <mxPoint x="164.64499999999998" y="78.36999999999989" as="targetPoint" />
            <Array as="points" />
          </mxGeometry>
        </mxCell>
        <mxCell id="dFPvA1FSlUZvYu8P9tU1-52" value="&lt;div style=&quot;&quot;&gt;&lt;br&gt;&lt;/div&gt;&lt;span style=&quot;&quot;&gt;&lt;/span&gt;" style="rounded=1;whiteSpace=wrap;html=1;strokeColor=#0070F2;strokeWidth=1.5;arcSize=16;fillColor=#ECF8FF;perimeterSpacing=0;absoluteArcSize=1;container=0;align=left;verticalAlign=top;spacingLeft=45;spacingTop=4;dashed=1;" parent="dFPvA1FSlUZvYu8P9tU1-213" vertex="1">
          <mxGeometry x="65.82999999999993" y="75.36999999999989" width="199.63" height="60" as="geometry" />
        </mxCell>
        <mxCell id="dFPvA1FSlUZvYu8P9tU1-34" value="B2B scenarios" style="shape=image;verticalLabelPosition=bottom;verticalAlign=top;imageAspect=0;aspect=fixed;image=data:image/svg+xml,PHN2ZyB4bWxucz0iaHR0cDovL3d3dy53My5vcmcvMjAwMC9zdmciIGZpbGw9Im5vbmUiIHZpZXdCb3g9IjAgMCAxNiAxNyIgaGVpZ2h0PSIxNyIgd2lkdGg9IjE2Ij4mI3hhOzxwYXRoIGZpbGw9InVybCgjcGFpbnQwX2xpbmVhcl82OTNfMTIxNikiIGQ9Ik0xMy45MDYyIDQuMjE4NzVDMTQuMjM5NiA0LjM2NDU4IDE0LjQwNjIgNC42MTQ1OCAxNC40MDYyIDQuOTY4NzVWMTQuNTYyNUMxNC40MDYyIDE0Ljc5MTcgMTQuMzIyOSAxNC45ODk2IDE0LjE1NjIgMTUuMTU2MkMxNC4wMTA0IDE1LjMwMjEgMTMuODIyOSAxNS4zNzUgMTMuNTkzOCAxNS4zNzVDMTMuMzY0NiAxNS4zNzUgMTMuMTY2NyAxNS4zMDIxIDEzIDE1LjE1NjJDMTIuODU0MiAxNC45ODk2IDEyLjc4MTIgMTQuNzkxNyAxMi43ODEyIDE0LjU2MjVWNS41TDUuNjI1IDIuNjU2MjVMNC4zNDM3NSAzLjI4MTI1TDEwLjY4NzUgNS44MTI1QzEwLjg1NDIgNS44NzUgMTAuOTc5MiA1Ljk3OTE3IDExLjA2MjUgNi4xMjVDMTEuMTQ1OCA2LjI1IDExLjE4NzUgNi4zOTU4MyAxMS4xODc1IDYuNTYyNVYxNi4xNTYyQzExLjE4NzUgMTYuNDQ3OSAxMS4wNzI5IDE2LjY3NzEgMTAuODQzOCAxNi44NDM4QzEwLjczOTYgMTYuOTI3MSAxMC41OTM4IDE2Ljk2ODggMTAuNDA2MiAxNi45Njg4QzEwLjMyMjkgMTYuOTY4OCAxMC4yMTg4IDE2Ljk0NzkgMTAuMDkzOCAxNi45MDYyTDcuNjg3NSAxNS45Mzc1QzcuMzU0MTcgMTUuODEyNSA3LjE4NzUgMTUuNTcyOSA3LjE4NzUgMTUuMjE4OEM3LjE4NzUgMTUuMTM1NCA3LjIwODMzIDE1LjAzMTIgNy4yNSAxNC45MDYyQzcuMzEyNSAxNC43Mzk2IDcuNDA2MjUgMTQuNjE0NiA3LjUzMTI1IDE0LjUzMTJDNy42NzcwOCAxNC40NDc5IDcuODMzMzMgMTQuNDA2MiA4IDE0LjQwNjJDOC4wNjI1IDE0LjQwNjIgOC4xNTYyNSAxNC40MjcxIDguMjgxMjUgMTQuNDY4OEw5LjU5Mzc1IDE1VjcuMTI1TDMuMTg3NSA0LjU2MjVWOC4xNTYyNUMzLjE4NzUgOC4zODU0MiAzLjExNDU4IDguNTgzMzMgMi45Njg3NSA4Ljc1QzIuODIyOTIgOC44OTU4MyAyLjYzNTQyIDguOTY4NzUgMi40MDYyNSA4Ljk2ODc1QzIuMTc3MDggOC45Njg3NSAxLjk3OTE3IDguODk1ODMgMS44MTI1IDguNzVDMS42NjY2NyA4LjU4MzMzIDEuNTkzNzUgOC4zODU0MiAxLjU5Mzc1IDguMTU2MjVWMy4zNzVDMS41OTM3NSAzLjA0MTY3IDEuNzA4MzMgMi44MjI5MiAxLjkzNzUgMi43MTg3NUw1LjI1IDEuMDYyNUM1LjM1NDE3IDEgNS40Njg3NSAwLjk2ODc1IDUuNTkzNzUgMC45Njg3NUM1LjY5NzkyIDAuOTY4NzUgNS43ODEyNSAwLjk3OTE2NyA1Ljg0Mzc1IDFDNS44NjQ1OCAxLjAyMDgzIDUuODg1NDIgMS4wMzEyNSA1LjkwNjI1IDEuMDMxMjVMMTMuOTA2MiA0LjIxODc1Wk03Ljc1IDEwQzcuOTE2NjcgMTAuMTY2NyA4IDEwLjM1NDIgOCAxMC41NjI1QzggMTAuNzcwOCA3LjkxNjY3IDEwLjk1ODMgNy43NSAxMS4xMjVMNC41NjI1IDE0LjM0MzhDNC40MTY2NyAxNC40ODk2IDQuMjI5MTcgMTQuNTYyNSA0IDE0LjU2MjVDMy43NzA4MyAxNC41NjI1IDMuNTgzMzMgMTQuNDg5NiAzLjQzNzUgMTQuMzQzOEwxLjg0Mzc1IDEyLjcxODhDMS42NzcwOCAxMi41NTIxIDEuNTkzNzUgMTIuMzY0NiAxLjU5Mzc1IDEyLjE1NjJDMS41OTM3NSAxMS45NDc5IDEuNjc3MDggMTEuNzYwNCAxLjg0Mzc1IDExLjU5MzhDMS45ODk1OCAxMS40NDc5IDIuMTc3MDggMTEuMzc1IDIuNDA2MjUgMTEuMzc1QzIuNjM1NDIgMTEuMzc1IDIuODIyOTIgMTEuNDQ3OSAyLjk2ODc1IDExLjU5MzhMNCAxMi42MjVMNi42MjUgMTBDNi43NzA4MyA5Ljg1NDE3IDYuOTU4MzMgOS43ODEyNSA3LjE4NzUgOS43ODEyNUM3LjQxNjY3IDkuNzgxMjUgNy42MDQxNyA5Ljg1NDE3IDcuNzUgMTBaIi8+JiN4YTs8ZGVmcz4mI3hhOzxsaW5lYXJHcmFkaWVudCBncmFkaWVudFVuaXRzPSJ1c2VyU3BhY2VPblVzZSIgeTI9IjguMzIxNjUiIHgyPSIxNS43MDYxIiB5MT0iMi40NzM4NCIgeDE9IjMuMjQ5NjQiIGlkPSJwYWludDBfbGluZWFyXzY5M18xMjE2Ij4mI3hhOzxzdG9wIHN0b3AtY29sb3I9IiMyMzk1RkYiLz4mI3hhOzxzdG9wIHN0b3AtY29sb3I9IiMwMDU3RDIiIG9mZnNldD0iMSIvPiYjeGE7PC9saW5lYXJHcmFkaWVudD4mI3hhOzwvZGVmcz4mI3hhOzwvc3ZnPg==;container=0;" parent="dFPvA1FSlUZvYu8P9tU1-213" vertex="1">
          <mxGeometry x="153.88999999999987" y="83.36999999999989" width="24.1" height="25.5905" as="geometry" />
        </mxCell>
        <mxCell id="dFPvA1FSlUZvYu8P9tU1-35" value="Trading partner&#xa;profiles &amp; agreements" style="shape=image;verticalLabelPosition=bottom;verticalAlign=top;imageAspect=0;aspect=fixed;image=data:image/svg+xml,PHN2ZyB4bWxucz0iaHR0cDovL3d3dy53My5vcmcvMjAwMC9zdmciIGZpbGw9Im5vbmUiIHZpZXdCb3g9IjAgMCAxNyAxNyIgaGVpZ2h0PSIxNyIgd2lkdGg9IjE3Ij4mI3hhOzxwYXRoIGZpbGw9InVybCgjcGFpbnQwX2xpbmVhcl8yXzI4ODA4KSIgZD0iTTE0LjUyNjQgMi42MTUyM0MxNC43NzY0IDIuODIzNTcgMTQuOTc0MyAzLjA1MjczIDE1LjEyMDEgMy4zMDI3M0MxNS4yNjYgMy41MzE5IDE1LjMzODkgMy44MTMxNSAxNS4zMzg5IDQuMTQ2NDhWMTMuODM0QzE1LjMzODkgMTQuMTQ2NSAxNS4yNTU1IDE0LjQyNzcgMTUuMDg4OSAxNC42Nzc3QzE0LjkyMjIgMTQuOTI3NyAxNC43MzQ3IDE1LjE1NjkgMTQuNTI2NCAxNS4zNjUyQzE0LjMzODkgMTUuNTMxOSAxNC4wOTkzIDE1LjY4ODIgMTMuODA3NiAxNS44MzRDMTMuNTM2OCAxNS45Nzk4IDEzLjI0NTEgMTYuMTE1MiAxMi45MzI2IDE2LjI0MDJDMTIuMjg2OCAxNi40OTAyIDExLjU0NzIgMTYuNjY3MyAxMC43MTM5IDE2Ljc3MTVDOS45MDEzNyAxNi44OTY1IDkuMDI2MzcgMTYuOTU5IDguMDg4ODcgMTYuOTU5QzcuMTUxMzcgMTYuOTU5IDYuMjY1OTUgMTYuODk2NSA1LjQzMjYyIDE2Ljc3MTVDNC42MjAxMiAxNi42NjczIDMuODkwOTUgMTYuNDkwMiAzLjI0NTEyIDE2LjI0MDJDMi45NTM0NSAxNi4xMzYxIDIuNjYxNzggMTYuMDIxNSAyLjM3MDEyIDE1Ljg5NjVDMi4wOTkyOCAxNS43NTA3IDEuODU5NyAxNS41NzM2IDEuNjUxMzcgMTUuMzY1MkMxLjEwOTcgMTQuOTI3NyAwLjgzODg2NyAxNC40MTczIDAuODM4ODY3IDEzLjgzNFY0LjE0NjQ4QzAuODM4ODY3IDMuODEzMTUgMC45MjIyMDEgMy41MzE5IDEuMDg4ODcgMy4zMDI3M0MxLjI1NTUzIDMuMDUyNzMgMS40NDMwMyAyLjgyMzU3IDEuNjUxMzcgMi42MTUyM0MyLjA2ODAzIDIuMjYxMDcgMi41OTkyOCAxLjk1ODk4IDMuMjQ1MTIgMS43MDg5OEMzLjg5MDk1IDEuNDc5ODIgNC42MjAxMiAxLjMwMjczIDUuNDMyNjIgMS4xNzc3M0M2LjI2NTk1IDEuMDUyNzMgNy4xNTEzNyAwLjk5MDIzNCA4LjA4ODg3IDAuOTkwMjM0QzkuMDI2MzcgMC45OTAyMzQgOS45MDEzNyAxLjA1MjczIDEwLjcxMzkgMS4xNzc3M0MxMS41NDcyIDEuMzAyNzMgMTIuMjg2OCAxLjQ3OTgyIDEyLjkzMjYgMS43MDg5OEMxMy4yNDUxIDEuODMzOTggMTMuNTM2OCAxLjk2OTQgMTMuODA3NiAyLjExNTIzQzE0LjA5OTMgMi4yNDAyMyAxNC4zMzg5IDIuNDA2OSAxNC41MjY0IDIuNjE1MjNaTTEzLjc0NTEgOS40NTg5OEMxMi43NjYgOS43OTIzMiAxMS44Mzg5IDEwLjA1MjcgMTAuOTYzOSAxMC4yNDAyQzEwLjEwOTcgMTAuNDI3NyA5LjE1MTM3IDEwLjUyMTUgOC4wODg4NyAxMC41MjE1QzcuMTUxMzcgMTAuNTIxNSA2LjI2NTk1IDEwLjQ1OSA1LjQzMjYyIDEwLjMzNEM0LjYyMDEyIDEwLjIwOSAzLjg5MDk1IDEwLjAzMTkgMy4yNDUxMiA5LjgwMjczQzIuOTExNzggOS42OTg1NyAyLjY0MDk1IDkuNTgzOTggMi40MzI2MiA5LjQ1ODk4VjEwLjU4NEMyLjQ1MzQ1IDEwLjYyNTcgMi40NzQyOCAxMC42NjczIDIuNDk1MTIgMTAuNzA5QzIuNTE1OTUgMTAuNzUwNyAyLjU3ODQ1IDEwLjgyMzYgMi42ODI2MiAxMC45Mjc3QzIuOTUzNDUgMTEuMTc3NyAzLjMxODAzIDExLjM4NjEgMy43NzYzNyAxMS41NTI3QzQuMjU1NTMgMTEuNzE5NCA0Ljc1NTUzIDExLjg1NDggNS4yNzYzNyAxMS45NTlDNS43OTcyIDEyLjA0MjMgNi4zMDc2MiAxMi4xMDQ4IDYuODA3NjIgMTIuMTQ2NUM3LjMyODQ1IDEyLjE4ODIgNy43NTU1MyAxMi4yMDkgOC4wODg4NyAxMi4yMDlDOS4wNDcyIDEyLjIwOSA5Ljk4NDcgMTIuMTM2MSAxMC45MDE0IDExLjk5MDJDMTEuODE4IDExLjgyMzYgMTIuNjgyNiAxMS40Njk0IDEzLjQ5NTEgMTAuOTI3N0MxMy42MjAxIDEwLjg0NDQgMTMuNjkzIDEwLjc3MTUgMTMuNzEzOSAxMC43MDlDMTMuNzM0NyAxMC42NjczIDEzLjc0NTEgMTAuNjI1NyAxMy43NDUxIDEwLjU4NFY5LjQ1ODk4Wk0xMy43NDUxIDYuMjQwMjNDMTIuNzY2IDYuNTczNTcgMTEuODM4OSA2LjgzMzk4IDEwLjk2MzkgNy4wMjE0OEMxMC4xMDk3IDcuMjA4OTggOS4xNTEzNyA3LjMwMjczIDguMDg4ODcgNy4zMDI3M0M3Ljc3NjM3IDcuMzAyNzMgNy4zNTk3IDcuMjgxOSA2LjgzODg3IDcuMjQwMjNDNi4zMTgwMyA3LjE5ODU3IDUuNzc2MzcgNy4xMzYwNyA1LjIxMzg3IDcuMDUyNzNDNC42NTEzNyA2Ljk2OTQgNC4xMjAxMiA2Ljg2NTIzIDMuNjIwMTIgNi43NDAyM0MzLjEyMDEyIDYuNTk0NCAyLjcyNDI4IDYuNDI3NzMgMi40MzI2MiA2LjI0MDIzVjcuMzY1MjNDMi40MzI2MiA3LjM4NjA3IDIuNDQzMDMgNy40MTczMiAyLjQ2Mzg3IDcuNDU4OThDMi41MDU1MyA3LjQ3OTgyIDIuNTM2NzggNy41MTEwNyAyLjU1NzYyIDcuNTUyNzNDMi41OTkyOCA3LjU5NDQgMi42NDA5NSA3LjYzNjA3IDIuNjgyNjIgNy42Nzc3M0MyLjk1MzQ1IDcuOTQ4NTcgMy4zMTgwMyA4LjE2NzMyIDMuNzc2MzcgOC4zMzM5OEM0LjI1NTUzIDguNTAwNjUgNC43NTU1MyA4LjYzNjA3IDUuMjc2MzcgOC43NDAyM0M1Ljc5NzIgOC44MjM1NyA2LjMwNzYyIDguODg2MDcgNi44MDc2MiA4LjkyNzczQzcuMzI4NDUgOC45Njk0IDcuNzU1NTMgOC45OTAyMyA4LjA4ODg3IDguOTkwMjNDOS4wNDcyIDguOTkwMjMgOS45ODQ3IDguOTA2OSAxMC45MDE0IDguNzQwMjNDMTEuODE4IDguNTczNTcgMTIuNjgyNiA4LjIxOTQgMTMuNDk1MSA3LjY3NzczQzEzLjYyMDEgNy41OTQ0IDEzLjY5MyA3LjUyMTQ4IDEzLjcxMzkgNy40NTg5OEMxMy43MzQ3IDcuNDE3MzIgMTMuNzQ1MSA3LjM4NjA3IDEzLjc0NTEgNy4zNjUyM1Y2LjI0MDIzWk0yLjY4MjYyIDMuODMzOThDMi41Nzg0NSAzLjg3NTY1IDIuNTA1NTMgMy45NDg1NyAyLjQ2Mzg3IDQuMDUyNzNDMi40NDMwMyA0LjA5NDQgMi40MzI2MiA0LjEyNTY1IDIuNDMyNjIgNC4xNDY0OEMyLjQzMjYyIDQuMTY3MzIgMi40NDMwMyA0LjE5ODU3IDIuNDYzODcgNC4yNDAyM0MyLjUwNTUzIDQuMjYxMDcgMi41MzY3OCA0LjI5MjMyIDIuNTU3NjIgNC4zMzM5OEMyLjU5OTI4IDQuMzc1NjUgMi42NDA5NSA0LjQxNzMyIDIuNjgyNjIgNC40NTg5OEMyLjk1MzQ1IDQuNzI5ODIgMy4zMTgwMyA0Ljk0ODU3IDMuNzc2MzcgNS4xMTUyM0M0LjI1NTUzIDUuMjgxOSA0Ljc1NTUzIDUuNDE3MzIgNS4yNzYzNyA1LjUyMTQ4QzUuNzk3MiA1LjYwNDgyIDYuMzA3NjIgNS42NjczMiA2LjgwNzYyIDUuNzA4OThDNy4zMjg0NSA1Ljc1MDY1IDcuNzU1NTMgNS43NzE0OCA4LjA4ODg3IDUuNzcxNDhDOC45NDMwMyA1Ljc3MTQ4IDkuNzM0NyA1LjcxOTQgMTAuNDYzOSA1LjYxNTIzQzExLjE5MyA1LjQ5MDIzIDExLjgyODUgNS4zMjM1NyAxMi4zNzAxIDUuMTE1MjNMMTMuNDk1MSA0LjQ1ODk4QzEzLjYyMDEgNC4zNzU2NSAxMy42OTMgNC4zMDI3MyAxMy43MTM5IDQuMjQwMjNDMTMuNzM0NyA0LjE5ODU3IDEzLjc0NTEgNC4xNjczMiAxMy43NDUxIDQuMTQ2NDhDMTMuNzI0MyA0LjEyNTY1IDEzLjcwMzUgNC4wOTQ0IDEzLjY4MjYgNC4wNTI3M0MxMy42NjE4IDQuMDExMDcgMTMuNTk5MyAzLjkzODE1IDEzLjQ5NTEgMy44MzM5OEMxMy4yMjQzIDMuNTYzMTUgMTIuODQ5MyAzLjM0NDQgMTIuMzcwMSAzLjE3NzczQzExLjkxMTggMy4wMTEwNyAxMS40MjIyIDIuODg2MDcgMTAuOTAxNCAyLjgwMjczQzEwLjM4MDUgMi42OTg1NyA5Ljg1OTcgMi42MjU2NSA5LjMzODg3IDIuNTgzOThDOC44Mzg4NyAyLjU0MjMyIDguNDIyMiAyLjUyMTQ4IDguMDg4ODcgMi41MjE0OEM3LjEzMDUzIDIuNTIxNDggNi4xOTMwMyAyLjYwNDgyIDUuMjc2MzcgMi43NzE0OEM0LjM1OTcgMi45MzgxNSAzLjQ5NTEyIDMuMjkyMzIgMi42ODI2MiAzLjgzMzk4Wk0xMy40OTUxIDE0LjE0NjVDMTMuNjIwMSAxNC4wNjMyIDEzLjY5MyAxMy45OTAyIDEzLjcxMzkgMTMuOTI3N0MxMy43MzQ3IDEzLjg4NjEgMTMuNzQ1MSAxMy44NTQ4IDEzLjc0NTEgMTMuODM0VjEyLjY3NzdDMTMuNzI0MyAxMi42OTg2IDEzLjcwMzUgMTIuNzA5IDEzLjY4MjYgMTIuNzA5QzEzLjY2MTggMTIuNzA5IDEzLjY1MTQgMTIuNzE5NCAxMy42NTE0IDEyLjc0MDJIMTMuNTg4OUMxMy41NDcyIDEyLjc2MTEgMTMuNTI2NCAxMi43NzE1IDEzLjUyNjQgMTIuNzcxNUMxMy41MDU1IDEyLjc5MjMgMTMuNDg0NyAxMi44MDI3IDEzLjQ2MzkgMTIuODAyN0MxMi41MjY0IDEzLjE1NjkgMTEuNjQxIDEzLjQwNjkgMTAuODA3NiAxMy41NTI3QzkuOTk1MTIgMTMuNjc3NyA5LjA4ODg3IDEzLjc0MDIgOC4wODg4NyAxMy43NDAyQzcuNzc2MzcgMTMuNzQwMiA3LjM1OTcgMTMuNzE5NCA2LjgzODg3IDEzLjY3NzdDNi4zMTgwMyAxMy42MzYxIDUuNzc2MzcgMTMuNTczNiA1LjIxMzg3IDEzLjQ5MDJDNC42NTEzNyAxMy40MDY5IDQuMTIwMTIgMTMuMzAyNyAzLjYyMDEyIDEzLjE3NzdDMy4xMjAxMiAxMy4wMzE5IDIuNzI0MjggMTIuODY1MiAyLjQzMjYyIDEyLjY3NzdWMTMuODM0QzIuNDMyNjIgMTMuODU0OCAyLjQ0MzAzIDEzLjg4NjEgMi40NjM4NyAxMy45Mjc3QzIuNDg0NyAxMy45OTAyIDIuNTU3NjIgMTQuMDYzMiAyLjY4MjYyIDE0LjE0NjVDMi45NTM0NSAxNC40MTczIDMuMzE4MDMgMTQuNjM2MSAzLjc3NjM3IDE0LjgwMjdDNC4yNTU1MyAxNC45Njk0IDQuNzU1NTMgMTUuMTA0OCA1LjI3NjM3IDE1LjIwOUM1Ljc5NzIgMTUuMjkyMyA2LjMwNzYyIDE1LjM1NDggNi44MDc2MiAxNS4zOTY1QzcuMzI4NDUgMTUuNDE3MyA3Ljc1NTUzIDE1LjQyNzcgOC4wODg4NyAxNS40Mjc3QzkuMDQ3MiAxNS40Mjc3IDkuOTg0NyAxNS4zNTQ4IDEwLjkwMTQgMTUuMjA5QzExLjgxOCAxNS4wNDIzIDEyLjY4MjYgMTQuNjg4MiAxMy40OTUxIDE0LjE0NjVaIi8+JiN4YTs8ZGVmcz4mI3hhOzxsaW5lYXJHcmFkaWVudCBncmFkaWVudFVuaXRzPSJ1c2VyU3BhY2VPblVzZSIgeTI9IjkuNjI4NDYiIHgyPSIxNi4xMTgxIiB5MT0iMi40OTIzOCIgeDE9IjIuNzEyODYiIGlkPSJwYWludDBfbGluZWFyXzJfMjg4MDgiPiYjeGE7PHN0b3Agc3RvcC1jb2xvcj0iIzIzOTVGRiIvPiYjeGE7PHN0b3Agc3RvcC1jb2xvcj0iIzAwNTdEMiIgb2Zmc2V0PSIxIi8+JiN4YTs8L2xpbmVhckdyYWRpZW50PiYjeGE7PC9kZWZzPiYjeGE7PC9zdmc+;container=0;" parent="dFPvA1FSlUZvYu8P9tU1-213" vertex="1">
          <mxGeometry x="300.4649999999999" y="89.36999999999989" width="31.49" height="31.496" as="geometry" />
        </mxCell>
        <mxCell id="dFPvA1FSlUZvYu8P9tU1-158" value="" style="endArrow=blockThin;html=1;strokeColor=#CC00DC;bendable=1;rounded=0;endFill=1;endSize=4;startArrow=blockThin;startFill=1;startSize=4;jumpStyle=none;jumpSize=0;targetPerimeterSpacing=15;strokeWidth=1.5;entryX=0;entryY=0.5;entryDx=0;entryDy=0;exitX=1;exitY=0.5;exitDx=0;exitDy=0;" parent="dFPvA1FSlUZvYu8P9tU1-213" target="dFPvA1FSlUZvYu8P9tU1-35" edge="1">
          <mxGeometry width="50" height="50" relative="1" as="geometry">
            <mxPoint x="264.46000000000004" y="105.36999999999989" as="sourcePoint" />
            <mxPoint x="328.46000000000004" y="121.36999999999989" as="targetPoint" />
          </mxGeometry>
        </mxCell>
        <mxCell id="dFPvA1FSlUZvYu8P9tU1-160" value="&lt;font color=&quot;#556b82&quot;&gt;Trading partner&lt;/font&gt;&lt;div&gt;&lt;font color=&quot;#556b82&quot;&gt;agreement&lt;/font&gt;&lt;/div&gt;" style="text;html=1;align=center;verticalAlign=middle;resizable=0;points=[];autosize=1;strokeColor=none;fillColor=none;" parent="dFPvA1FSlUZvYu8P9tU1-213" vertex="1">
          <mxGeometry x="48.460000000000036" y="135.3699999999999" width="110" height="40" as="geometry" />
        </mxCell>
        <mxCell id="zcfOwq0cMA0aAQK2KSSR-16" value="&lt;p style=&quot;line-height: 100%; font-size: 16px;&quot;&gt;&lt;b style=&quot;font-size: 16px;&quot;&gt;&lt;font color=&quot;#ffffff&quot; style=&quot;font-size: 16px;&quot; face=&quot;arial black&quot;&gt;5&lt;/font&gt;&lt;/b&gt;&lt;/p&gt;" style="ellipse;whiteSpace=wrap;html=1;aspect=fixed;rotation=0;gradientColor=#0057D2;strokeColor=none;gradientDirection=east;fillColor=#2395FF;rounded=0;pointerEvents=0;fontFamily=Helvetica;fontSize=16;fontColor=default;spacingTop=4;spacingBottom=4;spacingLeft=4;spacingRight=4;verticalAlign=middle;container=0;" parent="dFPvA1FSlUZvYu8P9tU1-213" vertex="1">
          <mxGeometry x="28.460000000000008" y="94.11999999999989" width="27.56" height="27.558999999999997" as="geometry" />
        </mxCell>
        <mxCell id="6vRa3yWHZsZ_n1_lfYry-2" value="" style="group" parent="1" vertex="1" connectable="0">
          <mxGeometry x="-759.9999999999998" y="-806.21" width="110" height="95" as="geometry" />
        </mxCell>
        <mxCell id="6vRa3yWHZsZ_n1_lfYry-16" value="" style="group" parent="1" vertex="1" connectable="0">
          <mxGeometry x="-1916" y="-1011" width="190" height="79" as="geometry" />
        </mxCell>
        <mxCell id="6vRa3yWHZsZ_n1_lfYry-7" value="Event Mesh" style="rounded=1;whiteSpace=wrap;html=1;strokeColor=#0070F2;strokeWidth=1.5;arcSize=16;fillColor=#FFFFFF;perimeterSpacing=0;absoluteArcSize=1;fontStyle=1;fontSize=14;align=left;verticalAlign=top;spacingLeft=40;spacingTop=3;" parent="6vRa3yWHZsZ_n1_lfYry-16" vertex="1">
          <mxGeometry width="190" height="79" as="geometry" />
        </mxCell>
        <mxCell id="6vRa3yWHZsZ_n1_lfYry-10" value="&lt;div style=&quot;&quot;&gt;Message Store&lt;/div&gt;&lt;span style=&quot;&quot;&gt;&lt;/span&gt;" style="rounded=1;whiteSpace=wrap;html=1;strokeColor=#0070F2;strokeWidth=1.5;arcSize=16;fillColor=#ECF8FF;perimeterSpacing=0;absoluteArcSize=1;container=0;align=center;verticalAlign=middle;spacingLeft=0;spacingTop=0;" parent="6vRa3yWHZsZ_n1_lfYry-16" vertex="1">
          <mxGeometry x="59.78750000000002" y="36.003394454165914" width="98.425" height="31.496" as="geometry" />
        </mxCell>
        <mxCell id="6vRa3yWHZsZ_n1_lfYry-14" value="" style="shape=image;verticalLabelPosition=bottom;labelBackgroundColor=default;verticalAlign=top;aspect=fixed;imageAspect=0;image=data:image/svg+xml,PHN2ZyB4bWxucz0iaHR0cDovL3d3dy53My5vcmcvMjAwMC9zdmciIGZpbGw9Im5vbmUiIHZpZXdCb3g9IjAgMCAxNiAxNiIgaGVpZ2h0PSIxNiIgd2lkdGg9IjE2Ij4mI3hhOzxjaXJjbGUgc3Ryb2tlLXdpZHRoPSIwLjI4NTcwOCIgc3Ryb2tlPSIjRDVEQUREIiBmaWxsPSJ1cmwoI3BhaW50MF9saW5lYXJfMzUxNF80MDIyNSkiIHI9IjcuODU2OTYiIGN5PSI3Ljk5ODg0IiBjeD0iNy45OTY4OSIvPiYjeGE7PGcgY2xpcC1wYXRoPSJ1cmwoI2NsaXAwXzM1MTRfNDAyMjUpIj4mI3hhOzxwYXRoIGZpbGw9InVybCgjcGFpbnQxX2xpbmVhcl8zNTE0XzQwMjI1KSIgZD0iTTcuNTE3NTEgMy44NTg0QzYuMTkxNjMgMy44NTg0IDUuMjQ5NTkgNC45MzkwNSA1LjA5MjY0IDYuMDY3MjdDNC42NjYxNCA2LjA5MjY4IDQuMjg5NTQgNi4yNTMxNyAzLjk5NzA0IDYuNTIyNzRDMy42MDEzNSA2Ljg4NzQyIDMuMzk2OTcgNy40MTY3NSAzLjM5Njk3IDcuOTc0OTZDMy4zOTY5NyA4LjQ5MzczIDMuNTU0MTQgOC45ODQwOCAzLjkwNjk4IDkuMzQ2NjJDNC4yNjIyIDkuNzExNiA0Ljc2NjUxIDkuODk2NDkgNS4zNjAzMiA5Ljg5NjQ5SDYuNDkwMDNWOS4yMTcyNUM2LjQ5MDAzIDguNTYwOTIgNy4wMTg5NyA4LjAxOTY1IDcuNjgyNzYgOC4wMTk2NUM4LjIwMDk3IDguMDE5NjUgOC42NTYwMiA4LjM1NDcgOC44MTU5MyA4Ljg0MzUyTDguODQxMTMgOC45MjA1OEw4Ljg2NDQxIDguODQ3ODdDOS4wMjE0NyA4LjM1NzE0IDkuNDc2NjggOC4wMTk2NSA5Ljk5NTkxIDguMDE5NjVDMTAuNjMyOSA4LjAxOTY1IDExLjE0NTMgOC41MTk4NyAxMS4xODIzIDkuMTQwOTVDMTEuNTE5NSA4Ljc1NjE2IDExLjczMDMgOC4yMzc5NiAxMS43MzAzIDcuNjE2MjVDMTEuNzMwMyA2LjM4MTIgMTAuODQ4OCA1LjQzMjA4IDkuNzg3NDYgNS4zMzE3QzkuMzYyMDMgNC40NTA4NSA4LjU3MjMxIDMuODU4NCA3LjUxNzUxIDMuODU4NFoiLz4mI3hhOzxwYXRoIGZpbGw9InVybCgjcGFpbnQyX2xpbmVhcl8zNTE0XzQwMjI1KSIgZD0iTTExLjgyNzcgMTIuNDY1OEMxMS42ODEyIDEyLjYxNDggMTEuNTM2NCAxMi44NDU4IDExLjY4MyAxMi45OTQ4QzExLjgyOTUgMTMuMTQzOCAxMS45OTU3IDEzLjE1NDMgMTIuMTQyMiAxMy4wMDUyTDEzLjI2NyAxMS44NjEyQzEzLjQxMzUgMTEuNzEyMiAxMy40MTM1IDExLjQ3MDggMTMuMjY3IDExLjMyMThMMTIuMTQyMiAxMC4xNzc3QzExLjk5NTcgMTAuMDI4NyAxMS44MjM1IDkuOTY2NjQgMTEuNjc3IDEwLjExNTdDMTEuNDkzOCAxMC4yNTg3IDExLjc0ODkgMTAuNTY4MSAxMS44OTU0IDEwLjcxNzFMMTIuMzE1MyAxMS4yMTg0TDEwLjAwMjkgMTEuMjIwOEwxMC4wMDI4IDExLjUxNzVDMTAuMDAyNiAxMS43MjIyIDEwLjE2NzIgMTEuODg4IDEwLjM3MDEgMTEuODg3OEwxMi4zNTY3IDExLjg4NTdMMTEuODI3NyAxMi40NjU4WiIvPiYjeGE7PHBhdGggZmlsbD0idXJsKCNwYWludDNfbGluZWFyXzM1MTRfNDAyMjUpIiBkPSJNNy4xNTc0NyA5LjI0ODg3QzcuMTU3NDcgOC45MzE1NSA3LjQxMjUxIDguNjc0MzIgNy43MjcxMSA4LjY3NDMyQzcuOTcyOTUgOC42NzQzMiA4LjE5MTA1IDguODMzMzggOC4yNjgwNyA5LjA2ODg0TDguNzM1MjcgMTAuNDk3QzguNzYxMjcgMTAuNTc1NyA4Ljc5MTg0IDEwLjY4NTkgOC44MjcwMSAxMC44Mjc4QzguODYyMTcgMTAuOTY5NyA4Ljg4NTExIDExLjA2MzcgOC44OTU4MSAxMS4xMUM4LjkwODA0IDExLjA2MzcgOC45MzI1IDEwLjk3MTIgOC45NjkxOSAxMC44MzI0QzkuMDA3NDIgMTAuNjkyMSA5LjAzOTUyIDEwLjU4NDEgOS4wNjU1MSAxMC41MDg2TDkuNTI2MTYgOS4wNjkzN0M5LjYwMTUzIDguODMzOSA5LjgxODg2IDguNjc0MzIgMTAuMDY0MiA4LjY3NDMyQzEwLjM3NjQgOC42NzQzMiAxMC42Mjk2IDguOTI5NjIgMTAuNjI5NiA5LjI0NDU2VjExLjIyMDJMMTAuMDAyOSAxMS4yMjA4TDEwLjAwMzUgOS45NTgwOEMxMC4wMDM1IDkuNzkxNTMgMTAuMDA3MyA5LjYzNDI0IDEwLjAxNDkgOS40ODYyMUMxMC4wMjQxIDkuMzM4MTcgMTAuMDIwNCA5LjI3OTMxIDEwLjAyODcgOS4yNTI1OUMxMC4wMjcyIDkuMjU0MTMgMTAuMDExOSA5LjMwODEgOS45ODI4NCA5LjQxNDVDOS45Njc1NSA5LjQ2NTM5IDkuOTM1NDUgOS41NzQ4OCA5Ljg4NjUyIDkuNzQyOTZDOS44MzkxMyA5LjkxMTA0IDkuODAxNjcgMTAuMDM1MiA5Ljc3NDE1IDEwLjExNTRMOS4yNTYzNCAxMS42NzAzQzkuMjAzOTggMTEuODI3NSA5LjA1NzkzIDExLjkzMzQgOC44OTM1MSAxMS45MzM0QzguNzI5MDkgMTEuOTMzNCA4LjU4MzA0IDExLjgyNzUgOC41MzA2OSAxMS42NzAzTDguMDEyODggMTAuMTE1NEM3Ljk4MDc3IDEwLjAyMTMgNy45MzQ5MSA5Ljg3NDAzIDcuODc1MjggOS42NzM1N0M3LjgxNzE4IDkuNDcxNTYgNy43NzY2NyA5LjMzMTIzIDcuNzUzNzMgOS4yNTI1OUw3Ljc1ODMyIDkuMzE5NjdDNy43NTk4NSA5LjM0NDM0IDcuNzY0NDQgOS40MzE0NiA3Ljc3MjA4IDkuNTgxMDRDNy43Nzk3MiA5LjcyOTA4IDcuNzgzNTUgOS44NTQ3NiA3Ljc4MzU1IDkuOTU4MDhWMTEuNjE3N0M3Ljc4MzU1IDExLjc5MjEgNy42NDM0IDExLjkzMzQgNy40NzA1MSAxMS45MzM0QzcuMjk3NjIgMTEuOTMzNCA3LjE1NzQ3IDExLjc5MjEgNy4xNTc0NyAxMS42MTc3VjkuMjQ4ODdaIi8+JiN4YTs8L2c+JiN4YTs8ZGVmcz4mI3hhOzxsaW5lYXJHcmFkaWVudCBncmFkaWVudFVuaXRzPSJ1c2VyU3BhY2VPblVzZSIgeTI9IjE0Ljc0NjgiIHgyPSIxMy42ODQ5IiB5MT0iMi4yNjk5MiIgeDE9IjEuNDQ3OTkiIGlkPSJwYWludDBfbGluZWFyXzM1MTRfNDAyMjUiPiYjeGE7PHN0b3Agc3RvcC1jb2xvcj0id2hpdGUiLz4mI3hhOzxzdG9wIHN0b3AtY29sb3I9IiNFQUVDRUUiIG9mZnNldD0iMSIvPiYjeGE7PC9saW5lYXJHcmFkaWVudD4mI3hhOzxsaW5lYXJHcmFkaWVudCBncmFkaWVudFVuaXRzPSJ1c2VyU3BhY2VPblVzZSIgeTI9IjEwLjMwNzQiIHgyPSI4LjY2MzI3IiB5MT0iNC43NjEzNiIgeDE9IjQuNjQ2MTgiIGlkPSJwYWludDFfbGluZWFyXzM1MTRfNDAyMjUiPiYjeGE7PHN0b3Agc3RvcC1jb2xvcj0iIzAxOTVGRiIvPiYjeGE7PHN0b3Agc3RvcC1jb2xvcj0iIzExNDdFOSIgb2Zmc2V0PSIwLjk5MTAyOCIvPiYjeGE7PC9saW5lYXJHcmFkaWVudD4mI3hhOzxsaW5lYXJHcmFkaWVudCBncmFkaWVudFVuaXRzPSJ1c2VyU3BhY2VPblVzZSIgeTI9IjEzLjQ1NSIgeDI9IjExLjAwOTYiIHkxPSI5LjMyNzE5IiB4MT0iOC4wNzY5NyIgaWQ9InBhaW50Ml9saW5lYXJfMzUxNF80MDIyNSI+JiN4YTs8c3RvcCBzdG9wLWNvbG9yPSIjMTM0OEZGIi8+JiN4YTs8c3RvcCBzdG9wLWNvbG9yPSIjMDYyMzhEIiBvZmZzZXQ9IjEiLz4mI3hhOzwvbGluZWFyR3JhZGllbnQ+JiN4YTs8bGluZWFyR3JhZGllbnQgZ3JhZGllbnRVbml0cz0idXNlclNwYWNlT25Vc2UiIHkyPSIxMy40NTUiIHgyPSIxMS4wMDk2IiB5MT0iOS4zMjcxOSIgeDE9IjguMDc2OTciIGlkPSJwYWludDNfbGluZWFyXzM1MTRfNDAyMjUiPiYjeGE7PHN0b3Agc3RvcC1jb2xvcj0iIzEzNDhGRiIvPiYjeGE7PHN0b3Agc3RvcC1jb2xvcj0iIzA2MjM4RCIgb2Zmc2V0PSIxIi8+JiN4YTs8L2xpbmVhckdyYWRpZW50PiYjeGE7PGNsaXBQYXRoIGlkPSJjbGlwMF8zNTE0XzQwMjI1Ij4mI3hhOzxyZWN0IHRyYW5zZm9ybT0idHJhbnNsYXRlKDMuMzk2OTcgMy43OTkwNykiIGZpbGw9IndoaXRlIiBoZWlnaHQ9IjEwLjAwMDIiIHdpZHRoPSIxMCIvPiYjeGE7PC9jbGlwUGF0aD4mI3hhOzwvZGVmcz4mI3hhOzwvc3ZnPg==;points=[[0,0,0,0,0],[0,0.25,0,0,0],[0,0.5,0,0,0],[0,0.75,0,0,0],[0.25,0,0,0,0],[0.5,0,0,0,0],[0.75,0,0,0,0],[1,0,0,0,0],[1,0.25,0,0,0],[1,0.5,0,0,0],[1,0.75,0,0,0]];" parent="6vRa3yWHZsZ_n1_lfYry-16" vertex="1">
          <mxGeometry x="6.000000000000227" y="4.999999999999773" width="32" height="32" as="geometry" />
        </mxCell>
        <mxCell id="zcfOwq0cMA0aAQK2KSSR-21" value="&lt;p style=&quot;line-height: 100%; font-size: 16px;&quot;&gt;&lt;font color=&quot;#ffffff&quot; face=&quot;arial black&quot; style=&quot;font-size: 16px;&quot;&gt;&lt;b style=&quot;font-size: 16px;&quot;&gt;7&lt;/b&gt;&lt;/font&gt;&lt;/p&gt;" style="ellipse;whiteSpace=wrap;html=1;aspect=fixed;rotation=0;gradientColor=#0057D2;strokeColor=none;gradientDirection=east;fillColor=#2395FF;rounded=0;pointerEvents=0;fontFamily=Helvetica;fontSize=16;fontColor=default;spacingTop=4;spacingBottom=4;spacingLeft=4;spacingRight=4;verticalAlign=middle;container=0;" parent="6vRa3yWHZsZ_n1_lfYry-16" vertex="1">
          <mxGeometry x="26.99999999999997" y="37.500000000000114" width="27.56" height="27.558999999999997" as="geometry" />
        </mxCell>
        <mxCell id="6vRa3yWHZsZ_n1_lfYry-17" value="" style="endArrow=blockThin;html=1;strokeColor=#475E75;bendable=1;rounded=0;endFill=1;endSize=4;startArrow=blockThin;startFill=1;startSize=4;jumpStyle=gap;jumpSize=6;targetPerimeterSpacing=15;strokeWidth=1.5;entryX=0;entryY=0.5;entryDx=0;entryDy=0;edgeStyle=orthogonalEdgeStyle;exitX=0.5;exitY=0;exitDx=0;exitDy=0;" parent="1" source="6vRa3yWHZsZ_n1_lfYry-7" target="dFPvA1FSlUZvYu8P9tU1-78" edge="1">
          <mxGeometry width="50" height="50" relative="1" as="geometry">
            <mxPoint x="-2206" y="-960" as="sourcePoint" />
            <mxPoint x="-1907" y="-1084" as="targetPoint" />
          </mxGeometry>
        </mxCell>
        <mxCell id="dFPvA1FSlUZvYu8P9tU1-186" value="Application&#xa;Clients" style="shape=image;verticalLabelPosition=bottom;verticalAlign=top;imageAspect=0;aspect=fixed;image=data:image/svg+xml,PHN2ZyB4bWxucz0iaHR0cDovL3d3dy53My5vcmcvMjAwMC9zdmciIGZpbGw9Im5vbmUiIHZpZXdCb3g9IjAgMCAxNyAxNyIgaGVpZ2h0PSIxNyIgd2lkdGg9IjE3Ij4mI3hhOzxnIGNsaXAtcGF0aD0idXJsKCNjbGlwMF8yXzI4NzkzKSI+JiN4YTs8cGF0aCBmaWxsPSJ1cmwoI3BhaW50MF9saW5lYXJfMl8yODc5MykiIGQ9Ik04Ljg4ODg3IDExLjI5MTRDOC44ODg4NyAxMS43MzE0IDguNTI4ODcgMTIuMDkxNCA4LjA4ODg3IDEyLjA5MTRINy4yODg4N1YxMy42MzU0SDguMDg4ODdDOC41Mjg4NyAxMy42MzU0IDguODg4ODcgMTMuOTk1NCA4Ljg4ODg3IDE0LjQzNTRDOC44ODg4NyAxNC44NzU0IDguNTI4ODcgMTUuMjM1NCA4LjA4ODg3IDE1LjIzNTRINC4wODg4N0MzLjY0ODg3IDE1LjIzNTQgMy4yODg4NyAxNC44NzU0IDMuMjg4ODcgMTQuNDM1NEMzLjI4ODg3IDEzLjk5NTQgMy42NDg4NyAxMy42MzU0IDQuMDg4ODcgMTMuNjM1NEg1LjY4ODg3VjEyLjA5MTRIMi40ODg4N0MxLjE2ODg3IDEyLjA5MTQgMC4wODg4NjcyIDExLjA3NTQgMC4wODg4NjcyIDkuODI3NFYzLjk1NTRDMC4wODg4NjcyIDIuNzA3NCAxLjE2ODg3IDEuNjgzNCAyLjQ4ODg3IDEuNjk5NEgxMS4yODg5QzEyLjYwODkgMS42OTk0IDEzLjY4ODkgMi43MTU0IDEzLjY4ODkgMy45NjM0QzEzLjY4ODkgNC40MDM0IDEzLjMyODkgNC43Nzk0IDEyLjg4ODkgNC43Nzk0QzEyLjQ0ODkgNC43Nzk0IDEyLjA4ODkgNC40MzU0IDEyLjA4ODkgMy45OTU0QzEyLjA4ODkgMy41ODc0IDExLjcyODkgMy4yOTE0IDExLjI4ODkgMy4yOTE0SDIuNDg4ODdDMi4wNDg4NyAzLjI5MTQgMS42ODg4NyAzLjU4NzQgMS42ODg4NyAzLjk1NTRWOS44Mjc0QzEuNjg4ODcgMTAuMTk1NCAyLjA0ODg3IDEwLjQ5MTQgMi40ODg4NyAxMC40OTE0SDguMDg4ODdDOC41Mjg4NyAxMC40OTE0IDguODg4ODcgMTAuODUxNCA4Ljg4ODg3IDExLjI5MTRaTTkuNjg4ODcgNy40MDMzOUM5LjY4ODg3IDYuMjk5MzkgMTAuNTg0OSA1LjQwMzM5IDExLjY4ODkgNS40MDMzOUgxNC4wODg5QzE1LjE5MjkgNS40MDMzOSAxNi4wODg5IDYuMjk5MzkgMTYuMDg4OSA3LjQwMzM5VjEzLjIzNTRDMTYuMDg4OSAxNC4zMzk0IDE1LjE5MjkgMTUuMjM1NCAxNC4wODg5IDE1LjIzNTRIMTEuNjg4OUMxMC41ODQ5IDE1LjIzNTQgOS42ODg4NyAxNC4zMzk0IDkuNjg4ODcgMTMuMjM1NFY3LjQwMzM5Wk0xNC4wODg5IDEzLjYzNTRDMTQuMzEyOSAxMy42MzU0IDE0LjQ4ODkgMTMuNDU5NCAxNC40ODg5IDEzLjIzNTRWNy40MDMzOUMxNC40ODg5IDcuMTc5MzkgMTQuMzEyOSA3LjAwMzM5IDE0LjA4ODkgNy4wMDMzOUgxMS42ODg5QzExLjQ2NDkgNy4wMDMzOSAxMS4yODg5IDcuMTc5MzkgMTEuMjg4OSA3LjQwMzM5VjEzLjIzNTRDMTEuMjg4OSAxMy40NTk0IDExLjQ2NDkgMTMuNjM1NCAxMS42ODg5IDEzLjYzNTRIMTQuMDg4OVoiIGNsaXAtcnVsZT0iZXZlbm9kZCIgZmlsbC1ydWxlPSJldmVub2RkIi8+JiN4YTs8L2c+JiN4YTs8ZGVmcz4mI3hhOzxsaW5lYXJHcmFkaWVudCBncmFkaWVudFVuaXRzPSJ1c2VyU3BhY2VPblVzZSIgeTI9IjE1LjIzNTQiIHgyPSI4LjA4ODg3IiB5MT0iMS42OTkyMiIgeDE9IjguMDg4ODciIGlkPSJwYWludDBfbGluZWFyXzJfMjg3OTMiPiYjeGE7PHN0b3Agc3RvcC1jb2xvcj0iIzVCNzM4QiIvPiYjeGE7PHN0b3Agc3RvcC1jb2xvcj0iIzIyMzU0OCIgb2Zmc2V0PSIxIi8+JiN4YTs8L2xpbmVhckdyYWRpZW50PiYjeGE7PGNsaXBQYXRoIGlkPSJjbGlwMF8yXzI4NzkzIj4mI3hhOzxyZWN0IHRyYW5zZm9ybT0idHJhbnNsYXRlKDAuMDg4ODY3MiAwLjQ1ODk4NCkiIGZpbGw9IndoaXRlIiBoZWlnaHQ9IjE2IiB3aWR0aD0iMTYiLz4mI3hhOzwvY2xpcFBhdGg+JiN4YTs8L2RlZnM+JiN4YTs8L3N2Zz4=;strokeWidth=1.5;points=[[0,0.25,0,0,0],[0,0.5,0,0,0],[0,0.75,0,0,0],[0.25,0,0,0,0],[0.25,1,0,0,0],[0.5,0,0,0,0],[0.5,1,0,0,0],[0.75,0,0,0,0],[0.75,1,0,0,0],[1,0.25,0,0,0],[1,0.5,0,0,0],[1,0.75,0,0,0]];fontSize=14;labelBackgroundColor=default;" parent="1" vertex="1">
          <mxGeometry x="-2142.41" y="-1235.5" width="28" height="28" as="geometry" />
        </mxCell>
        <mxCell id="zcfOwq0cMA0aAQK2KSSR-10" value="&lt;p style=&quot;line-height: 100%; font-size: 16px;&quot;&gt;&lt;b style=&quot;font-size: 16px;&quot;&gt;&lt;font color=&quot;#ffffff&quot; style=&quot;font-size: 16px;&quot; face=&quot;arial black&quot;&gt;1&lt;/font&gt;&lt;/b&gt;&lt;/p&gt;" style="ellipse;whiteSpace=wrap;html=1;aspect=fixed;rotation=0;gradientColor=#0057D2;strokeColor=none;gradientDirection=east;fillColor=#2395FF;rounded=0;pointerEvents=0;fontFamily=Helvetica;fontSize=16;fontColor=default;spacingTop=4;spacingBottom=4;spacingLeft=4;spacingRight=4;verticalAlign=middle;container=0;" parent="1" vertex="1">
          <mxGeometry x="-2178" y="-1330" width="27.56" height="27.558999999999997" as="geometry" />
        </mxCell>
        <mxCell id="dFPvA1FSlUZvYu8P9tU1-165" value="" style="endArrow=blockThin;html=1;strokeColor=#CC00DC;bendable=1;rounded=0;endFill=1;endSize=4;strokeWidth=1.5;startSize=4;startArrow=none;startFill=0;exitX=0.5;exitY=1;exitDx=0;exitDy=0;entryX=0.5;entryY=0;entryDx=0;entryDy=0;" parent="1" target="dFPvA1FSlUZvYu8P9tU1-53" edge="1">
          <mxGeometry width="50" height="50" relative="1" as="geometry">
            <mxPoint x="-1752.815" y="-1215" as="sourcePoint" />
            <mxPoint x="-1743" y="-1265" as="targetPoint" />
            <Array as="points" />
          </mxGeometry>
        </mxCell>
        <mxCell id="vsUOsGuE6CD4la2BPaX0-1" value="" style="group" parent="1" vertex="1" connectable="0">
          <mxGeometry x="-912" y="-1608" width="443" height="568.75" as="geometry" />
        </mxCell>
        <mxCell id="zcfOwq0cMA0aAQK2KSSR-1" value="" style="rounded=0;whiteSpace=wrap;html=1;strokeColor=none;strokeWidth=1.5;arcSize=16;fillColor=#F5F6F7;perimeterSpacing=0;imageHeight=24;absoluteArcSize=1;points=[];connectable=0;container=0;" parent="vsUOsGuE6CD4la2BPaX0-1" vertex="1">
          <mxGeometry width="443" height="568.75" as="geometry" />
        </mxCell>
        <mxCell id="zcfOwq0cMA0aAQK2KSSR-2" value="&lt;h1&gt;Flow&lt;/h1&gt;&lt;ul&gt;&lt;li&gt;&lt;span style=&quot;background-color: initial;&quot;&gt;&lt;font color=&quot;#1d2d3e&quot;&gt;Integration developer access the design-time of SAP Integration Suite using a web application.&lt;br&gt;&lt;br&gt;&lt;/font&gt;&lt;/span&gt;&lt;/li&gt;&lt;li&gt;SAP Cloud Identity Services handles identity management of SAP Integration Suite allowing a secuire authentication of users.&lt;br&gt;&lt;br&gt;&lt;/li&gt;&lt;li&gt;&lt;span style=&quot;color: rgb(29, 45, 62);&quot;&gt;SAP Business Accelerator Hub provides integration developers predefined integration flows and more to build integration flows on SAP Integration Suite, including templates used for Trading Partner Management and integration Advisor.&lt;br&gt;&lt;br&gt;&lt;/span&gt;&lt;/li&gt;&lt;li&gt;With the help Integration Advisor integration developers can create tailored Message Implementation Guidelines and Mapping Guidelines in an accelerated fashion&amp;nbsp;for exchanging B2B messages with trading partners.&lt;br&gt;&lt;br&gt;&lt;/li&gt;&lt;li&gt;Trading Partner Management allows integration developers to maintain trading partner agreements which specify how to exchange B2B documents with a specific trading partner.&lt;br&gt;&lt;br&gt;&lt;/li&gt;&lt;li&gt;Cloud Integration is used to exchange B2B documents between business solutions (cloud or on premise, SAP or 3rd party) with trading partners using B2B protocols such as AS2. This is accomplished with a generic integration flow which can dynamically read information from the partner directory.&lt;br&gt;&lt;br&gt;&lt;/li&gt;&lt;li style=&quot;box-sizing: border-box;&quot;&gt;Event Mesh enables asynchronous message processing which is required for most B2B integration scenarios.&lt;br&gt;&lt;br&gt;&lt;/li&gt;&lt;li style=&quot;box-sizing: border-box;&quot;&gt;In case the integration scenario involves SAP S/4HANA or SAP ECC the SAP Application Interface Framework can enable integration monitoring and error handling by business users.&lt;/li&gt;&lt;/ul&gt;" style="text;html=1;strokeColor=none;fillColor=none;spacing=5;spacingTop=-20;whiteSpace=wrap;overflow=hidden;rounded=0;" parent="vsUOsGuE6CD4la2BPaX0-1" vertex="1">
          <mxGeometry x="21" y="12.75" width="388" height="546" as="geometry" />
        </mxCell>
        <mxCell id="zcfOwq0cMA0aAQK2KSSR-3" value="&lt;p style=&quot;line-height: 100%; font-size: 12px;&quot;&gt;&lt;b style=&quot;font-size: 12px;&quot;&gt;&lt;font face=&quot;arial black&quot; style=&quot;font-size: 12px;&quot; color=&quot;#ffffff&quot;&gt;1&lt;/font&gt;&lt;/b&gt;&lt;/p&gt;" style="ellipse;whiteSpace=wrap;html=1;aspect=fixed;rotation=0;gradientColor=#0057D2;strokeColor=none;gradientDirection=east;fillColor=#2395FF;rounded=0;pointerEvents=0;fontFamily=Helvetica;fontSize=12;fontColor=default;spacingTop=4;spacingBottom=4;spacingLeft=4;spacingRight=4;verticalAlign=middle;container=0;" parent="vsUOsGuE6CD4la2BPaX0-1" vertex="1">
          <mxGeometry x="26" y="62.75" width="22" height="22" as="geometry" />
        </mxCell>
        <mxCell id="zcfOwq0cMA0aAQK2KSSR-4" value="&lt;p style=&quot;line-height: 100%; font-size: 12px;&quot;&gt;&lt;font face=&quot;arial black&quot; color=&quot;#ffffff&quot; style=&quot;font-size: 12px;&quot;&gt;&lt;b style=&quot;font-size: 12px;&quot;&gt;2&lt;/b&gt;&lt;/font&gt;&lt;/p&gt;" style="ellipse;whiteSpace=wrap;html=1;aspect=fixed;rotation=0;gradientColor=#0057D2;strokeColor=none;gradientDirection=east;fillColor=#2395FF;rounded=0;pointerEvents=0;fontFamily=Helvetica;fontSize=12;fontColor=default;spacingTop=4;spacingBottom=4;spacingLeft=4;spacingRight=4;verticalAlign=middle;container=0;" parent="vsUOsGuE6CD4la2BPaX0-1" vertex="1">
          <mxGeometry x="26" y="102.75" width="22" height="22" as="geometry" />
        </mxCell>
        <mxCell id="zcfOwq0cMA0aAQK2KSSR-5" value="&lt;p style=&quot;line-height: 100%; font-size: 12px;&quot;&gt;&lt;b style=&quot;font-size: 12px;&quot;&gt;&lt;font face=&quot;arial black&quot; style=&quot;font-size: 12px;&quot; color=&quot;#ffffff&quot;&gt;3&lt;/font&gt;&lt;/b&gt;&lt;/p&gt;" style="ellipse;whiteSpace=wrap;html=1;aspect=fixed;rotation=0;gradientColor=#0057D2;strokeColor=none;gradientDirection=east;fillColor=#2395FF;rounded=0;pointerEvents=0;fontFamily=Helvetica;fontSize=12;fontColor=default;spacingTop=4;spacingBottom=4;spacingLeft=4;spacingRight=4;verticalAlign=middle;container=0;" parent="vsUOsGuE6CD4la2BPaX0-1" vertex="1">
          <mxGeometry x="26" y="159.75" width="22" height="22" as="geometry" />
        </mxCell>
        <mxCell id="zcfOwq0cMA0aAQK2KSSR-6" value="&lt;p style=&quot;line-height: 100%; font-size: 12px;&quot;&gt;&lt;b style=&quot;font-size: 12px;&quot;&gt;&lt;font face=&quot;arial black&quot; style=&quot;font-size: 12px;&quot; color=&quot;#ffffff&quot;&gt;4&lt;/font&gt;&lt;/b&gt;&lt;/p&gt;" style="ellipse;whiteSpace=wrap;html=1;aspect=fixed;rotation=0;gradientColor=#0057D2;strokeColor=none;gradientDirection=east;fillColor=#2395FF;rounded=0;pointerEvents=0;fontFamily=Helvetica;fontSize=12;fontColor=default;spacingTop=4;spacingBottom=4;spacingLeft=4;spacingRight=4;verticalAlign=middle;container=0;" parent="vsUOsGuE6CD4la2BPaX0-1" vertex="1">
          <mxGeometry x="26" y="233.75" width="22" height="22" as="geometry" />
        </mxCell>
        <mxCell id="zcfOwq0cMA0aAQK2KSSR-7" value="&lt;p style=&quot;line-height: 100%; font-size: 12px;&quot;&gt;&lt;b style=&quot;font-size: 12px;&quot;&gt;&lt;font face=&quot;arial black&quot; style=&quot;font-size: 12px;&quot; color=&quot;#ffffff&quot;&gt;5&lt;/font&gt;&lt;/b&gt;&lt;/p&gt;" style="ellipse;whiteSpace=wrap;html=1;aspect=fixed;rotation=0;gradientColor=#0057D2;strokeColor=none;gradientDirection=east;fillColor=#2395FF;rounded=0;pointerEvents=0;fontFamily=Helvetica;fontSize=12;fontColor=default;spacingTop=4;spacingBottom=4;spacingLeft=4;spacingRight=4;verticalAlign=middle;container=0;" parent="vsUOsGuE6CD4la2BPaX0-1" vertex="1">
          <mxGeometry x="26" y="303.75" width="22" height="22" as="geometry" />
        </mxCell>
        <mxCell id="zcfOwq0cMA0aAQK2KSSR-8" value="&lt;p style=&quot;line-height: 100%; font-size: 12px;&quot;&gt;&lt;b style=&quot;font-size: 12px;&quot;&gt;&lt;font face=&quot;arial black&quot; style=&quot;font-size: 12px;&quot; color=&quot;#ffffff&quot;&gt;6&lt;/font&gt;&lt;/b&gt;&lt;/p&gt;" style="ellipse;whiteSpace=wrap;html=1;aspect=fixed;rotation=0;gradientColor=#0057D2;strokeColor=none;gradientDirection=east;fillColor=#2395FF;rounded=0;pointerEvents=0;fontFamily=Helvetica;fontSize=12;fontColor=default;spacingTop=4;spacingBottom=4;spacingLeft=4;spacingRight=4;verticalAlign=middle;container=0;" parent="vsUOsGuE6CD4la2BPaX0-1" vertex="1">
          <mxGeometry x="26" y="361.75" width="22" height="22" as="geometry" />
        </mxCell>
        <mxCell id="zcfOwq0cMA0aAQK2KSSR-9" value="&lt;p style=&quot;line-height: 100%; font-size: 12px;&quot;&gt;&lt;b style=&quot;font-size: 12px;&quot;&gt;&lt;font face=&quot;arial black&quot; style=&quot;font-size: 12px;&quot; color=&quot;#ffffff&quot;&gt;7&lt;/font&gt;&lt;/b&gt;&lt;/p&gt;" style="ellipse;whiteSpace=wrap;html=1;aspect=fixed;rotation=0;gradientColor=#0057D2;strokeColor=none;gradientDirection=east;fillColor=#2395FF;rounded=0;pointerEvents=0;fontFamily=Helvetica;fontSize=12;fontColor=default;spacingTop=4;spacingBottom=4;spacingLeft=4;spacingRight=4;verticalAlign=middle;container=0;" parent="vsUOsGuE6CD4la2BPaX0-1" vertex="1">
          <mxGeometry x="26" y="446.29999999999995" width="22" height="22" as="geometry" />
        </mxCell>
        <mxCell id="zcfOwq0cMA0aAQK2KSSR-23" value="&lt;p style=&quot;line-height: 100%; font-size: 12px;&quot;&gt;&lt;font face=&quot;arial black&quot; color=&quot;#ffffff&quot;&gt;&lt;b&gt;8&lt;/b&gt;&lt;/font&gt;&lt;/p&gt;" style="ellipse;whiteSpace=wrap;html=1;aspect=fixed;rotation=0;gradientColor=#0057D2;strokeColor=none;gradientDirection=east;fillColor=#2395FF;rounded=0;pointerEvents=0;fontFamily=Helvetica;fontSize=12;fontColor=default;spacingTop=4;spacingBottom=4;spacingLeft=4;spacingRight=4;verticalAlign=middle;container=0;" parent="vsUOsGuE6CD4la2BPaX0-1" vertex="1">
          <mxGeometry x="26" y="492.29999999999995" width="22" height="22" as="geometry" />
        </mxCell>
        <mxCell id="vsUOsGuE6CD4la2BPaX0-3" value="&lt;p style=&quot;line-height: 100%; font-size: 16px;&quot;&gt;&lt;b style=&quot;font-size: 16px;&quot;&gt;&lt;font color=&quot;#ffffff&quot; style=&quot;font-size: 16px;&quot; face=&quot;arial black&quot;&gt;3&lt;/font&gt;&lt;/b&gt;&lt;/p&gt;" style="ellipse;whiteSpace=wrap;html=1;aspect=fixed;rotation=0;gradientColor=#0057D2;strokeColor=none;gradientDirection=east;fillColor=#2395FF;rounded=0;pointerEvents=0;fontFamily=Helvetica;fontSize=16;fontColor=default;spacingTop=4;spacingBottom=4;spacingLeft=4;spacingRight=4;verticalAlign=middle;container=0;" parent="1" vertex="1">
          <mxGeometry x="-1405.9999999999998" y="-1252" width="27.56" height="27.558999999999997" as="geometry" />
        </mxCell>
        <mxCell id="vsUOsGuE6CD4la2BPaX0-4" value="" style="endArrow=none;html=1;strokeColor=#475e75;bendable=1;rounded=0;endFill=0;endSize=4;strokeWidth=1.5;startSize=4;startArrow=blockThin;startFill=1;exitX=1;exitY=0.5;exitDx=0;exitDy=0;entryX=0;entryY=0.25;entryDx=0;entryDy=0;edgeStyle=orthogonalEdgeStyle;" parent="1" source="dFPvA1FSlUZvYu8P9tU1-22" target="dFPvA1FSlUZvYu8P9tU1-124" edge="1">
          <mxGeometry width="50" height="50" relative="1" as="geometry">
            <mxPoint x="-1528" y="-1049" as="sourcePoint" />
            <mxPoint x="-1456" y="-1048" as="targetPoint" />
            <Array as="points">
              <mxPoint x="-1390" y="-1094" />
              <mxPoint x="-1390" y="-999" />
            </Array>
          </mxGeometry>
        </mxCell>
        <mxCell id="dFPvA1FSlUZvYu8P9tU1-191" value="" style="endArrow=none;html=1;strokeColor=#5B738B;bendable=1;rounded=1;endFill=0;endSize=3;strokeWidth=3;jumpStyle=gap;" parent="1" edge="1">
          <mxGeometry width="50" height="50" relative="1" as="geometry">
            <mxPoint x="-1311" y="-1079.02" as="sourcePoint" />
            <mxPoint x="-1311" y="-760" as="targetPoint" />
            <Array as="points" />
          </mxGeometry>
        </mxCell>
      </root>
    </mxGraphModel>
  </diagram>
</mxfile>
